<svg width="438" height="438" viewBox="0 0 438 438" fill="none" xmlns="http://www.w3.org/2000/svg">
<path d="M4.03338 359.348C4.23057 356.923 5.15797 354.615 6.69331 352.728C8.13872 350.832 10.1404 349.435 12.4187 348.732C14.3632 348.179 16.4359 348.284 18.3147 349.03C20.1934 349.777 21.773 351.123 22.8079 352.859C23.6844 351.115 25.0926 349.694 26.8292 348.802C28.5659 347.91 30.541 347.594 32.4695 347.897C34.8152 348.331 36.9669 349.486 38.6243 351.201C40.3756 352.886 41.5666 355.068 42.0357 357.452C42.5977 360.497 42.1627 363.643 40.7952 366.421C39.1708 369.248 36.8977 371.648 34.1633 373.423C29.7261 376.464 23.8934 380.281 23.8934 380.281C23.8934 380.281 18.5497 376.763 13.8023 374.317C10.871 372.886 8.32651 370.771 6.38318 368.151C4.67238 365.546 3.84823 362.459 4.03338 359.348Z" fill="#EBEBEB"/>
<path d="M370.873 61.6762C371.064 59.2499 371.992 56.9399 373.533 55.0563C374.972 53.1582 376.97 51.7603 379.247 51.0605C381.191 50.5074 383.264 50.6121 385.143 51.3585C387.021 52.1048 388.601 53.4509 389.636 55.1875C390.512 53.443 391.921 52.0223 393.657 51.1304C395.394 50.2385 397.369 49.9216 399.298 50.2255C401.643 50.6589 403.795 51.814 405.452 53.5295C407.204 55.2154 408.398 57.3961 408.876 59.7797C409.423 62.833 408.976 65.9814 407.599 68.7613C405.978 71.5904 403.704 73.9909 400.967 75.7629C396.542 78.8045 390.698 82.6214 390.698 82.6214C390.698 82.6214 385.366 79.0431 380.606 76.6575C377.675 75.226 375.131 73.1111 373.187 70.4908C371.486 67.8789 370.674 64.787 370.873 61.6762Z" fill="#EBEBEB"/>
<path d="M36.3187 329.735C36.4358 328.178 37.0316 326.694 38.0244 325.489C38.9504 324.268 40.2349 323.367 41.6982 322.912C42.4782 322.699 43.2931 322.645 44.0944 322.754C44.8956 322.863 45.6668 323.131 46.362 323.544C47.1827 324.049 47.8732 324.74 48.3778 325.56C48.9401 324.441 49.8445 323.53 50.9599 322.959C52.0753 322.388 53.3434 322.188 54.5803 322.387C56.0869 322.655 57.4695 323.394 58.5284 324.499C59.6548 325.582 60.421 326.985 60.7232 328.518C61.0825 330.476 60.7979 332.497 59.9121 334.279C58.8718 336.097 57.4117 337.639 55.6538 338.776C52.803 340.732 49.0577 343.189 49.0577 343.189C49.0577 343.189 45.6224 340.923 42.5689 339.325C40.685 338.405 39.0489 337.047 37.7977 335.365C36.7137 333.695 36.1951 331.722 36.3187 329.735Z" fill="#F5F5F5"/>
<path d="M350.463 90.8716C350.588 89.316 351.183 87.835 352.169 86.6253C353.096 85.4089 354.381 84.5124 355.842 84.0609C357.092 83.7162 358.421 83.7882 359.626 84.266C360.831 84.7438 361.848 85.6014 362.522 86.7088C362.917 85.9282 363.479 85.2441 364.168 84.705C364.807 84.2072 365.54 83.8448 366.324 83.6397C367.107 83.4347 367.924 83.3913 368.725 83.5122C370.23 83.7891 371.611 84.5317 372.673 85.6353C373.801 86.7171 374.567 88.121 374.867 89.655C375.226 91.6126 374.941 93.6336 374.056 95.4161C373.019 97.2359 371.559 98.7785 369.798 99.9129C366.947 101.857 363.202 104.314 363.202 104.314C363.202 104.314 359.779 102.06 356.713 100.45C354.827 99.5337 353.19 98.1751 351.942 96.4896C350.859 94.8242 350.34 92.8545 350.463 90.8716Z" fill="#F5F5F5"/>
<path d="M378.514 352.011C378.631 350.453 379.227 348.97 380.22 347.765C381.146 346.544 382.43 345.643 383.893 345.188C384.674 344.975 385.488 344.921 386.29 345.03C387.091 345.139 387.862 345.407 388.557 345.82C389.378 346.325 390.069 347.015 390.573 347.836C391.132 346.714 392.036 345.801 393.153 345.23C394.269 344.659 395.538 344.46 396.776 344.663C398.278 344.942 399.658 345.679 400.724 346.775C401.85 347.858 402.616 349.261 402.918 350.794C403.272 352.752 402.987 354.771 402.107 356.555C401.066 358.376 399.601 359.918 397.837 361.052C394.998 363.008 391.241 365.465 391.241 365.465C391.241 365.465 387.818 363.199 384.764 361.601C382.88 360.681 381.244 359.323 379.993 357.641C378.909 355.971 378.39 353.998 378.514 352.011Z" fill="#EBEBEB"/>
<path d="M44.2528 379.162C44.3329 378.137 44.7288 377.162 45.3859 376.371C45.9857 375.569 46.8192 374.974 47.7715 374.665C48.2862 374.525 48.824 374.489 49.3527 374.561C49.8815 374.632 50.3903 374.81 50.8489 375.083C51.3864 375.421 51.8393 375.878 52.1729 376.419C52.4355 375.904 52.8057 375.453 53.2584 375.095C53.6807 374.768 54.1649 374.531 54.6816 374.398C55.1983 374.265 55.7368 374.238 56.2642 374.319C57.2566 374.498 58.167 374.987 58.8645 375.715C59.6178 376.422 60.1379 377.341 60.3554 378.351C60.588 379.644 60.3999 380.978 59.8187 382.156C59.133 383.358 58.1673 384.377 57.0037 385.126C55.131 386.414 52.65 388.024 52.65 388.024C52.65 388.024 50.3957 386.533 48.3799 385.484C47.1434 384.872 46.0687 383.977 45.2428 382.872C44.5226 381.774 44.1754 380.473 44.2528 379.162Z" fill="#F5F5F5"/>
<path d="M12.6937 194.212C12.6937 194.212 7.19499 198.983 19.1348 209.969C25.1743 215.713 31.5898 221.049 38.3387 225.94C38.3387 225.94 40.7243 228.636 38.2672 230.103C35.81 231.57 29.6433 232.787 29.6433 236.472C29.6433 240.158 33.2217 242.568 39.2691 243.522C45.3166 244.476 58.3538 247.1 59.463 247.291C60.5723 247.482 62.111 248.639 60.5843 249.915C59.0575 251.191 46.4258 257.406 49.7418 263.215C53.0578 269.023 70.1624 268.952 72.0351 268.988C73.9077 269.023 74.5518 269.56 74.7546 270.514C74.9574 271.469 70.5083 273.15 66.9896 275.059C63.4708 276.967 59.7255 279.83 61.9083 283.015C64.0911 286.199 75.7685 290.314 98.2526 284.434L108.499 281.035L110.884 270.443C114.534 247.494 109.31 236.282 105.91 234.421C102.511 232.56 100.054 236.556 98.4911 240.242C96.9286 243.927 95.6881 248.52 94.7219 248.424C93.7558 248.329 93.1474 247.72 92.9327 245.86C92.718 243.999 91.1316 226.966 85.0126 224.246C78.8936 221.527 73.9554 234.695 72.8342 236.341C71.713 237.987 70.4486 236.604 70.1147 235.482C69.7807 234.361 65.928 221.61 64.3893 215.742C62.8506 209.874 60.2384 206.51 56.4334 206.868C52.6284 207.226 52.1632 213.488 50.9346 216.088C49.706 218.688 46.7956 216.577 46.7956 216.577C41.2552 210.332 35.3017 204.466 28.9753 199.019C16.8447 188.284 12.5864 194.32 12.5864 194.32" fill="#EBEBEB"/>
<path d="M109.868 283.222C100.994 275.255 85.4521 260.834 72.0451 248.524C58.6382 236.215 46.4956 225.074 37.657 217.071L27.1843 207.6C25.9915 206.479 24.9896 205.62 24.3336 205.012L23.594 204.344L23.3555 204.105C23.4474 204.167 23.535 204.235 23.6179 204.308C23.7968 204.475 24.0592 204.69 24.3813 204.964L27.2559 207.493C29.7607 209.7 33.363 212.908 37.8001 216.892C46.6864 224.86 58.8529 235.976 72.2598 248.274C85.6668 260.572 101.209 275.04 110.035 283.043" fill="#E0E0E0"/>
<path d="M38.3438 235.103C38.625 235.07 38.9093 235.07 39.1906 235.103H41.3138C43.103 235.103 45.584 235.103 48.3155 235.27L55.3052 235.58L57.4284 235.664C57.6863 235.64 57.9458 235.64 58.2037 235.664C57.9489 235.717 57.6887 235.741 57.4284 235.735C56.9155 235.735 56.2356 235.735 55.2933 235.735C53.5041 235.735 51.035 235.628 48.3036 235.521L41.3019 235.246L39.1906 235.175C38.9064 235.188 38.6217 235.164 38.3438 235.103Z" fill="#E0E0E0"/>
<path d="M58.5918 234.752C58.4964 234.752 58.389 229.635 58.3533 223.337C58.3175 217.039 58.3533 211.91 58.4606 211.91C58.568 211.91 58.6515 217.027 58.6872 223.325C58.723 229.623 58.6753 234.752 58.5918 234.752Z" fill="#E0E0E0"/>
<path d="M78.3203 254.575C78.3551 254.311 78.415 254.051 78.4992 253.799C78.6662 253.251 78.8571 252.606 79.0956 251.724C79.5966 249.958 80.2884 247.525 80.9206 244.818C81.5528 242.11 82.1134 239.641 82.4354 237.84C82.6144 237.005 82.7456 236.289 82.8648 235.717C82.8968 235.451 82.9609 235.191 83.0557 234.941C83.0658 235.209 83.0458 235.477 82.9961 235.741C82.9245 236.253 82.8291 236.933 82.674 237.888C82.3758 239.689 81.9106 242.182 81.2546 244.901C80.5986 247.621 79.8829 250.042 79.3223 251.795C79.036 252.666 78.8094 253.358 78.6305 253.847C78.5569 254.101 78.4528 254.345 78.3203 254.575Z" fill="#E0E0E0"/>
<path d="M60.082 258.959C60.2999 258.844 60.5327 258.76 60.7739 258.709L62.7062 258.172C64.3403 257.719 66.5947 257.134 69.0995 256.502C71.6044 255.87 73.8707 255.309 75.5167 254.928L77.461 254.486C77.6999 254.427 77.9432 254.387 78.1886 254.367C77.9692 254.479 77.7368 254.563 77.4968 254.618L75.5764 255.154C73.9423 255.608 71.676 256.192 69.183 256.824C66.6901 257.456 64.4119 258.017 62.7658 258.399L60.8096 258.84C60.5709 258.9 60.3275 258.94 60.082 258.959Z" fill="#E0E0E0"/>
<path d="M75.2852 278.669C75.5726 278.54 75.8723 278.44 76.1797 278.371L78.6488 277.667C80.7362 277.083 83.6228 276.308 86.8194 275.461C90.0161 274.614 92.9146 273.874 95.0258 273.35L97.5188 272.753C97.8193 272.668 98.1266 272.608 98.4372 272.574C98.1539 272.706 97.8582 272.81 97.5545 272.884L95.0855 273.588C92.9981 274.161 90.0996 274.948 86.9029 275.783C83.7063 276.618 80.8078 277.369 78.7085 277.894L76.2155 278.49C75.9129 278.584 75.6009 278.644 75.2852 278.669Z" fill="#E0E0E0"/>
<path d="M97.8516 272.557C97.8879 272.221 97.9558 271.889 98.0544 271.567C98.2213 270.887 98.436 269.98 98.7104 268.907C99.2591 266.652 100.011 263.539 100.738 260.08C101.466 256.621 102.062 253.46 102.468 251.182C102.67 250.085 102.837 249.178 102.957 248.474C103.003 248.139 103.074 247.808 103.171 247.484C103.171 247.824 103.143 248.163 103.088 248.498C103.004 249.142 102.885 250.073 102.706 251.218C102.36 253.52 101.812 256.681 101.072 260.14C100.333 263.599 99.5453 266.724 98.937 268.966C98.6269 270.087 98.3645 270.982 98.1736 271.602C98.0867 271.927 97.9791 272.246 97.8516 272.557Z" fill="#E0E0E0"/>
<path d="M349.645 260.606C333.805 246.734 332.254 224.012 335.093 204.093C335.57 200.753 335.582 197.186 337.478 194.419C339.375 191.652 343.311 190.054 346.162 191.783C348.548 193.226 349.287 196.232 350.42 198.773C351.929 202.166 354.369 205.061 357.458 207.122C359.474 208.458 362.038 209.412 364.269 208.482C367.322 207.206 368.085 203.258 368.431 199.918C369.06 193.715 369.688 187.509 370.316 181.299C370.472 177.951 371.173 174.652 372.391 171.53C373.763 168.476 376.363 165.793 379.632 165.244C382.9 164.695 386.61 166.95 386.92 170.277C386.905 171.668 386.79 173.055 386.574 174.428C386.463 175.126 386.565 175.841 386.867 176.479C387.17 177.118 387.658 177.65 388.267 178.007C389.556 178.543 390.987 177.744 392.084 176.814C395.877 173.82 398.681 169.741 401.329 165.673C403.977 161.606 406.565 157.372 410.143 153.996C413.722 150.62 418.278 148.235 423.073 148.473C427.868 148.712 432.615 152.207 433.331 157.014C434.047 161.821 430.779 166.305 427.367 169.776C422.341 174.947 416.597 179.366 410.31 182.897C409.106 183.403 408.094 184.281 407.424 185.402C406.458 187.537 408.33 189.97 410.441 190.936C412.827 192.022 415.547 192.058 418.111 192.642C420.676 193.226 423.359 194.682 424.075 197.234C425.077 200.813 421.845 204.045 418.791 206.073C412.682 210.152 405.915 213.146 398.788 214.923C396.247 215.555 393.587 216.116 391.428 217.571C389.269 219.026 387.719 221.984 388.673 224.37C389.627 226.755 392.597 227.948 395.21 227.733C397.822 227.519 400.279 226.386 402.82 225.73C407.591 224.537 413.447 225.443 415.94 229.714C416.689 231.17 417.089 232.78 417.11 234.417C417.131 236.054 416.771 237.674 416.059 239.148C414.606 242.083 412.578 244.695 410.096 246.83C401.906 254.755 391.76 260.365 380.693 263.087C369.696 265.616 359.76 265.556 349.621 260.571" fill="#F5F5F5"/>
<path d="M356.188 248.6C360.694 238.04 365.8 227.746 371.479 217.767C372.982 215.107 374.449 212.483 375.904 209.895C377.36 207.306 378.815 204.754 380.377 202.332C383.405 197.701 386.682 193.237 390.194 188.961C393.522 184.858 396.826 181.089 399.939 177.582C403.052 174.075 406.046 170.879 408.885 168.04C413.327 163.594 418.113 159.506 423.199 155.814C425 154.502 426.431 153.536 427.409 152.892L428.53 152.164C428.653 152.074 428.785 151.998 428.924 151.938C428.812 152.042 428.693 152.138 428.566 152.224L427.481 152.999C426.526 153.667 425.095 154.669 423.342 156.005C418.311 159.763 413.567 163.89 409.147 168.35C406.344 171.177 403.386 174.386 400.285 177.892C397.184 181.399 393.904 185.192 390.6 189.295C387.104 193.554 383.85 198.006 380.854 202.63C379.292 205.016 377.86 207.569 376.405 210.157L371.98 218.029C366.31 227.986 361.201 238.252 356.677 248.779" fill="#E0E0E0"/>
<path d="M380.552 202.326C380.452 201.847 380.396 201.36 380.385 200.871C380.302 199.929 380.242 198.569 380.183 196.887C380.075 193.524 380.075 188.872 380.099 183.767C380.123 178.662 380.099 173.998 379.896 170.646C379.813 168.964 379.741 167.605 379.67 166.674C379.61 166.187 379.61 165.694 379.67 165.207C379.803 165.679 379.891 166.162 379.932 166.65C380.075 167.581 380.218 168.94 380.35 170.61C380.624 173.974 380.755 178.626 380.731 183.731C380.707 188.836 380.672 193.368 380.648 196.851V200.835C380.678 201.334 380.646 201.835 380.552 202.326Z" fill="#E0E0E0"/>
<path d="M424.211 198.938C423.636 198.986 423.057 198.986 422.482 198.938C421.373 198.938 419.762 198.938 417.782 198.938C413.822 198.938 408.347 199.129 402.276 199.606C396.205 200.083 390.801 200.799 386.877 201.371C384.909 201.657 383.299 201.932 382.237 202.111C381.672 202.238 381.098 202.318 380.52 202.349C381.058 202.134 381.618 201.974 382.189 201.872C383.275 201.622 384.849 201.276 386.806 200.93C390.73 200.226 396.181 199.475 402.228 198.986C407.386 198.561 412.561 198.398 417.735 198.497C419.715 198.497 421.313 198.64 422.434 198.735C423.032 198.743 423.627 198.811 424.211 198.938Z" fill="#E0E0E0"/>
<path d="M356.79 247.854C356.685 247.683 356.605 247.498 356.552 247.305L355.991 245.683C355.502 244.264 354.798 242.2 354.094 239.636C352.556 234.507 350.659 227.362 348.667 219.454C346.675 211.546 344.85 204.389 343.419 199.236L341.713 193.141C341.534 192.485 341.379 191.948 341.26 191.483C341.192 191.291 341.152 191.09 341.141 190.887C341.234 191.067 341.314 191.255 341.379 191.447C341.522 191.889 341.713 192.425 341.94 193.07C342.429 194.489 343.073 196.552 343.836 199.117C345.375 204.234 347.272 211.379 349.264 219.299C351.256 227.219 353.08 234.363 354.512 239.576L356.218 245.671C356.396 246.327 356.552 246.864 356.671 247.329C356.732 247.498 356.772 247.675 356.79 247.854Z" fill="#E0E0E0"/>
<path d="M415.617 235.661C415.434 235.751 415.236 235.808 415.033 235.828L413.327 236.21L407.017 237.522C401.698 238.643 394.374 240.253 386.275 242.066C378.176 243.88 370.769 245.418 365.473 246.42C362.801 246.933 360.63 247.315 359.127 247.613L357.397 247.863C357.196 247.898 356.99 247.898 356.789 247.863C356.979 247.792 357.175 247.737 357.374 247.696L359.091 247.327L365.389 246.003C370.709 244.893 378.045 243.271 386.144 241.47C394.243 239.669 401.59 238.106 406.934 237.105C409.606 236.604 411.777 236.222 413.28 235.983L415.009 235.721C415.209 235.675 415.413 235.655 415.617 235.661Z" fill="#E0E0E0"/>
<path d="M63.1154 205.022C62.902 204.576 62.738 204.108 62.6264 203.626C62.4832 203.173 62.3282 202.6 62.185 201.944C62.0419 201.288 61.8511 200.513 61.7318 199.678C61.4047 197.706 61.2214 195.713 61.1831 193.714C61.1531 191.259 61.3207 188.806 61.6841 186.379C62.0814 183.951 62.6676 181.558 63.4375 179.222C64.0965 177.325 64.8939 175.479 65.8231 173.699C66.1928 172.924 66.6103 172.268 66.9443 171.672C67.2783 171.075 67.6003 170.598 67.8747 170.204C68.1292 169.776 68.4291 169.376 68.7692 169.012C68.8647 169.071 67.6838 170.825 66.2167 173.878C65.3694 175.667 64.6364 177.507 64.0219 179.389C63.2921 181.704 62.7261 184.068 62.3282 186.462C61.9773 188.86 61.7979 191.279 61.7914 193.702C61.8023 195.697 61.9417 197.689 62.2089 199.666C62.6383 202.97 63.2347 204.998 63.1154 205.022Z" fill="#212121"/>
<path d="M63.1154 205.022C62.902 204.576 62.738 204.108 62.6264 203.626C62.4832 203.173 62.3282 202.6 62.185 201.944C62.0419 201.288 61.8511 200.513 61.7318 199.678C61.4047 197.706 61.2214 195.713 61.1831 193.714C61.1531 191.259 61.3207 188.806 61.6841 186.379C62.0814 183.951 62.6676 181.558 63.4375 179.222C64.0965 177.325 64.8939 175.479 65.8231 173.699C66.1928 172.924 66.6103 172.268 66.9443 171.672C67.2783 171.075 67.6003 170.598 67.8747 170.204C68.1292 169.776 68.4291 169.376 68.7692 169.012C68.8647 169.071 67.6838 170.825 66.2167 173.878C65.3694 175.667 64.6364 177.507 64.0219 179.389C63.2921 181.704 62.7261 184.068 62.3282 186.462C61.9773 188.86 61.7979 191.279 61.7914 193.702C61.8023 195.697 61.9417 197.689 62.2089 199.666C62.6383 202.97 63.2347 204.998 63.1154 205.022Z" fill="black" fill-opacity="0.2"/>
<path d="M344.838 132.018L86.1953 180.141L113.264 325.62L371.907 277.497L344.838 132.018Z" fill="white"/>
<path d="M371.901 277.495C371.901 277.495 371.71 276.612 371.388 274.895C371.066 273.177 370.577 270.625 369.945 267.297C368.693 260.641 366.844 250.825 364.482 238.229C359.711 213.049 352.96 176.717 344.586 132.072L344.873 132.262L86.252 180.439L86.5024 180.069C96.0448 231.525 105.217 280.739 113.555 325.588L113.209 325.349L299.284 290.866L352.733 281.002L366.975 278.39L370.649 277.722L371.913 277.507L370.72 277.757L367.082 278.449L352.888 281.109L299.523 291.164L113.304 325.91L113.018 325.969V325.683C104.669 280.859 95.508 231.657 85.918 180.164V179.854H86.2162L344.777 131.773H345.016V132L364.673 238.372C366.987 250.956 368.788 260.748 370.017 267.404L371.4 274.966C371.758 276.636 371.901 277.495 371.901 277.495Z" fill="#212121"/>
<path d="M371.901 277.495C371.901 277.495 371.71 276.612 371.388 274.895C371.066 273.177 370.577 270.625 369.945 267.297C368.693 260.641 366.844 250.825 364.482 238.229C359.711 213.049 352.96 176.717 344.586 132.072L344.873 132.262L86.252 180.439L86.5024 180.069C96.0448 231.525 105.217 280.739 113.555 325.588L113.209 325.349L299.284 290.866L352.733 281.002L366.975 278.39L370.649 277.722L371.913 277.507L370.72 277.757L367.082 278.449L352.888 281.109L299.523 291.164L113.304 325.91L113.018 325.969V325.683C104.669 280.859 95.508 231.657 85.918 180.164V179.854H86.2162L344.777 131.773H345.016V132L364.673 238.372C366.987 250.956 368.788 260.748 370.017 267.404L371.4 274.966C371.758 276.636 371.901 277.495 371.901 277.495Z" fill="black" fill-opacity="0.2"/>
<path d="M339.376 147.77C339.418 148.836 339.143 149.891 338.584 150.801C338.026 151.711 337.21 152.435 336.24 152.88C335.27 153.326 334.189 153.474 333.135 153.304C332.081 153.135 331.101 152.657 330.319 151.93C329.537 151.204 328.988 150.261 328.742 149.222C328.497 148.184 328.565 147.095 328.938 146.095C329.312 145.095 329.974 144.228 330.84 143.605C331.707 142.981 332.739 142.629 333.806 142.593C335.23 142.545 336.615 143.062 337.659 144.032C338.703 145.002 339.32 146.346 339.376 147.77Z" fill="#E0E0E0"/>
<path d="M339.38 147.765C339.32 147.765 339.308 147.288 339.046 146.489C338.665 145.373 337.933 144.41 336.959 143.745C336.172 143.213 335.253 142.908 334.303 142.864C333.354 142.821 332.411 143.041 331.579 143.501C330.747 143.96 330.058 144.64 329.589 145.466C329.12 146.293 328.888 147.233 328.919 148.183C328.966 149.129 329.273 150.043 329.806 150.826C330.339 151.609 331.077 152.23 331.94 152.621C332.803 153.012 333.757 153.157 334.697 153.041C335.637 152.925 336.527 152.552 337.269 151.964C338.191 151.228 338.845 150.21 339.13 149.065C339.332 148.242 339.308 147.765 339.368 147.765C339.428 147.765 339.368 147.884 339.428 148.111C339.45 148.446 339.43 148.783 339.368 149.113C339.156 150.357 338.509 151.486 337.543 152.298C336.825 152.909 335.964 153.33 335.041 153.519C334.117 153.709 333.16 153.662 332.259 153.383C331.143 153.037 330.161 152.353 329.45 151.425C328.738 150.498 328.331 149.373 328.286 148.205C328.24 147.037 328.557 145.883 329.194 144.903C329.831 143.923 330.756 143.164 331.842 142.732C332.717 142.379 333.667 142.255 334.604 142.37C335.54 142.484 336.433 142.835 337.197 143.388C338.222 144.127 338.952 145.204 339.261 146.429C339.351 146.751 339.396 147.085 339.392 147.419C339.404 147.646 339.404 147.765 339.38 147.765Z" fill="#212121"/>
<path d="M339.38 147.765C339.32 147.765 339.308 147.288 339.046 146.489C338.665 145.373 337.933 144.41 336.959 143.745C336.172 143.213 335.253 142.908 334.303 142.864C333.354 142.821 332.411 143.041 331.579 143.501C330.747 143.96 330.058 144.64 329.589 145.466C329.12 146.293 328.888 147.233 328.919 148.183C328.966 149.129 329.273 150.043 329.806 150.826C330.339 151.609 331.077 152.23 331.94 152.621C332.803 153.012 333.757 153.157 334.697 153.041C335.637 152.925 336.527 152.552 337.269 151.964C338.191 151.228 338.845 150.21 339.13 149.065C339.332 148.242 339.308 147.765 339.368 147.765C339.428 147.765 339.368 147.884 339.428 148.111C339.45 148.446 339.43 148.783 339.368 149.113C339.156 150.357 338.509 151.486 337.543 152.298C336.825 152.909 335.964 153.33 335.041 153.519C334.117 153.709 333.16 153.662 332.259 153.383C331.143 153.037 330.161 152.353 329.45 151.425C328.738 150.498 328.331 149.373 328.286 148.205C328.24 147.037 328.557 145.883 329.194 144.903C329.831 143.923 330.756 143.164 331.842 142.732C332.717 142.379 333.667 142.255 334.604 142.37C335.54 142.484 336.433 142.835 337.197 143.388C338.222 144.127 338.952 145.204 339.261 146.429C339.351 146.751 339.396 147.085 339.392 147.419C339.404 147.646 339.404 147.765 339.38 147.765Z" fill="black" fill-opacity="0.2"/>
<path d="M336.376 144.02C336.643 145.459 336.381 146.946 335.637 148.206C335.081 149.558 334.056 150.664 332.75 151.319C333.601 150.24 334.378 149.104 335.076 147.92C335.594 146.65 336.028 145.347 336.376 144.02Z" fill="#212121"/>
<path d="M336.376 144.02C336.643 145.459 336.381 146.946 335.637 148.206C335.081 149.558 334.056 150.664 332.75 151.319C333.601 150.24 334.378 149.104 335.076 147.92C335.594 146.65 336.028 145.347 336.376 144.02Z" fill="black" fill-opacity="0.2"/>
<path d="M337.381 149.739C337.226 149.835 336.511 148.415 334.888 147.58C333.862 147.165 332.782 146.9 331.68 146.793C331.68 146.71 332.038 146.543 332.694 146.495C333.554 146.45 334.41 146.635 335.175 147.032C335.938 147.426 336.581 148.02 337.035 148.749C337.381 149.31 337.501 149.715 337.381 149.739Z" fill="#212121"/>
<path d="M337.381 149.739C337.226 149.835 336.511 148.415 334.888 147.58C333.862 147.165 332.782 146.9 331.68 146.793C331.68 146.71 332.038 146.543 332.694 146.495C333.554 146.45 334.41 146.635 335.175 147.032C335.938 147.426 336.581 148.02 337.035 148.749C337.381 149.31 337.501 149.715 337.381 149.739Z" fill="black" fill-opacity="0.2"/>
<path d="M97.6471 218.895L84.0781 229.715L88.9715 235.851L102.54 225.031L97.6471 218.895Z" fill="#E0E0E0"/>
<path d="M102.543 225.046C102.543 225.046 101.994 224.449 101.112 223.4L97.5333 219.046H97.8553C94.3724 221.885 89.6132 225.726 84.341 229.924C84.341 230.318 84.341 229.399 84.341 229.495L84.4245 229.602L84.5915 229.805L84.9136 230.199L85.5457 230.998L86.7385 232.56L89.1241 235.542H88.7066C92.619 232.453 96.0184 229.829 98.4636 227.944L101.35 225.75C101.702 225.462 102.072 225.199 102.459 224.962C102.179 225.256 101.876 225.527 101.553 225.773L98.8095 228.064C96.424 230.02 93.0603 232.835 89.0764 236.007L88.8498 236.186L88.6589 235.96L86.2733 232.99C85.8559 232.477 85.4384 231.964 85.0209 231.427L84.3887 230.64L84.0667 230.234L83.8997 230.032L83.8281 229.936C83.8281 230.032 83.9235 229.113 83.8281 229.507C89.1002 225.296 93.9072 221.515 97.4498 218.772L97.6287 218.641L97.7718 218.808C99.2867 220.764 100.491 222.386 101.35 223.436C101.784 223.945 102.182 224.483 102.543 225.046Z" fill="#212121"/>
<path d="M102.543 225.046C102.543 225.046 101.994 224.449 101.112 223.4L97.5333 219.046H97.8553C94.3724 221.885 89.6132 225.726 84.341 229.924C84.341 230.318 84.341 229.399 84.341 229.495L84.4245 229.602L84.5915 229.805L84.9136 230.199L85.5457 230.998L86.7385 232.56L89.1241 235.542H88.7066C92.619 232.453 96.0184 229.829 98.4636 227.944L101.35 225.75C101.702 225.462 102.072 225.199 102.459 224.962C102.179 225.256 101.876 225.527 101.553 225.773L98.8095 228.064C96.424 230.02 93.0603 232.835 89.0764 236.007L88.8498 236.186L88.6589 235.96L86.2733 232.99C85.8559 232.477 85.4384 231.964 85.0209 231.427L84.3887 230.64L84.0667 230.234L83.8997 230.032L83.8281 229.936C83.8281 230.032 83.9235 229.113 83.8281 229.507C89.1002 225.296 93.9072 221.515 97.4498 218.772L97.6287 218.641L97.7718 218.808C99.2867 220.764 100.491 222.386 101.35 223.436C101.784 223.945 102.182 224.483 102.543 225.046Z" fill="black" fill-opacity="0.2"/>
<path d="M81.0304 237.49C81.6199 238.237 82.3508 238.86 83.1813 239.324C84.0117 239.789 84.9256 240.084 85.8705 240.195C86.8154 240.306 87.7729 240.229 88.6882 239.97C89.6035 239.71 90.4587 239.273 91.2049 238.683L82.1278 227.352C80.6445 228.555 79.6968 230.296 79.4913 232.195C79.2857 234.094 79.839 235.997 81.0304 237.49Z" fill="#E0E0E0"/>
<path d="M81.0317 237.49C80.8125 237.31 80.6232 237.097 80.4711 236.858C80.022 236.196 79.6911 235.462 79.493 234.687C79.1742 233.491 79.1742 232.233 79.493 231.037C79.8861 229.485 80.7686 228.101 82.0098 227.089L82.2364 226.91L82.4153 227.137L86.9479 232.779C88.5463 234.782 90.0611 236.703 91.4447 238.456L91.6237 238.683L91.397 238.862C90.1357 239.845 88.594 240.4 86.9956 240.448C85.7512 240.48 84.5194 240.192 83.4173 239.613C82.7101 239.245 82.0724 238.757 81.5327 238.17C81.3313 237.971 81.1623 237.741 81.0317 237.49C81.788 238.212 82.6435 238.823 83.5723 239.303C84.7759 239.859 86.1102 240.07 87.4265 239.912C88.7429 239.754 89.9895 239.233 91.0273 238.409V238.814L86.4947 233.172L81.9978 227.495H82.3915C81.3538 228.324 80.5677 229.427 80.1211 230.678C79.6745 231.929 79.585 233.28 79.8628 234.58C80.1166 235.599 80.51 236.578 81.0317 237.49Z" fill="#212121"/>
<path d="M81.0317 237.49C80.8125 237.31 80.6232 237.097 80.4711 236.858C80.022 236.196 79.6911 235.462 79.493 234.687C79.1742 233.491 79.1742 232.233 79.493 231.037C79.8861 229.485 80.7686 228.101 82.0098 227.089L82.2364 226.91L82.4153 227.137L86.9479 232.779C88.5463 234.782 90.0611 236.703 91.4447 238.456L91.6237 238.683L91.397 238.862C90.1357 239.845 88.594 240.4 86.9956 240.448C85.7512 240.48 84.5194 240.192 83.4173 239.613C82.7101 239.245 82.0724 238.757 81.5327 238.17C81.3313 237.971 81.1623 237.741 81.0317 237.49C81.788 238.212 82.6435 238.823 83.5723 239.303C84.7759 239.859 86.1102 240.07 87.4265 239.912C88.7429 239.754 89.9895 239.233 91.0273 238.409V238.814L86.4947 233.172L81.9978 227.495H82.3915C81.3538 228.324 80.5677 229.427 80.1211 230.678C79.6745 231.929 79.585 233.28 79.8628 234.58C80.1166 235.599 80.51 236.578 81.0317 237.49Z" fill="black" fill-opacity="0.2"/>
<path d="M82.7013 233.734C82.144 234.381 81.7784 235.17 81.6456 236.013C81.5128 236.856 81.6182 237.719 81.9499 238.505" fill="#E0E0E0"/>
<path d="M81.9525 238.555C81.64 238.215 81.4191 237.802 81.3106 237.353C81.2021 236.904 81.2096 236.435 81.3323 235.99C81.5589 234.44 82.6086 233.605 82.704 233.736C82.7994 233.867 82.1315 234.75 81.9406 236.122C81.7498 237.493 82.1315 238.471 81.9525 238.555Z" fill="#212121"/>
<path d="M81.9525 238.555C81.64 238.215 81.4191 237.802 81.3106 237.353C81.2021 236.904 81.2096 236.435 81.3323 235.99C81.5589 234.44 82.6086 233.605 82.704 233.736C82.7994 233.867 82.1315 234.75 81.9406 236.122C81.7498 237.493 82.1315 238.471 81.9525 238.555Z" fill="black" fill-opacity="0.2"/>
<path d="M91.2292 234.505C90.2673 233.521 89.3821 232.464 88.5812 231.344C87.6285 230.358 86.7513 229.301 85.957 228.184C87.1887 228.857 88.2496 229.804 89.0583 230.951C90.0348 231.961 90.7761 233.175 91.2292 234.505Z" fill="#212121"/>
<path d="M91.2292 234.505C90.2673 233.521 89.3821 232.464 88.5812 231.344C87.6285 230.358 86.7513 229.301 85.957 228.184C87.1887 228.857 88.2496 229.804 89.0583 230.951C90.0348 231.961 90.7761 233.175 91.2292 234.505Z" fill="black" fill-opacity="0.2"/>
<path d="M92.8579 233.244C91.9015 232.257 91.0204 231.201 90.2218 230.083C89.2663 229.095 88.3889 228.034 87.5977 226.91C89.9451 228.448 91.7775 230.654 92.8579 233.244Z" fill="#212121"/>
<path d="M92.8579 233.244C91.9015 232.257 91.0204 231.201 90.2218 230.083C89.2663 229.095 88.3889 228.034 87.5977 226.91C89.9451 228.448 91.7775 230.654 92.8579 233.244Z" fill="black" fill-opacity="0.2"/>
<path d="M94.4089 231.966C93.449 230.983 92.5676 229.926 91.7728 228.805C90.8143 227.821 89.9331 226.764 89.1367 225.645C90.3707 226.319 91.4353 227.265 92.2499 228.412C93.219 229.426 93.9558 230.639 94.4089 231.966Z" fill="#212121"/>
<path d="M94.4089 231.966C93.449 230.983 92.5676 229.926 91.7728 228.805C90.8143 227.821 89.9331 226.764 89.1367 225.645C90.3707 226.319 91.4353 227.265 92.2499 228.412C93.219 229.426 93.9558 230.639 94.4089 231.966Z" fill="black" fill-opacity="0.2"/>
<path d="M95.9985 230.701C95.0421 229.714 94.161 228.658 93.3624 227.54C92.4111 226.548 91.534 225.488 90.7383 224.367C91.9628 225.051 93.0217 225.995 93.8395 227.134C94.8181 228.146 95.556 229.365 95.9985 230.701Z" fill="#212121"/>
<path d="M95.9985 230.701C95.0421 229.714 94.161 228.658 93.3624 227.54C92.4111 226.548 91.534 225.488 90.7383 224.367C91.9628 225.051 93.0217 225.995 93.8395 227.134C94.8181 228.146 95.556 229.365 95.9985 230.701Z" fill="black" fill-opacity="0.2"/>
<path d="M97.6391 229.427C96.6793 228.444 95.7979 227.387 95.003 226.266C94.0462 225.284 93.1687 224.227 92.3789 223.105C93.6055 223.786 94.665 224.731 95.4802 225.873C96.4493 226.887 97.186 228.1 97.6391 229.427Z" fill="#212121"/>
<path d="M97.6391 229.427C96.6793 228.444 95.7979 227.387 95.003 226.266C94.0462 225.284 93.1687 224.227 92.3789 223.105C93.6055 223.786 94.665 224.731 95.4802 225.873C96.4493 226.887 97.186 228.1 97.6391 229.427Z" fill="black" fill-opacity="0.2"/>
<path d="M99.186 228.162C98.2296 227.175 97.3485 226.119 96.5499 225.001C95.5986 224.009 94.7215 222.949 93.9258 221.828C95.1503 222.511 96.2092 223.456 97.027 224.595C98.0055 225.607 98.7435 226.826 99.186 228.162Z" fill="#212121"/>
<path d="M99.186 228.162C98.2296 227.175 97.3485 226.119 96.5499 225.001C95.5986 224.009 94.7215 222.949 93.9258 221.828C95.1503 222.511 96.2092 223.456 97.027 224.595C98.0055 225.607 98.7435 226.826 99.186 228.162Z" fill="black" fill-opacity="0.2"/>
<path d="M100.784 226.884C99.8238 225.901 98.9424 224.844 98.1476 223.723C97.1907 222.741 96.3132 221.684 95.5234 220.562C96.75 221.243 97.8095 222.188 98.6247 223.33C99.5939 224.344 100.331 225.557 100.784 226.884Z" fill="#212121"/>
<path d="M100.784 226.884C99.8238 225.901 98.9424 224.844 98.1476 223.723C97.1907 222.741 96.3132 221.684 95.5234 220.562C96.75 221.243 97.8095 222.188 98.6247 223.33C99.5939 224.344 100.331 225.557 100.784 226.884Z" fill="black" fill-opacity="0.2"/>
<path d="M110.16 192.167C110.101 192.167 110.089 191.678 109.826 190.879C109.448 189.742 108.701 188.764 107.703 188.1C106.907 187.557 105.977 187.245 105.014 187.199C104.052 187.153 103.096 187.375 102.252 187.84C101.408 188.304 100.709 188.993 100.234 189.831C99.7577 190.669 99.5233 191.622 99.5563 192.585C99.5985 193.548 99.907 194.481 100.448 195.279C100.988 196.078 101.74 196.711 102.619 197.108C103.498 197.504 104.47 197.65 105.426 197.527C106.383 197.404 107.287 197.019 108.037 196.413C108.973 195.671 109.636 194.639 109.922 193.479C110.124 192.656 110.101 192.167 110.16 192.167C110.22 192.167 110.16 192.286 110.22 192.513C110.242 192.852 110.222 193.193 110.16 193.527C109.966 194.793 109.333 195.95 108.371 196.795C107.646 197.416 106.775 197.841 105.84 198.031C104.905 198.221 103.937 198.169 103.027 197.881C101.913 197.52 100.937 196.826 100.23 195.893C99.5222 194.96 99.1178 193.833 99.071 192.663C99.0242 191.493 99.3372 190.337 99.9678 189.35C100.598 188.364 101.516 187.594 102.598 187.146C103.486 186.792 104.449 186.668 105.397 186.785C106.346 186.902 107.249 187.255 108.025 187.813C109.059 188.564 109.798 189.653 110.113 190.891C110.199 191.218 110.247 191.554 110.256 191.893C110.216 192.076 110.184 192.167 110.16 192.167Z" fill="#212121"/>
<path d="M110.16 192.167C110.101 192.167 110.089 191.678 109.826 190.879C109.448 189.742 108.701 188.764 107.703 188.1C106.907 187.557 105.977 187.245 105.014 187.199C104.052 187.153 103.096 187.375 102.252 187.84C101.408 188.304 100.709 188.993 100.234 189.831C99.7577 190.669 99.5233 191.622 99.5563 192.585C99.5985 193.548 99.907 194.481 100.448 195.279C100.988 196.078 101.74 196.711 102.619 197.108C103.498 197.504 104.47 197.65 105.426 197.527C106.383 197.404 107.287 197.019 108.037 196.413C108.973 195.671 109.636 194.639 109.922 193.479C110.124 192.656 110.101 192.167 110.16 192.167C110.22 192.167 110.16 192.286 110.22 192.513C110.242 192.852 110.222 193.193 110.16 193.527C109.966 194.793 109.333 195.95 108.371 196.795C107.646 197.416 106.775 197.841 105.84 198.031C104.905 198.221 103.937 198.169 103.027 197.881C101.913 197.52 100.937 196.826 100.23 195.893C99.5222 194.96 99.1178 193.833 99.071 192.663C99.0242 191.493 99.3372 190.337 99.9678 189.35C100.598 188.364 101.516 187.594 102.598 187.146C103.486 186.792 104.449 186.668 105.397 186.785C106.346 186.902 107.249 187.255 108.025 187.813C109.059 188.564 109.798 189.653 110.113 190.891C110.199 191.218 110.247 191.554 110.256 191.893C110.216 192.076 110.184 192.167 110.16 192.167Z" fill="black" fill-opacity="0.2"/>
<path d="M74.7329 205.381C74.5303 204.932 74.3706 204.465 74.2558 203.985C74.0727 203.431 73.9253 202.865 73.8145 202.292C73.6714 201.636 73.4686 200.884 73.3612 200.037C73.0303 198.066 72.8429 196.072 72.8006 194.074C72.707 189.148 73.4739 184.243 75.0669 179.581C75.7232 177.68 76.5206 175.83 77.4525 174.047C77.8103 173.271 78.2278 172.615 78.5618 172.031C78.8469 171.527 79.1575 171.037 79.4922 170.564C79.7499 170.137 80.0496 169.738 80.3868 169.371C80.4941 169.443 79.3013 171.184 77.8461 174.25C76.9853 176.034 76.248 177.875 75.6395 179.76C74.9095 182.07 74.3474 184.43 73.9576 186.821C73.5967 189.222 73.4133 191.646 73.4089 194.074C73.4188 196.068 73.5582 198.061 73.8264 200.037C74.2558 203.329 74.8522 205.345 74.7329 205.381Z" fill="#212121"/>
<path d="M74.7329 205.381C74.5303 204.932 74.3706 204.465 74.2558 203.985C74.0727 203.431 73.9253 202.865 73.8145 202.292C73.6714 201.636 73.4686 200.884 73.3612 200.037C73.0303 198.066 72.8429 196.072 72.8006 194.074C72.707 189.148 73.4739 184.243 75.0669 179.581C75.7232 177.68 76.5206 175.83 77.4525 174.047C77.8103 173.271 78.2278 172.615 78.5618 172.031C78.8469 171.527 79.1575 171.037 79.4922 170.564C79.7499 170.137 80.0496 169.738 80.3868 169.371C80.4941 169.443 79.3013 171.184 77.8461 174.25C76.9853 176.034 76.248 177.875 75.6395 179.76C74.9095 182.07 74.3474 184.43 73.9576 186.821C73.5967 189.222 73.4133 191.646 73.4089 194.074C73.4188 196.068 73.5582 198.061 73.8264 200.037C74.2558 203.329 74.8522 205.345 74.7329 205.381Z" fill="black" fill-opacity="0.2"/>
<path d="M389.258 257.766C389.478 258.209 389.643 258.678 389.747 259.161C389.925 259.713 390.072 260.275 390.188 260.843C390.331 261.511 390.534 262.262 390.642 263.109C390.973 265.081 391.161 267.074 391.202 269.073C391.293 273.999 390.527 278.903 388.936 283.565C388.282 285.464 387.485 287.31 386.55 289.088C386.181 289.863 385.775 290.519 385.429 291.116C385.15 291.624 384.839 292.114 384.499 292.583C384.25 293.012 383.954 293.412 383.616 293.776C383.509 293.716 384.702 291.963 386.157 288.909C387.003 287.119 387.74 285.278 388.363 283.398C389.095 281.085 389.657 278.721 390.045 276.325C390.406 273.929 390.589 271.509 390.594 269.085C390.577 267.09 390.438 265.099 390.176 263.121C389.747 259.865 389.151 257.837 389.258 257.766Z" fill="#212121"/>
<path d="M389.258 257.766C389.478 258.209 389.643 258.678 389.747 259.161C389.925 259.713 390.072 260.275 390.188 260.843C390.331 261.511 390.534 262.262 390.642 263.109C390.973 265.081 391.161 267.074 391.202 269.073C391.293 273.999 390.527 278.903 388.936 283.565C388.282 285.464 387.485 287.31 386.55 289.088C386.181 289.863 385.775 290.519 385.429 291.116C385.15 291.624 384.839 292.114 384.499 292.583C384.25 293.012 383.954 293.412 383.616 293.776C383.509 293.716 384.702 291.963 386.157 288.909C387.003 287.119 387.74 285.278 388.363 283.398C389.095 281.085 389.657 278.721 390.045 276.325C390.406 273.929 390.589 271.509 390.594 269.085C390.577 267.09 390.438 265.099 390.176 263.121C389.747 259.865 389.151 257.837 389.258 257.766Z" fill="black" fill-opacity="0.2"/>
<path d="M397.024 259.863C397.241 260.308 397.405 260.776 397.513 261.259C397.691 261.811 397.838 262.372 397.954 262.941C398.097 263.609 398.288 264.36 398.407 265.207C398.739 267.179 398.926 269.172 398.968 271.171C398.992 273.625 398.825 276.078 398.467 278.506C398.072 280.935 397.481 283.329 396.702 285.663C396.045 287.565 395.248 289.415 394.316 291.198C393.946 291.961 393.541 292.617 393.195 293.213C392.909 293.739 392.595 294.249 392.253 294.74C392.004 295.17 391.708 295.57 391.37 295.933C391.263 295.873 392.455 294.12 393.911 291.066C394.761 289.278 395.498 287.437 396.117 285.556C396.848 283.242 397.411 280.878 397.799 278.483C398.16 276.086 398.344 273.666 398.348 271.242C398.332 269.248 398.192 267.256 397.93 265.279C397.501 261.915 396.905 259.887 397.024 259.863Z" fill="#212121"/>
<path d="M397.024 259.863C397.241 260.308 397.405 260.776 397.513 261.259C397.691 261.811 397.838 262.372 397.954 262.941C398.097 263.609 398.288 264.36 398.407 265.207C398.739 267.179 398.926 269.172 398.968 271.171C398.992 273.625 398.825 276.078 398.467 278.506C398.072 280.935 397.481 283.329 396.702 285.663C396.045 287.565 395.248 289.415 394.316 291.198C393.946 291.961 393.541 292.617 393.195 293.213C392.909 293.739 392.595 294.249 392.253 294.74C392.004 295.17 391.708 295.57 391.37 295.933C391.263 295.873 392.455 294.12 393.911 291.066C394.761 289.278 395.498 287.437 396.117 285.556C396.848 283.242 397.411 280.878 397.799 278.483C398.16 276.086 398.344 273.666 398.348 271.242C398.332 269.248 398.192 267.256 397.93 265.279C397.501 261.915 396.905 259.887 397.024 259.863Z" fill="black" fill-opacity="0.2"/>
<path d="M178.824 226.983C178.22 227.104 177.774 227.17 177.485 227.179L183.085 245.646L172.178 249.145L162.211 216.173C162.146 216.089 162.09 215.931 162.043 215.698L158.585 204.275L169.492 200.776L173.146 212.813C173.379 213.492 173.645 213.971 173.942 214.249C174.231 214.482 174.594 214.602 175.031 214.611C174.546 213.402 174.196 212.263 173.981 211.194C173.392 208.265 173.548 205.428 174.447 202.683C175.393 199.929 176.93 197.588 179.058 195.661C181.186 193.733 183.668 192.484 186.505 191.914C188.318 191.549 190.555 191.608 193.216 192.089C195.867 192.523 197.937 192.954 199.426 193.38L196.717 205.535C195.368 205.322 193.973 205.119 192.531 204.925C191.08 204.685 189.912 204.532 189.029 204.468C188.778 204.422 188.419 204.445 187.955 204.539C186.932 204.745 186.151 205.313 185.612 206.243C185.111 207.118 184.954 208.021 185.141 208.951C185.337 209.927 185.784 210.708 186.482 211.293C187.227 211.869 188.018 212.073 188.855 211.905L202.246 209.212L204.77 221.767L178.824 226.983Z" fill="#A0C2F8"/>
<path d="M239.402 218.215C239.944 220.911 239.798 223.553 238.964 226.14C238.129 228.726 236.736 230.941 234.785 232.785C232.871 234.573 230.611 235.728 228.008 236.252C225.404 236.775 222.85 236.587 220.347 235.687C217.882 234.732 215.764 233.223 213.995 231.159C212.225 229.096 211.07 226.716 210.527 224.02C209.985 221.323 210.131 218.681 210.966 216.094C211.801 213.508 213.175 211.321 215.089 209.533C217.041 207.689 219.318 206.506 221.922 205.982C224.526 205.459 227.061 205.675 229.527 206.631C232.03 207.53 234.166 209.012 235.935 211.075C237.704 213.138 238.86 215.518 239.402 218.215ZM220.989 221.916C221.186 222.893 221.744 223.627 222.666 224.119C223.578 224.565 224.568 224.68 225.638 224.465C226.707 224.25 227.577 223.761 228.245 222.997C228.905 222.187 229.137 221.294 228.94 220.318C228.753 219.388 228.199 218.677 227.278 218.185C226.357 217.693 225.361 217.554 224.292 217.769C223.222 217.984 222.358 218.497 221.698 219.307C221.039 220.116 220.802 220.986 220.989 221.916Z" fill="#A0C2F8"/>
<path d="M260.378 210.587C259.774 210.709 259.327 210.774 259.039 210.784L264.638 229.25L253.731 232.749L243.764 199.777C243.699 199.693 243.643 199.535 243.596 199.303L240.139 187.88L251.046 184.381L254.699 196.418C254.933 197.096 255.198 197.575 255.496 197.854C255.785 198.086 256.148 198.207 256.585 198.216C256.1 197.007 255.75 195.868 255.535 194.798C254.946 191.869 255.101 189.032 256.001 186.287C256.947 183.533 258.484 181.192 260.612 179.265C262.74 177.338 265.222 176.089 268.058 175.518C269.872 175.154 272.109 175.212 274.769 175.693C277.421 176.128 279.491 176.558 280.979 176.984L278.271 189.139C276.922 188.927 275.527 188.723 274.085 188.529C272.634 188.289 271.466 188.137 270.582 188.073C270.331 188.026 269.973 188.05 269.508 188.143C268.485 188.349 267.704 188.917 267.166 189.848C266.664 190.723 266.507 191.625 266.694 192.555C266.891 193.531 267.338 194.312 268.036 194.898C268.781 195.474 269.571 195.677 270.408 195.509L283.8 192.817L286.324 205.371L260.378 210.587Z" fill="#A0C2F8"/>
<path d="M141.332 289.068C140.309 289.268 139.432 289.187 138.702 288.824C137.982 288.445 137.531 287.88 137.348 287.128C137.265 286.906 137.163 286.476 137.043 285.839L139.077 285.44C139.149 285.82 139.217 286.108 139.282 286.307C139.36 286.502 139.487 286.625 139.661 286.675C139.85 286.722 140.123 286.711 140.482 286.641L142.257 286.293C143.228 286.103 143.657 285.709 143.544 285.113C143.531 285.045 143.499 284.946 143.447 284.816L143.38 284.681L140.761 279.016L142.78 277.988L145.387 283.697C145.727 284.404 146.002 284.877 146.213 285.117C146.421 285.343 146.711 285.42 147.083 285.347L148.06 285.156L148.438 286.389L148.532 287.657L147.555 287.848C146.677 288.02 145.891 287.837 145.197 287.298C144.615 288.087 143.692 288.605 142.429 288.853L141.332 289.068Z" fill="#A0C2F8"/>
<path d="M158.778 285.649C157.808 285.839 156.92 285.626 156.115 285.011C155.63 285.879 154.843 286.42 153.753 286.634C152.782 286.824 151.921 286.606 151.169 285.98C150.645 286.856 149.877 287.393 148.867 287.591L148.328 287.697L147.857 285.195L148.395 285.09C148.98 284.975 149.352 284.79 149.511 284.534C149.667 284.264 149.709 283.94 149.637 283.56L149.162 281.039L151.196 280.64L151.671 283.162C151.894 283.976 152.43 284.299 153.281 284.132C153.866 284.018 154.231 283.834 154.377 283.58C154.533 283.311 154.575 282.986 154.503 282.607L154.028 280.085L156.082 279.682L156.557 282.204C156.635 282.54 156.808 282.802 157.077 282.988C157.347 283.174 157.708 283.223 158.16 283.134C158.691 283.03 159.062 282.873 159.27 282.664C159.476 282.44 159.554 282.193 159.503 281.922C159.49 281.854 159.458 281.755 159.405 281.625L158.276 279.253L160.139 278.276L161.269 280.648L161.339 280.803C161.567 281.279 161.909 281.633 162.367 281.867C162.838 282.098 163.326 282.164 163.831 282.065L164.208 283.298L164.302 284.566C163.186 284.785 162.173 284.569 161.264 283.918C161.03 284.357 160.701 284.731 160.276 285.039C159.849 285.334 159.35 285.537 158.778 285.649ZM151.202 276.063L153.496 275.614L153.96 277.969L151.647 278.422L151.202 276.063ZM152.752 272.765L154.826 272.359L155.194 274.311L153.12 274.717L152.752 272.765ZM155.131 275.293L157.424 274.844L157.869 277.203L155.555 277.656L155.131 275.293Z" fill="#A0C2F8"/>
<path d="M163.632 282.104L165.207 281.795C165.806 281.678 166.24 281.495 166.51 281.245C166.793 280.992 166.89 280.629 166.801 280.155C166.76 279.938 166.669 279.674 166.528 279.365L165.159 276.491L167.154 275.446L168.523 278.32C168.75 278.795 168.91 279.277 169.002 279.765C169.219 280.918 169.013 281.907 168.383 282.733C167.763 283.544 166.862 284.065 165.679 284.297L164.103 284.605L163.632 282.104ZM163.237 271.891L165.65 271.418L166.114 273.879L163.701 274.352L163.237 271.891Z" fill="#A0C2F8"/>
<path d="M184.775 280.554C183.272 280.849 182.14 281.057 181.377 281.178C180.614 281.299 180.019 281.36 179.591 281.359C179.164 281.359 178.742 281.315 178.326 281.228C177.605 281.06 177.011 280.726 176.545 280.227C176.089 279.712 175.79 279.075 175.647 278.316C175.573 277.922 175.551 277.442 175.582 276.873L175.768 273.8L178.001 274.016L177.794 277.199C177.784 277.51 177.793 277.74 177.821 277.89C177.867 278.134 177.965 278.325 178.115 278.464C178.265 278.604 178.485 278.708 178.774 278.778C179.092 278.856 179.589 278.857 180.263 278.781C180.936 278.692 182.316 278.443 184.403 278.033L189.11 277.111C189.655 277.004 190.024 276.841 190.216 276.62C190.409 276.4 190.458 276.109 190.362 275.748L190.351 275.687L189.66 273.229L191.812 272.575L192.502 275.033L192.514 275.094C192.664 275.599 192.849 275.921 193.068 276.061C193.301 276.198 193.683 276.215 194.215 276.111L194.434 276.068L194.812 277.301L194.906 278.569L194.686 278.612C193.623 278.82 192.73 278.693 192.009 278.23C191.441 278.946 190.631 279.407 189.581 279.612L184.775 280.554ZM180.122 271.555L182.256 271.137L182.669 273.333L180.536 273.752L180.122 271.555ZM184.03 270.789L186.164 270.371L186.578 272.567L184.444 272.986L184.03 270.789Z" fill="#A0C2F8"/>
<path d="M194.208 276.112L198.097 275.35C198.948 275.183 199.554 275.036 199.916 274.909C200.276 274.768 200.492 274.599 200.565 274.402C200.652 274.203 200.646 273.915 200.548 273.541C199.696 273.778 198.971 273.955 198.373 274.073C197.323 274.279 196.426 274.131 195.684 273.63C194.942 273.129 194.468 272.336 194.264 271.251C194.113 270.451 194.115 269.692 194.269 268.973C194.423 268.254 194.735 267.644 195.206 267.144C195.691 266.642 196.325 266.314 197.109 266.16C198.16 265.954 199.105 266.176 199.944 266.827C200.784 267.478 201.378 268.437 201.727 269.704L202.587 272.952C202.629 273.098 202.675 273.307 202.726 273.578C202.874 274.364 202.848 275.03 202.648 275.576C202.444 276.107 202.014 276.564 201.355 276.947C200.694 277.315 199.752 277.619 198.528 277.859L194.679 278.613L194.208 276.112ZM196.196 270.64C196.28 271.088 196.472 271.409 196.77 271.603C197.069 271.798 197.458 271.848 197.936 271.754C198.654 271.614 199.311 271.443 199.908 271.242L199.651 270.322C199.439 269.632 199.136 269.122 198.743 268.792C198.363 268.459 197.934 268.339 197.455 268.433C196.95 268.532 196.585 268.793 196.362 269.216C196.152 269.637 196.096 270.112 196.196 270.64ZM195.001 261.997L197.414 261.524L197.878 263.985L195.465 264.458L195.001 261.997Z" fill="#A0C2F8"/>
<path d="M209.845 275.641C208.914 275.824 208.149 275.826 207.551 275.648C206.965 275.468 206.486 275.083 206.113 274.496C205.741 273.908 205.424 273.07 205.164 271.983L203.042 262.699L205.213 262.147L207.358 271.553C207.499 272.158 207.628 272.582 207.743 272.827C207.869 273.055 208.045 273.189 208.273 273.229C208.502 273.269 208.868 273.239 209.373 273.14L209.573 273.101L209.95 274.334L210.044 275.602L209.845 275.641Z" fill="#A0C2F8"/>
<path d="M209.379 273.139L212.371 272.553C212.969 272.435 213.403 272.252 213.673 272.002C213.956 271.75 214.053 271.386 213.964 270.912C213.918 270.668 213.827 270.405 213.691 270.122L212.342 267.244L214.317 266.204L215.729 269.195C215.954 269.657 216.109 270.112 216.193 270.559C216.336 271.319 216.28 272.011 216.026 272.638C215.785 273.261 215.381 273.783 214.812 274.204C214.257 274.622 213.6 274.905 212.842 275.054L209.851 275.64L209.379 273.139ZM209.186 277.71L211.34 277.288L211.754 279.484L209.6 279.907L209.186 277.71ZM213.095 276.944L215.229 276.526L215.643 278.722L213.509 279.141L213.095 276.944Z" fill="#A0C2F8"/>
<path d="M229.311 271.826C229.138 271.86 228.916 271.89 228.645 271.915C228.986 273.282 228.859 274.403 228.266 275.279C227.675 276.168 226.643 276.981 225.169 277.72L224.13 278.24L223.096 275.933L224.135 275.413C224.777 275.091 225.274 274.804 225.627 274.552C225.982 274.313 226.239 274.031 226.398 273.705C226.559 273.392 226.598 273.012 226.514 272.564C226.496 272.47 226.453 272.316 226.386 272.105L224.488 266.425L226.577 265.657L226.81 266.349L227.494 268.218C227.689 268.742 227.876 269.078 228.056 269.226C228.233 269.36 228.494 269.393 228.84 269.325L228.959 269.302L229.337 270.535L229.431 271.803L229.311 271.826Z" fill="#A0C2F8"/>
<path d="M242.449 269.252C241.917 269.356 241.416 269.363 240.944 269.273C240.469 269.169 240.049 269.026 239.684 268.845C239.068 269.598 238.308 270.063 237.404 270.241L229.287 271.831L228.816 269.33L230.67 268.966L231.115 268.036L228.746 257.661L230.897 257.113L232.688 264.86L232.749 264.742C233.172 263.914 233.616 263.272 234.081 262.815C234.557 262.343 235.141 262.038 235.832 261.903C236.564 261.76 237.264 261.819 237.934 262.081C238.604 262.344 239.174 262.773 239.645 263.37C240.116 263.966 240.427 264.665 240.577 265.464C240.652 265.858 240.663 266.249 240.613 266.638C241.018 266.812 241.473 266.849 241.978 266.75L242.257 266.696L242.634 267.929L242.728 269.197L242.449 269.252ZM236.992 267.728C237.471 267.634 237.84 267.4 238.101 267.025C238.358 266.637 238.445 266.22 238.361 265.772C238.271 265.298 238.036 264.929 237.656 264.666C237.286 264.387 236.856 264.296 236.364 264.392C235.978 264.468 235.638 264.675 235.343 265.014C235.062 265.35 234.695 265.928 234.243 266.748L233.243 268.462L236.992 267.728ZM233.655 257.374L236.068 256.901L236.532 259.362L234.119 259.835L233.655 257.374Z" fill="#A0C2F8"/>
<path d="M242.059 266.735L243.634 266.426C244.233 266.309 244.667 266.125 244.937 265.875C245.22 265.623 245.317 265.26 245.228 264.785C245.187 264.568 245.096 264.305 244.955 263.995L243.586 261.121L245.581 260.077L246.95 262.95C247.177 263.426 247.337 263.908 247.429 264.396C247.646 265.548 247.44 266.538 246.81 267.364C246.19 268.174 245.289 268.695 244.106 268.927L242.53 269.236L242.059 266.735ZM241.664 256.522L244.077 256.049L244.541 258.509L242.128 258.982L241.664 256.522Z" fill="#A0C2F8"/>
<path d="M258.515 266.103C257.492 266.304 256.615 266.223 255.884 265.86C255.165 265.481 254.714 264.915 254.531 264.164C254.448 263.941 254.346 263.511 254.226 262.874L256.26 262.476C256.331 262.855 256.4 263.144 256.465 263.342C256.543 263.538 256.669 263.66 256.844 263.711C257.032 263.758 257.306 263.747 257.665 263.676L259.639 263.289C260.597 263.102 261.02 262.716 260.91 262.134C260.88 261.971 260.824 261.82 260.742 261.681C260.386 261.034 259.821 260.266 259.047 259.378C258.286 258.487 257.473 257.613 256.609 256.756L258.108 254.944C259.115 255.899 260.054 256.896 260.925 257.934C261.797 258.973 262.411 259.892 262.769 260.694C262.926 261.015 263.04 261.365 263.112 261.744C263.296 262.72 263.107 263.587 262.547 264.343C261.986 265.1 261.075 265.602 259.812 265.849L258.515 266.103Z" fill="#A0C2F8"/>
<path d="M263.643 267.987L264.682 267.467C265.325 267.145 265.822 266.857 266.174 266.606C266.529 266.367 266.786 266.085 266.945 265.759C267.107 265.446 267.146 265.066 267.061 264.618C267.043 264.523 267.001 264.37 266.933 264.158L265.036 258.478L267.124 257.711L268.511 261.888L269.033 263.452C269.137 263.783 269.217 264.097 269.273 264.396C269.506 265.629 269.32 266.657 268.717 267.478C268.113 268.299 267.113 269.064 265.717 269.774L264.677 270.294L263.643 267.987Z" fill="#A0C2F8"/>
<path d="M272.786 266.195C274.366 265.506 275.457 265.004 276.059 264.69C276.662 264.375 277.062 264.05 277.261 263.716C277.463 263.395 277.491 262.961 277.346 262.413L275.053 262.862C273.936 263.081 272.971 262.898 272.158 262.312C271.357 261.724 270.844 260.826 270.616 259.62C270.473 258.861 270.499 258.118 270.692 257.391C270.897 256.648 271.247 256.017 271.742 255.498C272.25 254.977 272.87 254.645 273.601 254.501C274.665 254.293 275.642 254.537 276.531 255.234C277.421 255.932 278.065 256.937 278.464 258.251L278.849 259.525L280.026 259.294L280.403 260.528L280.497 261.795L279.56 261.979C279.807 263.069 279.77 263.969 279.449 264.679C279.127 265.389 278.523 266.02 277.634 266.574C276.749 267.141 275.432 267.8 273.685 268.55L272.786 266.195ZM272.83 259.186C272.924 259.688 273.108 260.038 273.38 260.238C273.649 260.424 274.05 260.465 274.582 260.361L276.616 259.962L276.321 258.945C276.114 258.212 275.814 257.681 275.42 257.35C275.027 257.019 274.585 256.902 274.093 256.999C273.587 257.098 273.223 257.359 273 257.782C272.787 258.189 272.73 258.657 272.83 259.186Z" fill="#A0C2F8"/>
<path d="M279.821 259.334L280.041 259.291C280.413 259.218 280.73 259.072 280.992 258.852C281.254 258.632 281.431 258.365 281.524 258.052L282.476 254.765C282.65 254.155 282.967 253.643 283.427 253.229C283.887 252.816 284.416 252.551 285.014 252.433C285.546 252.329 286.09 252.363 286.646 252.535C287.319 252.741 287.854 253.093 288.252 253.591C288.66 254.074 288.93 254.667 289.063 255.372C289.242 256.321 289.179 257.416 288.875 258.656C288.752 259.173 288.511 259.613 288.153 259.979C287.792 260.331 287.378 260.552 286.913 260.644C286.514 260.722 286.117 260.701 285.723 260.582L283.159 259.819C282.565 260.905 281.682 261.563 280.512 261.793L280.293 261.836L279.821 259.334ZM286.617 258.192C286.72 258.228 286.805 258.24 286.871 258.227C286.964 258.209 287.019 258.135 287.036 258.005L287.156 257.433C287.263 256.976 287.275 256.531 287.194 256.097C287.063 255.406 286.72 254.974 286.164 254.802C285.93 254.735 285.714 254.721 285.515 254.76C285.249 254.812 285.012 254.943 284.803 255.153C284.592 255.349 284.446 255.602 284.367 255.913L283.95 257.429L286.617 258.192Z" fill="#A0C2F8"/>
<path d="M300.108 256.392C300.031 256.421 299.912 256.451 299.753 256.483C299.048 256.621 298.323 256.503 297.577 256.129C296.844 255.752 296.289 255.221 295.912 254.536C295.718 254.167 295.585 253.792 295.514 253.412C295.363 252.612 295.45 251.829 295.774 251.063C296.096 250.283 296.599 249.699 297.284 249.312L299.824 247.865L299.679 247.092L301.852 246.666L303.006 252.787C303.106 253.316 303.391 253.731 303.861 254.033C304.331 254.334 304.852 254.429 305.424 254.317L305.803 254.243L306.18 255.476L306.274 256.744L305.896 256.818C305.204 256.954 304.522 256.919 303.849 256.713C303.187 256.491 302.609 256.134 302.117 255.64L300.108 256.392ZM297.797 253.239C297.936 253.535 298.164 253.758 298.481 253.906C298.812 254.052 299.132 254.067 299.441 253.95L300.87 253.417L300.288 250.326L298.408 251.432C298.122 251.601 297.915 251.817 297.786 252.081C297.67 252.343 297.637 252.61 297.688 252.881C297.719 253.043 297.755 253.163 297.797 253.239Z" fill="#A0C2F8"/>
<path d="M305.607 254.281L305.966 254.211C307.641 253.882 309.398 253.257 311.237 252.334L315.166 250.362L311.247 249.317C310.882 249.206 310.519 249.185 310.16 249.256C309.801 249.326 309.48 249.487 309.197 249.74C308.927 249.989 308.725 250.31 308.592 250.702L308.356 251.423L306.235 250.594L306.48 249.808C306.76 248.952 307.175 248.266 307.726 247.751C308.277 247.235 308.918 246.905 309.649 246.762C310.354 246.624 311.109 246.68 311.914 246.93L317.548 248.736L317.742 251.629L317.554 251.729C317.806 251.82 318.064 251.84 318.33 251.788L319.606 251.537L319.984 252.771L320.078 254.039L318.802 254.289C318.15 254.417 317.512 254.359 316.887 254.116C316.276 253.87 315.761 253.479 315.343 252.942L312.303 254.592C310.493 255.594 308.538 256.3 306.437 256.712L306.078 256.782L305.607 254.281Z" fill="#A0C2F8"/>
<path d="M319.415 251.575L320.651 251.333C320.97 251.27 321.325 251.18 321.717 251.061C320.998 250.541 320.613 249.998 320.562 249.431L320.455 248.208C320.383 247.533 320.47 246.898 320.716 246.301C320.975 245.702 321.35 245.2 321.838 244.795C322.341 244.387 322.911 244.121 323.549 243.996C324.294 243.85 324.99 243.925 325.638 244.219C326.287 244.514 326.826 244.963 327.257 245.568C327.686 246.159 327.948 246.817 328.043 247.543L328.156 248.47C328.224 248.907 328.081 249.392 327.727 249.925C327.876 249.91 328.11 249.871 328.429 249.809L329.845 249.531L330.222 250.765L330.316 252.032L328.9 252.31C327.69 252.547 326.393 252.541 325.009 252.292C323.694 253.07 322.399 253.584 321.123 253.834L319.886 254.076L319.415 251.575ZM322.771 249.083C322.897 249.241 323.106 249.397 323.396 249.551C323.685 249.691 324.037 249.805 324.453 249.892C325.341 249.409 325.827 248.99 325.912 248.636L325.882 247.925C325.84 247.483 325.638 247.108 325.277 246.799C324.915 246.491 324.489 246.384 323.997 246.481C323.584 246.562 323.251 246.768 322.996 247.099C322.739 247.416 322.629 247.782 322.666 248.197L322.771 249.083ZM321.629 240.281L324.042 239.809L324.506 242.269L322.093 242.742L321.629 240.281Z" fill="#A0C2F8"/>
<path d="M334.837 251.146C334.037 251.289 333.317 251.128 332.678 250.663C332.091 251.354 331.269 251.818 330.21 252.053L330.111 252.073L329.639 249.571L329.739 249.552C330.284 249.445 330.678 249.269 330.922 249.025C331.176 248.764 331.284 248.385 331.245 247.886L331.241 247.866L330.985 245.301L333.221 245.095L333.469 247.619L333.477 247.66C333.524 248.058 333.624 248.333 333.777 248.486C333.93 248.639 334.146 248.688 334.425 248.633L335.377 246.549C335.906 245.405 336.346 244.525 336.699 243.907C337.048 243.276 337.448 242.762 337.897 242.365C338.359 241.965 338.909 241.703 339.548 241.578C340.292 241.432 340.999 241.49 341.669 241.752C342.339 242.015 342.909 242.444 343.38 243.041C343.851 243.637 344.162 244.336 344.313 245.135C344.445 245.84 344.391 246.54 344.15 247.234C343.906 247.914 343.512 248.497 342.97 248.983C342.427 249.469 341.81 249.78 341.119 249.915L334.837 251.146ZM340.648 247.414C341.139 247.318 341.522 247.081 341.796 246.704C342.08 246.311 342.18 245.891 342.096 245.443C342.007 244.969 341.772 244.6 341.391 244.337C341.008 244.061 340.564 243.972 340.059 244.071C339.713 244.139 339.412 244.296 339.155 244.543C338.909 244.774 338.657 245.119 338.399 245.577C338.154 246.033 337.833 246.707 337.436 247.601L337.217 248.086L340.648 247.414Z" fill="#A0C2F8"/>
</svg>
