<?xml version="1.0" encoding="UTF-8"?>
<svg fill="none" viewBox="0 0 198 73" xmlns="http://www.w3.org/2000/svg">
<g filter="url(#a)">
<path d="m3.0051 3.4298 12.871-0.0214c3.5234-0.00586 5.8968 0.19956 8.1991 1.0332 4.6767 1.6672 8.2783 5.4298 8.288 11.292 0.0067 4.0478-1.8567 7.7497-7.4617 10.062 7.193 1.314 11.731 6.1219 11.741 12.194 0.0129 7.7465-6.5971 11.038-9.5436 12.02-2.8747 0.9819-5.1757 0.9857-10.425 0.9944l-13.59 0.0226-0.07914-47.596 2.2e-4 -1.1e-4zm11.659 6.0522-4.6739 0.00777 0.02382 14.307 4.6739-0.0077c1.7977-3e-3 4.8894-0.1477 6.6136-1.1277 1.365-0.7001 3.8066-2.5885 3.8004-6.3571-0.0044-2.6521-1.3026-4.9529-3.4614-5.9264-2.0149-0.90395-4.8911-0.89916-6.9766-0.8957l2e-4 1.1e-4zm1.9755 20.445-6.6154 0.011 0.025 15.005 6.9751-0.0116c2.0134-0.0033 5.465-0.0091 7.2615-0.7099 3.5931-1.332 5.0981-4.3355 5.094-6.8478-0.0034-2.0238-1.0151-5.0232-4.6848-6.4826-1.8708-0.7646-4.2442-0.97-8.0552-0.9637h-2e-4z" fill="#4285F2"/>
<path d="m43.442 6.5356c2.2141-0.00368 3.9143 1.6725 3.9175 3.6313 0.0033 1.9588-1.7651 3.7108-3.9053 3.7144-2.5093 0.0041-3.8415-2.1623-3.8441-3.7015-0.0029-1.749 1.6177-3.6405 3.8319-3.6442zm3.3432 13.217 0.0522 31.411-6.5684 0.0109-0.0523-31.411 6.5685-0.0109z" fill="#EB4137"/>
<path d="m62.18 12.428 0.0108 6.4983 10.036-0.0167 0.0093 5.5899-10.036 0.0167 0.0228 13.695c0.0772 3.9127 0.149 4.6112 1.1403 5.7276 1.2035 1.2557 2.7584 1.323 3.3945 1.3219 1.2721-0.0021 3.6747-0.1458 7.1343-2.2478l0.0096 5.7995c-2.9655 1.6121-6.2864 2.1067-8.1239 2.1098-2.1909 0.0036-6.0793-0.8983-8.2754-3.9691-1.5586-2.3032-1.5642-5.6572-1.569-8.522l-0.0231-13.905-5.5124 0.0091-1e-3 -0.6288 11.783-11.479v1e-4z" fill="#FBBD06"/>
<path d="m83.209 3.2965 0.0303 18.227c1.0724-0.7583 4.0751-2.8268 8.8709-2.8347 8.5887-0.0143 13.826 7.0614 13.841 15.728 0.018 10.867-7.7747 16.452-16.579 16.466-4.0798 0.0067-9.3781-0.9474-12.458-2.3866l-0.0751-45.189 6.3704-0.01059h-2e-4zm0.04 24.073 0.0278 16.714c2.5779 0.7523 5.6561 0.9535 6.7298 0.9517 3.7935-0.0063 9.5153-2.6294 9.5025-10.333-0.0115-6.9469-4.4551-10.378-9.036-10.371-3.579 6e-3 -5.9378 1.9358-7.2243 3.0383l2e-4 2e-4z" fill="#4285F2"/>
<path d="m136.54 45.361 7e-3 3.816c-2.931 1.9128-4.147 2.4802-6.151 2.4835-2.791 0.0047-4.296-0.9822-4.872-3.2424-2.787 2.1951-5.72 3.26-8.654 3.2649-4.724 0.0079-7.879-3.6613-7.886-7.7599-0.01-6.289 5.784-8.2065 10.934-10.052l5.65-1.988-3e-3 -1.6959c-6e-3 -3.9573-1.941-5.5793-5.806-5.5729-3.507 0.0059-7.082 1.6371-10.154 5.2459l-0.011-6.8544c2.5-2.9014 6.004-4.3205 10.656-4.3283 6.513-0.0108 11.671 3.2311 11.683 10.439l0.027 16.323c2e-3 1.2013 0.432 1.6246 1.22 1.6233 0.644-0.0011 1.931-0.6392 3.36-1.7016v1e-4zm-10.951-0.7591-0.015-9.2569c-5.436 1.8463-10.157 3.6913-10.15 7.4366 4e-3 2.6146 1.939 4.4486 4.587 4.4442 2.004-0.0033 3.863-0.9957 5.578-2.6239z" fill="#34A853"/>
<path d="m139.51 20.123 6.133-0.0102 0.012 7.231c1.993-3.1625 4.879-7.871 9.221-7.8783 0.895-0.0014 3.652 0.0642 7.241 3.5685l-3.23 5.4813c-0.759-0.771-3.519-3.0833-5.931-3.0793-2.274 0.0038-7.3 2.5396-7.288 9.7004l0.027 16.498-6.133 0.0102-0.052-31.521v-4e-4z" fill="#EB4237"/>
<path d="m192.03 19.404 8e-3 4.8368-6.538 0.0109c2.491 2.4493 3.347 4.2003 3.351 6.864 5e-3 2.5936-1.483 5.6103-2.973 7.0847-4.257 4.4934-12.931 2.2646-12.925 5.9797 3e-3 1.7524 3.345 2.7984 9.744 4.0493 6.825 1.3205 9.247 4.7513 9.254 8.7468 0.01 6.2387-5.598 10.033-15.051 10.049-8.599 0.0143-14.718-3.9711-14.727-9.5087-8e-3 -4.6264 2.475-7.3644 8.016-8.7055-2.205-1.3282-3.202-2.5883-3.204-3.9902-4e-3 -2.0328 1.983-3.7886 5.038-4.4947v-0.1402c-2.347-0.9774-4.126-2.3063-5.337-3.9867-1.14-1.6103-1.712-3.5721-1.715-5.8853-0.012-6.7292 5.312-10.874 13.912-10.888l13.148-0.0218-1e-3 1e-4zm-8.866 10.95c-5e-3 -3.0143-2.852-5.533-6.192-5.5274-3.483 0.0058-6.321 2.6042-6.316 5.6884 6e-3 3.4347 2.568 5.7437 6.406 5.7373 3.554-0.0059 6.108-2.4636 6.102-5.8983zm2.675 27.123c-7e-3 -3.9955-6.547-5.0362-10.456-5.0297-4.264 0.0071-7.246 1.9748-7.241 4.7787 5e-3 3.1544 3.135 4.8316 8.892 4.822 5.543-0.0092 8.81-1.697 8.805-4.571z" fill="#FBBD07"/>
</g>
<defs>
<filter id="a" x=".0048828" y=".25873" width="197.11" height="71.791" color-interpolation-filters="sRGB" filterUnits="userSpaceOnUse">
<feFlood flood-opacity="0" result="BackgroundImageFix"/>
<feColorMatrix in="SourceAlpha" result="hardAlpha" values="0 0 0 0 0 0 0 0 0 0 0 0 0 0 0 0 0 0 127 0"/>
<feOffset dx="1" dy="1"/>
<feGaussianBlur stdDeviation="2"/>
<feColorMatrix values="0 0 0 0 0 0 0 0 0 0 0 0 0 0 0 0 0 0 0.4 0"/>
<feBlend in2="BackgroundImageFix" result="effect1_dropShadow_243:11456"/>
<feBlend in="SourceGraphic" in2="effect1_dropShadow_243:11456" result="shape"/>
</filter>
</defs>
</svg>
