<?xml version="1.0" encoding="UTF-8"?>
<svg width="550px" height="215px" viewBox="0 0 550 215" version="1.1" xmlns="http://www.w3.org/2000/svg" xmlns:xlink="http://www.w3.org/1999/xlink">
    <title>Crypto</title>
    <defs>
        <filter x="-5.0%" y="-14.4%" width="110.0%" height="128.8%" filterUnits="objectBoundingBox" id="filter-1">
            <feOffset dx="3" dy="3" in="SourceAlpha" result="shadowOffsetOuter1"></feOffset>
            <feGaussianBlur stdDeviation="5" in="shadowOffsetOuter1" result="shadowBlurOuter1"></feGaussianBlur>
            <feColorMatrix values="0 0 0 0 0   0 0 0 0 0   0 0 0 0 0  0 0 0 0.5 0" type="matrix" in="shadowBlurOuter1" result="shadowMatrixOuter1"></feColorMatrix>
            <feMerge>
                <feMergeNode in="shadowMatrixOuter1"></feMergeNode>
                <feMergeNode in="SourceGraphic"></feMergeNode>
            </feMerge>
        </filter>
    </defs>
    <g id="Main-logo" stroke="none" stroke-width="1" fill="none" fill-rule="evenodd">
        <g id="Crypto" filter="url(#filter-1)" transform="translate(19.000000, 19.000000)" fill-rule="nonzero">
            <path d="M0,0 L34.8688675,0 C44.4137061,0 50.8422435,0.580081325 57.075429,2.90040662 C69.7371518,7.5410455 79.4767592,17.9823804 79.4767592,34.2248216 C79.4767592,45.4397428 74.4120701,55.6876079 59.217886,62.0684204 C78.697684,65.7422376 90.9698692,79.0839205 90.9698692,95.9065954 C90.9698692,117.369382 73.048805,126.457365 65.062117,129.164537 C57.2701978,131.871591 51.0370123,131.871591 36.8165557,131.871591 L0,131.871591 L0,0 L0,0 Z M31.5577975,16.8217958 L18.8960746,16.8217958 L18.8960746,56.4608426 L31.5577975,56.4608426 C36.4277178,56.4608426 44.8038269,56.0741256 49.4788617,53.3670833 C53.1799942,51.4334985 59.8027756,46.2126259 59.8027756,35.7713496 C59.8027756,28.4234809 56.2964703,22.0426684 50.4527059,19.3354971 C44.9984207,16.8217958 37.2066765,16.8217958 31.5572144,16.8217958 L31.5577975,16.8217958 Z M36.8173138,73.4763426 L18.8962496,73.4763426 L18.8962496,115.048623 L37.791741,115.048623 C43.2460262,115.048623 52.5965041,115.048623 57.4663078,113.115038 C67.2059152,109.441221 71.2966436,101.126472 71.2966436,94.1660115 C71.2966436,88.5586095 68.5694719,80.243919 58.6349208,76.1834552 C53.5702316,74.0565177 47.1418108,73.4763426 36.8178969,73.4763426 L36.8173138,73.4763426 Z" id="Shape" fill="#4285F2"></path>
            <path d="M109.531804,8.79141984 C115.529984,8.79141984 120.128045,13.443429 120.128045,18.8704896 C120.128045,24.2975503 115.329617,29.1435568 109.531804,29.1435568 C102.734139,29.1435568 99.1349981,23.1349144 99.1349981,18.8704896 C99.1349981,14.024659 103.533566,8.79141984 109.531804,8.79141984 Z M118.529074,45.4258524 L118.529074,132.455048 L100.735135,132.455048 L100.735135,45.4258524 L118.529074,45.4258524 Z" id="Shape" fill="#EB4137"></path>
            <path d="M160.265001,25.2017185 L160.265001,43.2063119 L187.450996,43.2063119 L187.450996,58.6938632 L160.265001,58.6938632 L160.265001,96.6376313 C160.456452,107.478624 160.647908,109.414495 163.328236,112.512005 C166.582916,115.996689 170.794763,116.190276 172.517942,116.190276 C175.964068,116.190276 182.473312,115.803091 191.854871,109.995256 L191.854871,126.063627 C183.813951,130.516247 174.815515,131.871415 169.83783,131.871415 C163.902629,131.871415 153.372867,129.354724 147.437666,120.836425 C143.225703,114.447993 143.225703,105.155462 143.225703,97.2179822 L143.225703,58.6933943 L128.292649,58.6933943 L128.292649,56.9510522 L160.265059,25.2017185 L160.265001,25.2017185 Z" id="Path" fill="#FBBD06"></path>
            <path d="M217.272785,0 L217.272785,50.4996738 C220.181314,48.4034477 228.325041,42.686446 241.316822,42.686446 C264.584698,42.686446 278.739843,62.314756 278.739843,86.3258819 C278.739843,116.435323 257.60451,131.871298 233.75466,131.871298 C222.702404,131.871298 208.353656,129.203395 200.015918,125.20154 L200.015918,0 L217.273369,0 L217.272785,0 Z M217.272785,66.6975718 L217.272785,113.004911 C224.252974,115.101137 232.590712,115.672813 235.499415,115.672813 C245.776095,115.672813 261.288207,108.431614 261.288207,87.0878049 C261.288207,67.8404564 249.266189,58.3123156 236.856382,58.3123156 C227.161094,58.3123156 220.762296,63.6481214 217.272202,66.6969858 L217.272785,66.6975718 Z" id="Shape" fill="#4285F2"></path>
            <path d="M361.548024,116.791082 L361.548024,127.363644 C353.598715,132.649807 350.302807,134.216262 344.874355,134.216262 C337.313359,134.216262 333.241874,131.475273 331.690722,125.210332 C324.129726,131.279342 316.180942,134.216262 308.231575,134.216262 C295.43573,134.216262 286.905555,124.035798 286.905555,112.680214 C286.905555,95.2556201 302.60952,89.9696323 316.56873,84.8788142 L331.884907,79.396895 L331.884907,74.6981156 C331.884907,63.7340428 326.650291,59.2310776 316.180942,59.2310776 C306.681005,59.2310776 296.987466,63.7341014 288.650894,73.7187514 L288.650894,54.7275263 C295.436313,46.7003738 304.93625,42.7846754 317.538492,42.7846754 C335.181399,42.7846754 349.140025,51.7906059 349.140025,71.7606091 L349.140025,116.986603 C349.140025,120.314918 350.303273,121.489627 352.435875,121.489627 C354.180747,121.489627 357.670492,119.727592 361.548024,116.790848 L361.548024,116.791082 Z M331.884324,114.637477 L331.884324,88.9899751 C317.149538,94.0803244 304.354276,99.1704393 304.354276,109.547245 C304.354276,116.791375 309.588892,121.881607 316.762333,121.881607 C322.190843,121.881607 327.231449,119.140618 331.884324,114.637477 Z" id="Shape" fill="#34A853"></path>
            <path d="M369.711462,46.8799532 L386.325709,46.8799532 L386.325709,66.9144269 C391.739291,58.1616893 399.579902,45.1292885 411.34009,45.1292885 C413.766887,45.1292885 421.233647,45.3238016 430.941181,55.0495267 L422.167254,70.2211729 C420.113843,68.0815172 412.646907,61.6624327 406.113405,61.6624327 C399.953112,61.6624327 386.325709,68.6650916 386.325709,88.5049818 L386.325709,134.21509 L369.711462,134.21509 L369.711462,46.8811254 L369.711462,46.8799532 Z" id="Path" fill="#EB4237"></path>
            <path d="M511.997667,45.1288548 L511.997667,58.5303428 L494.284784,58.5303428 C501.023552,65.3278686 503.333954,70.1830768 503.333954,77.5631807 C503.333954,84.7492872 499.290751,93.10055 495.247549,97.1785966 C483.695542,109.608492 460.206655,103.393544 460.206655,113.686539 C460.206655,118.541864 469.255824,121.455223 486.583835,124.950692 C505.067046,128.640744 511.613378,138.157163 511.613378,149.227319 C511.613378,166.512422 496.403333,177 470.796481,177 C447.50003,177 430.942348,165.929844 430.942348,150.587058 C430.942348,137.769168 437.681116,130.194481 452.698725,126.504429 C446.730285,122.814377 444.035011,119.318322 444.035011,115.434273 C444.035011,109.802079 449.425967,104.946695 457.704983,103.004377 L457.704983,102.615949 C451.351671,99.8969388 446.537849,96.2070041 443.265266,91.5457933 C440.184711,87.0788728 438.644463,81.6407936 438.644463,75.2318485 C438.644463,56.5875914 453.084181,45.1288548 476.381214,45.1288548 L512,45.1288548 L511.997667,45.1288548 Z M487.930889,75.4268657 C487.930889,67.0756029 480.229356,60.0840797 471.18077,60.0840797 C461.746728,60.0840797 454.045196,67.2701863 454.045196,75.8154464 C454.045196,85.3318653 460.9764,91.7408104 471.373206,91.7408104 C480.999685,91.7408104 487.930889,84.9432846 487.930889,75.4268657 Z M495.054529,150.587644 C495.054529,139.517488 477.341646,136.604012 466.752403,136.604012 C455.200396,136.604012 447.113991,142.042033 447.113991,149.810483 C447.113991,158.550326 455.585269,163.211537 471.18077,163.211537 C486.198379,163.211537 495.055112,158.550385 495.055112,150.587644 L495.054529,150.587644 Z" id="Shape" fill="#FBBD07"></path>
            <g id=".com" transform="translate(439.000000, 20.000000)" fill="#6E6E6E">
                <path d="M2.30506263,13.5 C2.95276618,13.5 3.50521921,13.7196653 3.96242171,14.1589958 C4.41962422,14.5983264 4.64822547,15.1380753 4.64822547,15.7782427 C4.64822547,16.4058577 4.42279923,16.9330544 3.97194676,17.3598326 C3.52109429,17.7866109 2.96546625,18 2.30506263,18 C1.65735908,18 1.11125609,17.7866109 0.666753653,17.3598326 C0.222251218,16.9330544 0,16.4058577 0,15.7782427 C0,15.1380753 0.222251218,14.5983264 0.666753653,14.1589958 C1.11125609,13.7196653 1.65735908,13.5 2.30506263,13.5 Z" id="Path"></path>
                <path d="M22.2124217,13.6506276 L22.2124217,17.039749 C20.4725122,17.6799163 18.7707029,18 17.1069937,18 C14.3637787,18 12.1761917,17.1966527 10.5442328,15.5899582 C8.91227383,13.9832636 8.09629436,11.8305439 8.09629436,9.13179916 C8.09629436,6.40794979 8.89004871,4.21129707 10.4775574,2.541841 C12.0650661,0.872384937 14.1542276,0.0376569038 16.7450418,0.0376569038 C17.6467467,0.0376569038 18.4563761,0.122384937 19.1739301,0.291841004 C19.891484,0.461297071 20.7773138,0.778242678 21.8314196,1.24267782 L21.8314196,4.89539749 C20.07881,3.79079498 18.4532011,3.23849372 16.9545929,3.23849372 C15.3924843,3.23849372 14.1097773,3.78138075 13.1064718,4.86715481 C12.1031663,5.95292887 11.6015136,7.33682008 11.6015136,9.01882845 C11.6015136,10.7887029 12.1444415,12.1945607 13.2302975,13.2364017 C14.3161534,14.2782427 15.7798365,14.7991632 17.6213466,14.7991632 C18.9548539,14.7991632 20.4852122,14.416318 22.2124217,13.6506276 Z" id="Path"></path>
                <path d="M34.5378392,0.338912134 C37.2048539,0.338912134 39.421016,1.18933054 41.1863257,2.89016736 C42.9516354,4.59100418 43.8342902,6.72803347 43.8342902,9.30125523 C43.8342902,11.7991632 42.9389353,13.873431 41.1482255,15.5240586 C39.3575157,17.1746862 37.1032533,18 34.3854384,18 C31.756524,18 29.559412,17.1621339 27.7941023,15.4864017 C26.0287926,13.8106695 25.1461378,11.7175732 25.1461378,9.20711297 C25.1461378,6.67154812 26.0383177,4.55962343 27.8226775,2.87133891 C29.6070372,1.18305439 31.8454245,0.338912134 34.5378392,0.338912134 Z M34.3473382,3.42677824 C32.6836291,3.42677824 31.3183716,3.9665272 30.2515658,5.0460251 C29.1847599,6.12552301 28.651357,7.5 28.651357,9.16945607 C28.651357,10.8263598 29.19746,12.1788703 30.289666,13.2269874 C31.381872,14.2751046 32.7852296,14.7991632 34.499739,14.7991632 C36.2015484,14.7991632 37.595381,14.2688285 38.681237,13.208159 C39.7670929,12.1474895 40.3100209,10.7887029 40.3100209,9.13179916 C40.3100209,7.4874477 39.7448678,6.12552301 38.6145616,5.0460251 C37.4842554,3.9665272 36.0618476,3.42677824 34.3473382,3.42677824 Z" id="Shape"></path>
                <path d="M62.04619,5.12133891 L62.04619,17.6987448 L58.5600209,17.6987448 L58.5600209,8.05857741 C58.5600209,6.13807531 58.2996695,4.79811715 57.7789666,4.03870293 C57.2582637,3.2792887 56.3502088,2.89958159 55.0548017,2.89958159 C54.3308977,2.89958159 53.6673191,3.06276151 53.0640658,3.38912134 C52.4608125,3.71548117 51.7718337,4.29288703 50.9971294,5.12133891 L50.9971294,17.6987448 L47.5300104,17.6987448 L47.5300104,0.376569038 L50.9971294,0.376569038 L50.9971294,2.65481172 C52.7624391,0.910041841 54.4896486,0.0376569038 56.1787578,0.0376569038 C58.40127,0.0376569038 60.1221294,1.07949791 61.3413361,3.16317992 C63.1955463,1.05439331 65.1323069,0 67.151618,0 C68.8534273,0 70.25361,0.615062762 71.352166,1.84518828 C72.450722,3.07531381 73,4.95188285 73,7.4748954 L73,17.6987448 L69.532881,17.6987448 L69.532881,7.43723849 C69.532881,5.99372385 69.2344294,4.88912134 68.6375261,4.12343096 C68.0406228,3.35774059 67.1833681,2.9748954 66.065762,2.9748954 C64.6306541,2.9748954 63.2907968,3.69037657 62.04619,5.12133891 Z" id="Path"></path>
            </g>
        </g>
    </g>
</svg>
