<svg width="500" height="500" viewBox="0 0 500 500" fill="none" xmlns="http://www.w3.org/2000/svg">
<path d="M410.236 99.6641H74.0625V407.064H410.236V99.6641Z" fill="white"/>
<path d="M410.236 99.6641H74.0625V120.113H410.236V99.6641Z" fill="#E0E0E0"/>
<path d="M364.981 387.326C364.981 387.435 308.726 387.514 239.31 387.514C169.893 387.514 113.639 387.435 113.639 387.326C113.639 387.217 169.885 387.137 239.31 387.137C308.734 387.137 364.981 387.224 364.981 387.326Z" fill="#263238"/>
<path d="M218.517 325.66H213.541V351.869H218.517V325.66Z" fill="#E0E0E0"/>
<path d="M218.524 351.862C218.512 351.683 218.512 351.503 218.524 351.324C218.524 350.947 218.524 350.445 218.524 349.813C218.524 348.477 218.524 346.603 218.466 344.271C218.466 339.564 218.415 333.048 218.386 325.66L218.575 325.842H213.533C213.904 325.464 213.635 325.74 213.722 325.66V333.651C213.722 336.193 213.722 338.612 213.722 340.857C213.722 345.324 213.679 349.109 213.664 351.884L213.555 351.782L217.187 351.84H218.161H218.517C218.413 351.851 218.308 351.851 218.204 351.84H217.245L213.533 351.891H213.439V351.782C213.439 349.007 213.403 345.244 213.381 340.755C213.381 338.51 213.381 336.091 213.381 333.549V329.641C213.381 328.98 213.381 328.304 213.381 327.629V325.595L213.577 325.398H218.735V325.587C218.735 333.026 218.676 339.585 218.655 344.329C218.655 346.639 218.611 348.506 218.604 349.835C218.604 350.445 218.604 350.932 218.604 351.288C218.591 351.481 218.565 351.673 218.524 351.862V351.862Z" fill="#263238"/>
<path d="M227.553 321.687H204.308C202.652 321.687 201.064 321.03 199.893 319.86C198.721 318.69 198.062 317.103 198.061 315.447H233.8C233.799 317.103 233.14 318.69 231.968 319.86C230.797 321.03 229.209 321.687 227.553 321.687Z" fill="#263238"/>
<path d="M248.075 316.668H207.512V307.994H248.075C249.231 307.994 250.34 308.453 251.157 309.271C251.974 310.088 252.434 311.197 252.434 312.353C252.422 313.501 251.958 314.599 251.142 315.407C250.326 316.214 249.224 316.668 248.075 316.668V316.668Z" fill="#4285F2"/>
<path d="M175.985 245.681C174.87 245.832 173.858 246.412 173.165 247.298C172.471 248.184 172.152 249.306 172.273 250.425L178.128 303.642C178.532 307.225 180.241 310.533 182.929 312.935C185.617 315.338 189.095 316.666 192.7 316.667H208.173C209.329 316.667 210.438 316.208 211.255 315.39C212.073 314.573 212.532 313.464 212.532 312.308C212.532 311.152 212.073 310.044 211.255 309.226C210.438 308.409 209.329 307.95 208.173 307.95H195.032C193.227 307.95 191.482 307.295 190.124 306.105C188.765 304.916 187.884 303.274 187.645 301.485L180.845 249.393C180.771 248.83 180.586 248.288 180.302 247.797C180.018 247.305 179.64 246.875 179.189 246.53C178.738 246.186 178.224 245.933 177.675 245.787C177.127 245.642 176.555 245.605 175.993 245.681H175.985Z" fill="#4285F2"/>
<path d="M225.28 308.416L181.179 309.033L176.871 245.639L213.781 245.406C215.558 245.416 217.258 246.13 218.508 247.393C219.759 248.656 220.457 250.363 220.449 252.14L225.28 308.416Z" fill="#4285F2"/>
<g opacity="0.3">
<path opacity="0.3" d="M175.985 245.681C174.87 245.832 173.858 246.412 173.165 247.298C172.471 248.184 172.152 249.306 172.273 250.425L178.128 303.642C178.532 307.225 180.241 310.533 182.929 312.936C185.617 315.338 189.095 316.666 192.7 316.667H208.173C209.329 316.667 210.438 316.208 211.255 315.39C212.073 314.573 212.532 313.464 212.532 312.308C212.532 311.152 212.073 310.044 211.255 309.226C210.438 308.409 209.329 307.95 208.173 307.95H194.088C190.354 307.95 187.732 305.306 187.238 301.601L180.845 249.393C180.771 248.83 180.586 248.288 180.302 247.797C180.018 247.305 179.64 246.875 179.189 246.53C178.738 246.186 178.224 245.933 177.675 245.787C177.127 245.642 176.555 245.605 175.993 245.681H175.985Z" fill="black"/>
</g>
<path d="M220.849 321.688H211.209V326.7H220.849V321.688Z" fill="#263238"/>
<path d="M217.834 350.395H214.093C212.5 350.395 211.209 351.686 211.209 353.278V370.473C211.209 372.066 212.5 373.357 214.093 373.357H217.834C219.427 373.357 220.718 372.066 220.718 370.473V353.278C220.718 351.686 219.427 350.395 217.834 350.395Z" fill="#E0E0E0"/>
<path d="M217.843 373.357C217.843 373.357 218.053 373.357 218.438 373.255C218.915 373.135 219.354 372.897 219.714 372.561C220.073 372.226 220.342 371.805 220.494 371.337C220.615 370.863 220.657 370.372 220.618 369.884C220.618 368.802 220.618 367.574 220.618 366.252C220.618 363.521 220.618 360.296 220.574 356.714C220.574 355.821 220.574 354.898 220.574 353.961C220.607 353.503 220.573 353.043 220.472 352.595C220.355 352.154 220.124 351.751 219.804 351.426C219.483 351.087 219.08 350.837 218.635 350.7C218.159 350.59 217.669 350.554 217.182 350.591H214.116C213.636 350.591 213.164 350.72 212.751 350.964C212.337 351.208 211.996 351.558 211.763 351.978C211.538 352.39 211.42 352.852 211.421 353.322V354.775C211.421 356.722 211.421 358.61 211.421 360.404C211.421 363.986 211.421 367.211 211.385 369.935C211.318 370.56 211.426 371.191 211.697 371.758C211.947 372.214 212.318 372.591 212.769 372.848C213.221 373.105 213.735 373.23 214.254 373.211H215.518L217.269 373.248C217.473 373.239 217.677 373.252 217.879 373.284C217.676 373.299 217.472 373.299 217.269 373.284L215.518 373.32H214.254C213.694 373.347 213.138 373.217 212.649 372.943C212.159 372.67 211.757 372.264 211.487 371.773C211.332 371.484 211.224 371.173 211.167 370.85C211.121 370.513 211.104 370.173 211.116 369.833C211.116 367.109 211.116 363.884 211.073 360.303C211.073 358.509 211.073 356.62 211.073 354.673V353.22C211.067 352.814 211.142 352.411 211.293 352.034C211.445 351.657 211.67 351.314 211.955 351.024C212.24 350.735 212.58 350.505 212.955 350.349C213.33 350.192 213.732 350.111 214.138 350.111H217.167C217.686 350.073 218.208 350.115 218.715 350.235C219.218 350.389 219.674 350.666 220.044 351.041C220.391 351.415 220.641 351.869 220.77 352.363C220.872 352.84 220.909 353.329 220.879 353.816C220.879 354.753 220.879 355.675 220.879 356.569C220.879 360.15 220.879 363.376 220.843 366.107C220.843 367.458 220.843 368.686 220.843 369.739C220.873 370.248 220.819 370.759 220.683 371.25C220.539 371.662 220.309 372.038 220.008 372.354C219.592 372.784 219.055 373.076 218.468 373.189C218.269 373.278 218.059 373.334 217.843 373.357V373.357Z" fill="#263238"/>
<path d="M243.717 371.933H187.128C186.372 371.906 185.618 372.038 184.916 372.321C184.214 372.604 183.579 373.031 183.053 373.575C180.954 375.754 181.085 379.386 181.092 379.517L183.671 379.408C183.671 378.682 183.809 376.502 184.92 375.355C185.205 375.071 185.546 374.85 185.921 374.705C186.296 374.56 186.698 374.494 187.099 374.512H201.947V381.086H204.526V374.512H243.688C244.485 374.514 245.248 374.831 245.812 375.395C246.376 375.959 246.693 376.722 246.695 377.519V379.459H249.274V377.548C249.28 376.068 248.698 374.645 247.656 373.592C246.614 372.539 245.198 371.943 243.717 371.933V371.933Z" fill="#E0E0E0"/>
<path d="M243.717 371.933C243.958 371.916 244.201 371.916 244.443 371.933C245.134 372.008 245.804 372.213 246.419 372.536C247.42 373.082 248.239 373.91 248.772 374.918C249.109 375.562 249.316 376.265 249.383 376.989C249.434 377.766 249.383 378.565 249.419 379.43V379.524H246.651V379.422C246.579 378.166 246.942 376.626 245.889 375.55C245.393 375.008 244.711 374.673 243.978 374.613C243.252 374.613 242.409 374.613 241.595 374.613H230.837H204.584L204.759 374.432C204.759 376.502 204.759 378.739 204.759 381.006V381.195H201.809V374.432L201.998 374.621H186.881C186.364 374.637 185.861 374.795 185.429 375.078C185.011 375.383 184.681 375.791 184.47 376.262C184.042 377.221 183.831 378.263 183.852 379.313V379.502H183.678L181.099 379.611H180.91V379.422C180.886 378.203 181.076 376.988 181.47 375.834C181.839 374.677 182.527 373.648 183.453 372.863C184.397 372.123 185.552 371.703 186.751 371.664C187.913 371.664 189.032 371.664 190.158 371.664H202.986L224.394 371.708L238.588 371.759L242.402 371.795H243.39H243.724C243.724 371.795 243.615 371.795 243.39 371.795H242.402H238.588L224.394 371.853L202.986 371.897H190.158C189.039 371.897 187.898 371.897 186.772 371.897C185.648 371.931 184.565 372.328 183.685 373.03C182.809 373.77 182.159 374.741 181.811 375.834C181.437 376.945 181.26 378.112 181.288 379.284L181.092 379.11L183.663 379.001L183.489 379.19C183.463 378.077 183.686 376.972 184.143 375.957C184.382 375.428 184.755 374.97 185.225 374.628C185.713 374.305 186.282 374.124 186.867 374.105H202.173V374.294C202.173 376.553 202.173 378.79 202.173 380.868L201.991 380.686H204.562L204.381 380.868C204.381 378.601 204.381 376.364 204.381 374.294V374.112H204.562H230.815H241.574C242.395 374.112 243.179 374.112 243.978 374.112C244.747 374.18 245.464 374.528 245.992 375.091C246.52 375.654 246.822 376.392 246.84 377.163C246.84 377.853 246.84 378.522 246.84 379.168L246.738 379.066H249.317L249.223 379.154C249.223 378.296 249.259 377.475 249.223 376.727C249.167 376.023 248.972 375.336 248.649 374.708C248.143 373.715 247.354 372.893 246.383 372.347C245.781 372.014 245.124 371.794 244.443 371.7C243.956 371.947 243.717 371.947 243.717 371.933Z" fill="#263238"/>
<path d="M208.232 384.151C208.233 385.15 207.939 386.126 207.385 386.958C206.831 387.789 206.043 388.437 205.12 388.82C204.198 389.204 203.183 389.305 202.203 389.111C201.223 388.917 200.323 388.436 199.616 387.731C198.909 387.025 198.428 386.125 198.232 385.146C198.037 384.166 198.136 383.151 198.518 382.228C198.9 381.305 199.547 380.516 200.378 379.961C201.208 379.406 202.185 379.109 203.183 379.109C204.521 379.109 205.804 379.64 206.751 380.586C207.697 381.531 208.23 382.813 208.232 384.151V384.151Z" fill="#263238"/>
<path d="M187.427 382.924C187.427 383.922 187.131 384.898 186.576 385.728C186.022 386.559 185.233 387.206 184.311 387.588C183.388 387.97 182.373 388.07 181.394 387.875C180.414 387.68 179.515 387.2 178.809 386.494C178.103 385.787 177.622 384.888 177.427 383.909C177.232 382.929 177.332 381.914 177.714 380.992C178.096 380.069 178.744 379.281 179.574 378.726C180.404 378.171 181.38 377.875 182.379 377.875C183.718 377.875 185.002 378.407 185.949 379.354C186.895 380.3 187.427 381.585 187.427 382.924V382.924Z" fill="#263238"/>
<path d="M252.478 383.106C252.48 384.105 252.185 385.081 251.631 385.913C251.077 386.744 250.289 387.392 249.367 387.775C248.444 388.159 247.429 388.26 246.449 388.066C245.469 387.872 244.569 387.391 243.862 386.686C243.155 385.98 242.674 385.08 242.478 384.101C242.283 383.121 242.383 382.106 242.764 381.183C243.146 380.26 243.793 379.471 244.624 378.916C245.454 378.361 246.431 378.064 247.429 378.064C248.767 378.064 250.05 378.595 250.997 379.541C251.943 380.486 252.476 381.768 252.478 383.106V383.106Z" fill="#263238"/>
<path d="M249.165 307.994C249.165 308.095 236.729 308.226 221.394 308.284C206.059 308.342 193.623 308.284 193.623 308.197C193.623 308.11 206.052 307.965 221.394 307.906C236.736 307.848 249.165 307.885 249.165 307.994Z" fill="#263238"/>
<path d="M187.297 300.782C187.196 300.782 185.663 289.304 183.883 275.117C182.103 260.93 180.738 249.409 180.839 249.395C180.941 249.38 182.474 260.872 184.254 275.066C186.033 289.261 187.384 300.767 187.297 300.782Z" fill="#263238"/>
<path d="M180.373 245.559C180.5 245.51 180.631 245.476 180.765 245.457C181.145 245.391 181.528 245.353 181.913 245.341C183.338 245.291 184.76 245.51 186.104 245.987C187.044 246.327 187.883 246.896 188.545 247.644C189.274 248.506 189.9 249.449 190.412 250.455C191.502 252.554 192.715 254.813 194.044 257.203C196.71 261.932 199.216 266.175 200.916 269.313C201.781 270.875 202.442 272.153 202.892 273.047C203.095 273.461 203.255 273.773 203.393 274.078C203.461 274.196 203.51 274.323 203.539 274.456C203.457 274.348 203.384 274.234 203.321 274.114L202.761 273.112L200.684 269.444C198.926 266.342 196.383 262.129 193.71 257.385C192.374 255.017 191.168 252.714 190.078 250.622C189.59 249.631 188.985 248.702 188.277 247.854C187.657 247.13 186.865 246.573 185.974 246.234C184.664 245.753 183.279 245.507 181.884 245.508C180.925 245.479 180.38 245.595 180.373 245.559Z" fill="#263238"/>
<path d="M172.572 248.317C172.667 248.368 169.325 254.194 165.119 261.32C160.913 268.446 157.426 274.192 157.332 274.141C157.238 274.09 160.579 268.265 164.792 261.131C169.006 253.998 172.485 248.244 172.572 248.317Z" fill="#263238"/>
<path d="M211.972 274.135H151.512V291.961H211.972V274.135Z" fill="#FAFAFA"/>
<path d="M210.019 290.378C210.019 290.378 210.019 290.291 210.019 290.117C210.019 289.943 210.019 289.696 210.019 289.39C210.019 288.729 210.019 287.771 210.019 286.536C210.019 284.037 210.019 280.412 209.961 275.835L210.07 275.944L153.045 276.024C153.125 275.937 152.849 276.213 153.227 275.835V290.364L153.038 290.182L193.718 290.262L205.711 290.313H208.951H209.793H210.084C209.995 290.32 209.905 290.32 209.815 290.313H208.994H205.798L193.849 290.364L153.053 290.451H152.871V290.378C152.871 288.032 152.871 285.635 152.871 283.209V275.792C153.249 275.414 152.98 275.683 153.067 275.603L210.091 275.676H210.208V275.792C210.208 280.397 210.157 284.044 210.142 286.557C210.142 287.785 210.142 288.737 210.142 289.39V290.117C210.111 290.208 210.07 290.296 210.019 290.378V290.378Z" fill="#263238"/>
<path d="M243.318 227.114C243.318 226.181 243.689 225.287 244.348 224.627C245.007 223.968 245.902 223.598 246.834 223.598C247.767 223.598 248.661 223.968 249.32 224.627C249.98 225.287 250.35 226.181 250.35 227.114C250.35 228.046 249.98 228.94 249.32 229.6C248.661 230.259 247.767 230.629 246.834 230.629C245.902 230.629 245.007 230.259 244.348 229.6C243.689 228.94 243.318 228.046 243.318 227.114V227.114Z" fill="#4285F2"/>
<path d="M152.154 163.271L151.428 147.834C151.4 147.224 151.149 146.646 150.723 146.209C150.298 145.771 149.727 145.504 149.118 145.459V145.459C148.478 145.409 147.843 145.607 147.345 146.013C146.847 146.419 146.525 147.001 146.445 147.638L144.491 163.111C144.46 163.385 144.488 163.662 144.571 163.925C144.655 164.188 144.793 164.43 144.977 164.635C145.161 164.841 145.386 165.006 145.638 165.118C145.889 165.231 146.162 165.29 146.437 165.29H150.2C150.462 165.288 150.721 165.234 150.961 165.131C151.202 165.028 151.419 164.878 151.601 164.69C151.783 164.502 151.926 164.28 152.021 164.036C152.116 163.792 152.161 163.532 152.154 163.271V163.271Z" fill="#E0E0E0"/>
<path d="M145.158 136.72C145.404 136.017 145.852 135.403 146.447 134.956C147.042 134.508 147.755 134.247 148.499 134.205C149.242 134.163 149.98 134.343 150.621 134.721C151.262 135.099 151.777 135.658 152.1 136.329C152.423 136.999 152.54 137.75 152.436 138.487C152.332 139.224 152.012 139.914 151.516 140.469C151.021 141.024 150.371 141.419 149.651 141.605C148.93 141.792 148.171 141.76 147.468 141.514C147.002 141.351 146.572 141.098 146.203 140.768C145.835 140.439 145.535 140.041 145.32 139.595C145.106 139.15 144.981 138.667 144.953 138.174C144.925 137.68 144.995 137.186 145.158 136.72V136.72Z" fill="#E0E0E0"/>
<path d="M111.749 182.775L102.756 175.14C102.399 174.842 101.946 174.683 101.481 174.694C101.016 174.705 100.57 174.884 100.228 175.199V175.199C99.8682 175.53 99.6502 175.988 99.6191 176.476C99.588 176.965 99.7461 177.446 100.061 177.821L107.674 186.959C107.81 187.122 107.979 187.253 108.17 187.346C108.361 187.438 108.569 187.489 108.781 187.495C108.993 187.501 109.204 187.463 109.4 187.382C109.596 187.301 109.773 187.179 109.918 187.025L111.872 184.925C112.01 184.778 112.116 184.605 112.184 184.415C112.253 184.226 112.282 184.025 112.27 183.824C112.259 183.623 112.207 183.426 112.117 183.246C112.027 183.066 111.902 182.906 111.749 182.775V182.775Z" fill="#F5F5F5"/>
<path d="M93.2985 172.875C93.024 172.367 92.9071 171.788 92.9627 171.214C93.0184 170.639 93.244 170.094 93.6109 169.648C93.9778 169.202 94.4693 168.875 95.0226 168.71C95.5759 168.544 96.166 168.547 96.7175 168.719C97.2689 168.89 97.7568 169.222 98.1188 169.672C98.4808 170.122 98.7006 170.67 98.75 171.245C98.7993 171.821 98.6761 172.398 98.3961 172.903C98.116 173.408 97.6918 173.818 97.1776 174.081C96.5017 174.426 95.7173 174.494 94.9924 174.268C94.2674 174.043 93.6594 173.543 93.2985 172.875V172.875Z" fill="#F5F5F5"/>
<path d="M104.124 146.875L117.926 170.295C118.472 171.221 119.337 171.915 120.36 172.247C121.382 172.579 122.49 172.525 123.476 172.096V172.096C124.512 171.645 125.336 170.813 125.777 169.772C126.217 168.732 126.241 167.561 125.844 166.503L116.175 140.817C116.002 140.359 115.734 139.944 115.388 139.598C115.042 139.252 114.627 138.983 114.17 138.809C113.712 138.636 113.224 138.561 112.735 138.59C112.247 138.619 111.771 138.752 111.337 138.979L105.475 142.059C105.062 142.278 104.698 142.579 104.405 142.944C104.112 143.308 103.895 143.728 103.769 144.178C103.643 144.628 103.609 145.099 103.67 145.563C103.731 146.026 103.885 146.473 104.124 146.875V146.875Z" fill="#E0E0E0"/>
<path d="M136.826 182.448C137.022 183.744 136.828 185.069 136.271 186.255C135.713 187.441 134.816 188.435 133.693 189.111C132.571 189.787 131.273 190.115 129.964 190.053C128.655 189.992 127.393 189.543 126.339 188.764C125.285 187.986 124.485 186.912 124.042 185.679C123.598 184.446 123.53 183.109 123.846 181.837C124.162 180.565 124.849 179.416 125.818 178.534C126.788 177.652 127.997 177.078 129.293 176.884C131.03 176.623 132.799 177.063 134.212 178.107C135.624 179.15 136.565 180.712 136.826 182.448Z" fill="#E0E0E0"/>
<path d="M410.228 407.063C410.228 405.698 410.162 284.523 410.068 99.6635L410.228 99.8233L74.0616 99.8523L74.2505 99.6635C74.2505 211.649 74.2505 316.951 74.2505 407.063L74.0907 406.896L410.257 407.063L74.0616 407.23H73.8945V407.063C73.8945 316.987 73.8945 211.656 73.8945 99.6635V99.4746H74.1125H410.249H410.395V99.6344C410.293 284.523 410.228 405.698 410.228 407.063Z" fill="#263238"/>
<path d="M83.4033 112.529C84.9398 112.529 86.1855 111.284 86.1855 109.747C86.1855 108.21 84.9398 106.965 83.4033 106.965C81.8667 106.965 80.6211 108.21 80.6211 109.747C80.6211 111.284 81.8667 112.529 83.4033 112.529Z" fill="white"/>
<path d="M92.9638 112.529C94.5004 112.529 95.746 111.284 95.746 109.747C95.746 108.21 94.5004 106.965 92.9638 106.965C91.4273 106.965 90.1816 108.21 90.1816 109.747C90.1816 111.284 91.4273 112.529 92.9638 112.529Z" fill="white"/>
<path d="M102.522 112.529C104.059 112.529 105.305 111.284 105.305 109.747C105.305 108.21 104.059 106.965 102.522 106.965C100.986 106.965 99.7402 108.21 99.7402 109.747C99.7402 111.284 100.986 112.529 102.522 112.529Z" fill="white"/>
<path d="M281.5 167.614C279.145 167.022 276.868 166.157 274.715 165.035C275.911 165.262 277.076 165.628 278.187 166.125C279.346 166.49 280.458 166.989 281.5 167.614V167.614Z" fill="#455A64"/>
<path d="M272.209 182.244C271.483 182.164 269.521 183.138 267.887 185.077L267.807 185.164C266.652 186.465 265.933 182.469 265.86 180.995C265.84 180.766 265.769 180.544 265.652 180.346C265.535 180.149 265.376 179.98 265.184 179.852C264.993 179.724 264.776 179.641 264.548 179.609C264.321 179.577 264.089 179.596 263.87 179.665L258.785 181.612L257.332 181.561C256.978 181.656 256.673 181.88 256.478 182.19C256.282 182.5 256.211 182.872 256.279 183.232L258.08 191.143L257.986 193.264L267.72 195.284L268.243 189.995C268.432 189.392 268.679 188.68 268.969 187.874C269.262 187.145 269.677 186.472 270.197 185.884C270.767 185.214 271.405 184.605 272.1 184.068L272.267 183.973C272.38 183.919 272.482 183.842 272.565 183.748C272.691 183.646 272.785 183.511 272.837 183.359C272.889 183.206 272.897 183.041 272.86 182.884C272.823 182.727 272.742 182.584 272.627 182.47C272.512 182.357 272.367 182.279 272.209 182.244V182.244Z" fill="#FFBE9D"/>
<path d="M270.072 159.942C270.072 159.942 264.261 159.216 255.544 152.271C246.827 145.327 242.083 135.447 241.11 135.564C240.137 135.68 235.662 134.111 229.189 152.605C222.717 171.1 226.284 174.892 227.925 174.71C229.567 174.529 240.275 170.417 247.205 170.555C254.135 170.693 263.317 173.461 263.317 173.461L270.072 159.942Z" fill="#4285F2"/>
<path d="M283.076 168.456L281.478 172.328L280.752 174.064C280.28 175.211 279.387 176.132 278.255 176.639C277.124 177.146 275.841 177.199 274.672 176.788L262.068 173.686L267.647 156.797L280.447 162.143C281.631 162.634 282.572 163.573 283.065 164.757C283.558 165.94 283.562 167.27 283.076 168.456V168.456Z" fill="#263238"/>
<path d="M278.107 174.151L273.887 181.633L271.962 181.015L258.792 190.858L255.516 183.739C255.516 183.739 263.179 180.834 264.69 178.182C266.201 175.531 264.61 174.884 264.61 174.884L268.315 170.998L278.107 174.151Z" fill="#263238"/>
<path d="M229.859 152.887C226.43 162.89 225.428 171.607 227.629 172.363C229.83 173.118 234.385 165.614 237.799 155.612C241.213 145.609 242.23 136.892 240.029 136.136C237.828 135.381 233.288 142.914 229.859 152.887Z" fill="#263238"/>
<path d="M284.622 173.693L281.215 172.967L282.9 168.877L285.523 170.185L284.622 173.693Z" fill="#455A64"/>
<path d="M280.707 169.989C280.663 170.106 278.956 169.619 276.886 168.907C275.609 168.544 274.374 168.045 273.203 167.418C274.511 167.647 275.791 168.009 277.024 168.5C278.3 168.867 279.535 169.366 280.707 169.989V169.989Z" fill="#455A64"/>
<path d="M279.638 172.545C279.638 172.603 279.232 172.545 278.585 172.414L277.452 172.153C277.031 172.044 276.587 171.869 276.115 171.71C274.953 171.371 273.839 170.883 272.803 170.257C272.846 170.14 274.386 170.656 276.261 171.317C276.725 171.484 277.161 171.666 277.575 171.797C277.989 171.927 278.353 172.029 278.658 172.138C279.282 172.327 279.638 172.487 279.638 172.545Z" fill="#455A64"/>
<path d="M238.489 149.919C238.489 149.919 233.251 147.319 231.173 154.278C229.096 161.237 234.406 161.803 234.406 161.803C236.324 158.056 237.698 154.054 238.489 149.919V149.919Z" fill="#FAFAFA"/>
<path d="M242.999 141.461C243.011 141.896 242.987 142.331 242.927 142.761C242.847 143.589 242.738 144.795 242.556 146.284C242.418 147.011 242.258 147.824 242.099 148.689C242.011 149.117 241.924 149.568 241.837 150.025C241.786 150.258 241.743 150.49 241.699 150.752C241.656 151.013 241.568 151.224 241.503 151.478L240.66 154.464C240.588 154.725 240.508 154.987 240.435 155.248C240.363 155.51 240.246 155.764 240.159 156.033L239.563 157.617C239.367 158.147 239.164 158.677 238.968 159.2C238.866 159.462 238.786 159.723 238.67 159.97L238.321 160.697L236.992 163.508C236.89 163.726 236.789 163.951 236.672 164.162C236.556 164.372 236.44 164.583 236.316 164.786L235.634 165.97C235.19 166.697 234.784 167.423 234.406 168.084C233.563 169.319 232.859 170.3 232.372 170.99C232.136 171.352 231.871 171.695 231.58 172.014C231.764 171.623 231.983 171.248 232.234 170.896L234.152 167.924L235.328 165.796L235.989 164.612L236.331 163.995C236.447 163.784 236.542 163.559 236.643 163.333C237.057 162.44 237.493 161.503 237.936 160.537L238.278 159.81C238.394 159.563 238.474 159.295 238.576 159.04C238.772 158.525 238.968 157.994 239.164 157.464L239.76 155.895C239.847 155.633 239.963 155.379 240.036 155.118C240.108 154.856 240.188 154.595 240.261 154.34L241.125 151.377C241.191 151.144 241.271 150.912 241.321 150.65C241.372 150.389 241.423 150.185 241.467 149.924C241.568 149.473 241.656 149.03 241.75 148.602C241.932 147.744 242.106 146.953 242.258 146.219C242.469 144.766 242.643 143.575 242.76 142.725C242.808 142.298 242.888 141.876 242.999 141.461Z" fill="#263238"/>
<path d="M262.256 178.058C261.992 178.159 261.775 178.355 261.648 178.608C261.522 178.861 261.495 179.152 261.574 179.424C261.871 180.521 262.365 182.235 262.75 183.289C262.858 183.632 263.028 183.952 263.252 184.233C263.362 184.369 263.508 184.472 263.674 184.529C263.839 184.587 264.018 184.598 264.189 184.56C264.362 184.486 264.512 184.367 264.624 184.215C264.735 184.062 264.803 183.883 264.821 183.695C264.85 183.313 264.805 182.928 264.69 182.562C264.443 181.545 263.964 180.012 263.6 178.763C263.564 178.624 263.5 178.495 263.411 178.382C263.323 178.27 263.212 178.176 263.086 178.108C262.96 178.04 262.821 177.999 262.679 177.986C262.536 177.974 262.392 177.991 262.256 178.037V178.058Z" fill="#FFBE9D"/>
<path d="M260.628 179.964C260.362 180.063 260.143 180.258 260.016 180.512C259.888 180.765 259.86 181.057 259.938 181.33C260.243 182.427 260.737 184.141 261.122 185.187C261.225 185.533 261.392 185.856 261.616 186.139C261.727 186.275 261.873 186.377 262.038 186.435C262.204 186.493 262.382 186.503 262.553 186.465C262.729 186.394 262.881 186.276 262.992 186.123C263.104 185.97 263.171 185.79 263.185 185.601C263.219 185.219 263.177 184.834 263.062 184.468C262.807 183.451 262.335 181.911 261.972 180.661C261.936 180.523 261.871 180.393 261.783 180.281C261.694 180.168 261.584 180.075 261.458 180.007C261.332 179.939 261.193 179.897 261.05 179.885C260.908 179.872 260.764 179.89 260.628 179.935V179.964Z" fill="#FFBE9D"/>
<path d="M259.103 181.074C258.866 181.152 258.669 181.32 258.554 181.541C258.439 181.762 258.414 182.019 258.485 182.258C258.761 183.202 259.212 184.699 259.56 185.607C259.659 185.904 259.812 186.179 260.011 186.421C260.113 186.541 260.246 186.631 260.396 186.683C260.545 186.734 260.706 186.744 260.861 186.711C261.014 186.654 261.148 186.556 261.249 186.428C261.35 186.3 261.414 186.147 261.435 185.985C261.457 185.653 261.418 185.321 261.318 185.004C261.086 184.118 260.672 182.825 260.316 181.706C260.235 181.465 260.062 181.266 259.835 181.152C259.607 181.038 259.345 181.018 259.103 181.096V181.074Z" fill="#FFBE9D"/>
<path d="M257.178 181.364C256.941 181.442 256.744 181.609 256.627 181.83C256.511 182.051 256.484 182.308 256.553 182.548C256.837 183.499 257.28 185.003 257.643 185.911C257.736 186.215 257.889 186.496 258.093 186.739C258.191 186.878 258.331 186.983 258.492 187.037C258.654 187.091 258.828 187.093 258.991 187.041C259.153 186.989 259.294 186.887 259.394 186.749C259.494 186.611 259.547 186.445 259.546 186.274C259.57 185.942 259.528 185.609 259.423 185.294C259.19 184.4 258.776 183.063 258.42 181.974C258.381 181.853 258.318 181.742 258.235 181.645C258.152 181.549 258.051 181.47 257.937 181.414C257.824 181.357 257.7 181.323 257.574 181.315C257.447 181.306 257.32 181.323 257.2 181.364H257.178Z" fill="#FFBE9D"/>
<path d="M263.142 184.271C262.741 183.678 262.448 183.019 262.278 182.324C261.988 181.671 261.823 180.968 261.791 180.254C262.197 180.844 262.49 181.504 262.655 182.201C262.95 182.853 263.115 183.556 263.142 184.271Z" fill="#EB996E"/>
<path d="M261.4 185.773C260.975 185.082 260.666 184.326 260.485 183.535C260.177 182.786 259.995 181.99 259.947 181.182C260.372 181.873 260.681 182.628 260.863 183.419C261.174 184.167 261.356 184.963 261.4 185.773V185.773Z" fill="#EB996E"/>
<path d="M259.685 185.889C259.234 185.319 258.912 184.657 258.741 183.95C258.444 183.286 258.302 182.563 258.327 181.836C258.683 182.459 258.95 183.129 259.119 183.826C259.411 184.481 259.602 185.177 259.685 185.889V185.889Z" fill="#EB996E"/>
<path d="M320.254 159.471C317.486 154.793 312.488 151.756 307.243 150.311C305.064 149.708 303.539 149.875 301.265 150.129C298.999 150.32 296.874 151.306 295.265 152.911C293.292 154.797 291.827 157.151 291.008 159.754C290.204 162.429 289.65 165.172 289.352 167.948C289.057 170.742 289.54 173.562 290.746 176.099L297.56 178.38C301.41 179.106 305.311 179.832 309.183 179.52C313.055 179.208 317.05 177.748 319.571 174.748C323.101 170.592 323.021 164.149 320.254 159.471Z" fill="#263238"/>
<path d="M323.952 179.963C324.006 179.158 323.875 178.353 323.569 177.607C323.263 176.862 322.79 176.196 322.187 175.662C321.567 175.145 320.799 174.838 319.993 174.785C319.188 174.733 318.386 174.938 317.705 175.372L316.405 176.512C315.492 176.778 314.684 177.322 314.094 178.068C313.505 178.814 313.162 179.725 313.114 180.674C313.1 181.626 313.357 182.562 313.857 183.373C314.356 184.184 315.076 184.835 315.932 185.251C316.799 185.644 317.751 185.807 318.699 185.726C319.647 185.644 320.558 185.321 321.344 184.786C322.119 184.236 322.758 183.514 323.21 182.678C323.662 181.842 323.916 180.913 323.952 179.963V179.963Z" fill="#263238"/>
<path d="M321.83 184.495C322.164 184.123 322.37 183.655 322.419 183.158C322.374 181.944 321.986 180.768 321.3 179.766C320.657 178.726 319.821 177.819 318.837 177.092C318.111 176.526 317.544 176.279 317.573 176.221C318.08 176.35 318.556 176.577 318.975 176.889C320.039 177.581 320.935 178.502 321.598 179.584C321.963 180.178 322.254 180.815 322.462 181.48C322.659 182.026 322.728 182.61 322.666 183.187C322.615 183.582 322.445 183.952 322.179 184.248C321.99 184.451 321.845 184.509 321.83 184.495Z" fill="#455A64"/>
<path d="M318.14 186.049C318.503 184.518 318.635 182.941 318.532 181.371C318.314 179.815 317.855 178.304 317.174 176.889C317.505 177.227 317.766 177.627 317.944 178.065C318.955 180.136 319.211 182.494 318.67 184.734C318.576 185.201 318.396 185.647 318.14 186.049V186.049Z" fill="#455A64"/>
<path d="M295.25 192.986C295.672 190.538 296.609 185.286 296.609 185.301C296.609 185.315 290.994 183.797 290.536 176.242C290.303 172.487 291.081 166.436 291.873 161.503C292.599 157.065 297.292 151.588 302.769 152.409L305.246 152.496L314.014 157.632C314.665 157.762 315.242 158.135 315.628 158.674C316.015 159.213 316.183 159.879 316.099 160.537L311.297 192.275L297.706 218.869L294.633 199.982L295.25 192.986Z" fill="#FFBE9D"/>
<path d="M294.401 166.923C294.376 167.171 294.449 167.419 294.604 167.614C294.758 167.809 294.983 167.936 295.229 167.969C295.35 167.991 295.473 167.988 295.593 167.962C295.712 167.935 295.825 167.884 295.924 167.813C296.024 167.742 296.108 167.652 296.172 167.548C296.236 167.443 296.279 167.327 296.297 167.206C296.322 166.958 296.25 166.709 296.095 166.513C295.941 166.316 295.717 166.188 295.469 166.153C295.348 166.131 295.224 166.134 295.104 166.161C294.985 166.189 294.871 166.24 294.772 166.312C294.672 166.383 294.588 166.475 294.524 166.58C294.461 166.685 294.419 166.802 294.401 166.923V166.923Z" fill="#263238"/>
<path d="M293.266 164.518C293.375 164.656 294.153 164.191 295.177 164.292C296.201 164.394 296.906 164.982 297.029 164.866C297.153 164.75 296.993 164.576 296.688 164.307C296.278 163.959 295.771 163.746 295.235 163.697C294.702 163.642 294.165 163.759 293.702 164.031C293.346 164.241 293.216 164.459 293.266 164.518Z" fill="#263238"/>
<path d="M298.527 173.215C298.001 172.992 297.45 172.835 296.885 172.75C296.624 172.699 296.384 172.626 296.355 172.438C296.365 172.175 296.453 171.922 296.609 171.711C296.914 171.101 297.234 170.454 297.575 169.786C298.926 167.048 299.936 164.781 299.82 164.701C298.811 166.251 297.927 167.878 297.176 169.568L296.239 171.5C296.042 171.801 295.957 172.161 295.999 172.517C296.029 172.614 296.081 172.703 296.15 172.777C296.219 172.852 296.304 172.909 296.398 172.946C296.539 172.997 296.685 173.032 296.834 173.048C297.389 173.176 297.958 173.233 298.527 173.215V173.215Z" fill="#263238"/>
<path d="M296.607 185.301C300.109 185.688 303.649 185.097 306.835 183.594C306.835 183.594 303.683 188.49 296.295 187.073L296.607 185.301Z" fill="#EB996E"/>
<path d="M294.073 160.895C294.233 161.149 294.967 160.975 295.817 161.047C296.666 161.12 297.371 161.353 297.56 161.127C297.647 161.018 297.56 160.771 297.262 160.517C296.864 160.213 296.384 160.034 295.884 160.001C295.384 159.969 294.885 160.085 294.451 160.336C294.168 160.546 294.008 160.779 294.073 160.895Z" fill="#263238"/>
<path d="M306.147 167.671C306.116 167.919 305.99 168.145 305.794 168.301C305.599 168.458 305.35 168.531 305.101 168.506C304.979 168.499 304.86 168.468 304.751 168.414C304.641 168.36 304.543 168.285 304.463 168.193C304.382 168.101 304.321 167.994 304.282 167.878C304.243 167.763 304.228 167.64 304.237 167.518C304.266 167.27 304.392 167.042 304.588 166.886C304.784 166.729 305.034 166.657 305.283 166.683C305.405 166.69 305.524 166.722 305.634 166.776C305.743 166.83 305.841 166.905 305.921 166.996C306.002 167.088 306.063 167.195 306.102 167.311C306.141 167.427 306.156 167.549 306.147 167.671Z" fill="#263238"/>
<path d="M306.864 165.376C306.726 165.485 306.08 164.853 305.055 164.715C304.031 164.577 303.218 164.991 303.123 164.853C303.029 164.715 303.225 164.584 303.581 164.388C304.067 164.14 304.617 164.049 305.157 164.126C305.688 164.198 306.184 164.434 306.574 164.802C306.85 165.085 306.93 165.325 306.864 165.376Z" fill="#263238"/>
<path d="M306.713 161.874C306.502 162.077 305.827 161.743 304.984 161.62C304.141 161.496 303.393 161.561 303.262 161.3C303.204 161.169 303.35 160.951 303.691 160.777C304.143 160.561 304.652 160.495 305.144 160.588C305.641 160.661 306.103 160.887 306.466 161.235C306.735 161.518 306.807 161.801 306.713 161.874Z" fill="#263238"/>
<path d="M314.508 170.941L313.055 172.066C308.341 165.943 299.573 151.073 300.052 151.952C302.703 151.399 305.449 151.517 308.043 152.293C312.038 153.623 319.513 156.862 318.656 161.686C317.799 166.509 314.508 170.941 314.508 170.941Z" fill="#263238"/>
<path d="M317.588 175.684C317.61 175.29 317.654 174.897 317.719 174.507C317.832 173.443 317.852 172.371 317.777 171.304C317.48 167.775 316.328 164.372 314.421 161.388C312.482 158.428 310.103 155.78 307.367 153.535C306.321 152.664 305.457 151.988 304.846 151.523C304.525 151.299 304.217 151.057 303.924 150.797C303.924 150.797 304.026 150.797 304.193 150.942C304.36 151.087 304.614 151.211 304.919 151.429C305.551 151.857 306.445 152.504 307.512 153.361C310.328 155.567 312.76 158.223 314.711 161.221C316.651 164.247 317.788 167.717 318.016 171.304C318.073 172.387 318.017 173.472 317.849 174.544C317.798 174.921 317.711 175.205 317.675 175.408C317.661 175.504 317.631 175.597 317.588 175.684V175.684Z" fill="#455A64"/>
<path d="M307.141 150.963C307.238 151 307.331 151.049 307.417 151.108C307.598 151.21 307.853 151.362 308.179 151.573C308.826 151.994 309.756 152.626 310.853 153.484C312.131 154.49 313.351 155.57 314.507 156.716C315.973 158.077 317.269 159.611 318.364 161.285C318.92 162.171 319.353 163.129 319.65 164.133C319.919 165.078 320.056 166.056 320.056 167.039C320.048 168.675 319.804 170.302 319.33 171.869C318.931 173.206 318.524 174.252 318.233 174.971C318.088 175.327 317.964 175.603 317.884 175.792C317.844 175.888 317.795 175.98 317.739 176.068C317.841 175.661 317.974 175.263 318.139 174.877C318.386 174.15 318.756 173.09 319.119 171.76C319.561 170.213 319.786 168.612 319.788 167.002C319.772 166.058 319.633 165.121 319.374 164.213C319.081 163.24 318.658 162.312 318.117 161.452C317.033 159.806 315.766 158.287 314.339 156.927C313.184 155.786 311.972 154.705 310.707 153.687C309.64 152.815 308.732 152.154 308.107 151.704C307.767 151.481 307.444 151.233 307.141 150.963V150.963Z" fill="#455A64"/>
<path d="M314.618 171.079C314.408 170.856 314.221 170.613 314.059 170.353L312.606 168.275C311.422 166.517 309.802 164.069 308.037 161.353C306.271 158.636 304.681 156.173 303.547 154.372L302.218 152.236C302.047 151.98 301.896 151.71 301.768 151.43C301.979 151.652 302.166 151.895 302.327 152.156L303.78 154.234C304.964 155.992 306.584 158.44 308.356 161.156C310.129 163.873 311.712 166.343 312.846 168.137L314.175 170.28C314.349 170.531 314.498 170.799 314.618 171.079V171.079Z" fill="#455A64"/>
<path d="M313.12 172.902C313.178 172.35 313.948 171.1 314.5 171.071C315.953 170.984 318.611 171.355 318.27 175.074C317.812 180.159 312.814 178.641 312.814 178.495C312.814 178.35 312.931 174.812 313.12 172.902Z" fill="#FFBE9D"/>
<path d="M314.217 176.584C314.217 176.584 314.297 176.656 314.442 176.736C314.542 176.791 314.652 176.826 314.766 176.839C314.879 176.851 314.994 176.841 315.103 176.809C315.451 176.633 315.744 176.366 315.954 176.038C316.163 175.71 316.281 175.331 316.295 174.942C316.344 174.506 316.297 174.065 316.157 173.649C316.123 173.488 316.05 173.338 315.945 173.211C315.84 173.084 315.706 172.985 315.554 172.923C315.454 172.889 315.346 172.89 315.247 172.925C315.148 172.961 315.064 173.029 315.009 173.119C314.929 173.257 314.951 173.358 314.929 173.366C314.907 173.373 314.827 173.271 314.885 173.068C314.923 172.945 315.002 172.839 315.111 172.77C315.184 172.723 315.266 172.691 315.352 172.676C315.439 172.661 315.527 172.663 315.612 172.683C315.818 172.741 316.006 172.852 316.156 173.005C316.306 173.158 316.414 173.347 316.469 173.555C316.65 174.016 316.71 174.516 316.643 175.007C316.52 176.032 315.917 176.94 315.191 177.085C315.051 177.113 314.906 177.11 314.768 177.074C314.63 177.039 314.501 176.973 314.391 176.882C314.217 176.707 314.203 176.591 314.217 176.584Z" fill="#EB996E"/>
<path d="M325.047 360.898C324.945 361.698 322.977 384.035 322.977 384.035H312.742L310.947 360.993L325.047 360.898Z" fill="#FFBE9D"/>
<path d="M312.714 380.709C312.714 380.709 319.905 385.794 323.377 381.399L324.293 383.535L328.375 398.79C328.515 399.267 328.476 399.78 328.265 400.231C328.053 400.682 327.684 401.04 327.227 401.238C326.877 401.377 326.494 401.413 326.123 401.343C325.753 401.272 325.41 401.097 325.135 400.838C322.179 398.02 311.333 387.625 311.464 386.215L311.5 382.474C311.506 382.094 311.625 381.724 311.841 381.412C312.057 381.099 312.36 380.857 312.714 380.716V380.709Z" fill="#4285F2"/>
<path d="M326.857 401.333L311.456 384.908V385.722C311.438 386.058 311.494 386.394 311.62 386.707C311.745 387.019 311.937 387.3 312.183 387.531C313.432 389.209 316.883 392.971 325.07 400.831C325.304 401.057 325.591 401.22 325.904 401.308C326.217 401.395 326.547 401.404 326.864 401.333H326.857Z" fill="#263238"/>
<path d="M313.716 382.465C313.954 382.639 314.119 382.895 314.181 383.183C314.243 383.471 314.196 383.771 314.05 384.027C313.885 384.272 313.633 384.444 313.346 384.509C313.058 384.574 312.756 384.526 312.503 384.376C312.251 384.191 312.077 383.919 312.014 383.613C311.951 383.308 312.004 382.989 312.161 382.72C312.358 382.483 312.64 382.332 312.946 382.298C313.252 382.264 313.559 382.35 313.803 382.538" fill="white"/>
<path d="M322.432 392.92C322.893 392.314 323.465 391.801 324.118 391.409C324.812 391.133 325.55 390.985 326.297 390.973C326.297 390.929 326.072 390.777 325.621 390.719C325.027 390.651 324.426 390.76 323.892 391.031C323.353 391.291 322.903 391.706 322.599 392.222C322.411 392.615 322.381 392.905 322.432 392.92Z" fill="#263238"/>
<path d="M323.813 395.497C324.364 395.182 324.934 394.901 325.52 394.655C326.142 394.536 326.77 394.454 327.401 394.408C327.459 394.306 326.53 393.907 325.396 394.255C324.263 394.604 323.711 395.447 323.813 395.497Z" fill="#263238"/>
<path d="M319.861 389.615C320.672 389.069 321.522 388.583 322.404 388.162C323.339 387.862 324.296 387.636 325.266 387.486C325.266 387.377 323.857 387.116 322.244 387.77C321.256 388.082 320.411 388.736 319.861 389.615V389.615Z" fill="#263238"/>
<path d="M319.514 384.973C319.572 385.089 320.632 384.639 322.02 384.588C323.407 384.537 324.504 384.857 324.548 384.741C323.766 384.319 322.885 384.119 321.999 384.16C321.112 384.2 320.253 384.482 319.514 384.973V384.973Z" fill="#263238"/>
<path d="M322.811 384.545C322.825 384.298 322.788 384.051 322.702 383.819C322.51 383.175 322.194 382.576 321.772 382.054C321.497 381.642 321.094 381.333 320.624 381.175C320.465 381.137 320.299 381.149 320.147 381.208C319.995 381.268 319.865 381.373 319.774 381.509C319.619 381.787 319.57 382.112 319.636 382.424C319.8 383.058 320.18 383.614 320.71 383.996C321.241 384.378 321.889 384.562 322.542 384.516C323.182 384.462 323.791 384.219 324.293 383.818C324.794 383.417 325.166 382.876 325.36 382.264C325.408 382.11 325.422 381.946 325.401 381.786C325.38 381.625 325.324 381.471 325.237 381.335C325.142 381.199 325.004 381.101 324.846 381.054C324.687 381.008 324.518 381.017 324.365 381.08C323.918 381.27 323.527 381.573 323.232 381.959C322.797 382.468 322.453 383.048 322.215 383.674C322.109 383.901 322.052 384.149 322.048 384.4C322.405 383.594 322.88 382.844 323.457 382.177C323.728 381.858 324.072 381.609 324.46 381.451C324.544 381.419 324.636 381.415 324.723 381.439C324.809 381.464 324.885 381.517 324.939 381.589C324.991 381.682 325.022 381.786 325.03 381.893C325.038 381.999 325.021 382.106 324.983 382.206C324.79 382.723 324.454 383.175 324.014 383.508C323.574 383.841 323.048 384.042 322.498 384.088C321.949 384.12 321.405 383.965 320.956 383.648C320.506 383.332 320.176 382.872 320.021 382.344C319.969 382.129 319.994 381.903 320.094 381.705C320.141 381.627 320.211 381.567 320.295 381.531C320.378 381.496 320.471 381.488 320.559 381.509C320.952 381.646 321.294 381.899 321.54 382.235C322.096 382.925 322.526 383.707 322.811 384.545V384.545Z" fill="#263238"/>
<path d="M268.846 353.628L270.611 382.148L283.004 382.06L285.096 352.43L268.846 353.628Z" fill="#FFBE9D"/>
<path d="M270.384 378.704V379.532C270.384 379.532 256.393 385.09 256.219 387.719H283.968L283.576 378.486C281.522 379.468 279.28 379.995 277.004 380.033C274.727 380.071 272.469 379.617 270.384 378.704V378.704Z" fill="#4285F2"/>
<path d="M280.772 381.427C281.039 381.508 281.267 381.685 281.411 381.924C281.556 382.162 281.608 382.446 281.556 382.72C281.486 382.99 281.315 383.222 281.078 383.369C280.842 383.517 280.558 383.568 280.285 383.512C280.002 383.426 279.761 383.238 279.608 382.985C279.455 382.731 279.401 382.43 279.457 382.139C279.56 381.866 279.765 381.643 280.029 381.517C280.294 381.391 280.596 381.372 280.874 381.464" fill="white"/>
<path d="M283.998 387.719L283.904 385.504L257.346 386.347C257.346 386.347 256.111 386.884 256.249 387.749L283.998 387.719Z" fill="#263238"/>
<path d="M270.276 379.611C270.276 379.742 270.959 379.8 271.627 380.236C272.296 380.672 272.652 381.245 272.775 381.187C272.898 381.129 272.695 380.352 271.882 379.843C271.068 379.335 270.247 379.48 270.276 379.611Z" fill="#263238"/>
<path d="M267.369 380.818C267.369 380.949 267.921 381.174 268.386 381.748C268.851 382.321 268.982 382.924 269.113 382.924C269.243 382.924 269.338 382.147 268.749 381.472C268.161 380.796 267.369 380.687 267.369 380.818Z" fill="#263238"/>
<path d="M265.722 384.297C265.845 384.297 266.034 383.651 265.722 382.91C265.409 382.169 264.734 381.871 264.676 381.987C264.617 382.104 265.017 382.496 265.293 383.106C265.569 383.716 265.584 384.29 265.722 384.297Z" fill="#263238"/>
<path d="M285.096 265.369C284.725 266.436 270.03 316.218 270.03 316.218L267.502 375.298L285.793 376.351L292.331 317.366L309.039 280.471L301.695 250.455H286.759L285.096 265.369Z" fill="#263238"/>
<path d="M298.111 250.469C298.373 251.195 307.751 284.974 307.751 284.974L309.051 335.344V377.018H325.723L333.488 285.112C333.488 285.112 334.861 268.404 332.515 262.789C330.168 257.173 320.667 247.309 320.667 247.309L298.111 250.469Z" fill="#263238"/>
<path d="M299.455 253.926C299.611 254.308 299.737 254.701 299.833 255.103C300.073 255.923 300.392 257.013 300.77 258.328C301.613 261.11 302.731 264.866 303.973 268.955C305.216 273.045 306.211 276.946 306.792 279.699C307.097 281.094 307.293 282.227 307.409 283.012C307.492 283.416 307.538 283.827 307.547 284.239C307.424 283.847 307.329 283.447 307.264 283.041C307.104 282.263 306.865 281.138 306.538 279.765C305.891 276.997 304.845 273.227 303.632 269.064C302.419 264.902 301.271 261.146 300.537 258.401C300.167 257.028 299.884 255.916 299.709 255.139C299.59 254.743 299.504 254.337 299.455 253.926V253.926Z" fill="#455A64"/>
<path d="M305.208 253.926C304.795 254.059 304.431 254.312 304.162 254.653C304.033 254.837 303.952 255.05 303.927 255.273C303.901 255.497 303.932 255.723 304.017 255.931C304.118 256.183 304.287 256.401 304.505 256.561C304.723 256.722 304.982 256.818 305.252 256.839C305.523 256.843 305.79 256.771 306.022 256.631C306.255 256.491 306.443 256.289 306.567 256.047C306.673 255.85 306.729 255.629 306.729 255.405C306.729 255.18 306.673 254.959 306.567 254.762C306.335 254.389 305.995 254.095 305.593 253.919C305.593 253.919 305.739 253.883 305.978 253.963C306.317 254.088 306.604 254.323 306.792 254.631C306.946 254.86 307.037 255.126 307.056 255.401C307.075 255.676 307.022 255.952 306.901 256.2C306.761 256.515 306.529 256.78 306.236 256.961C305.942 257.142 305.601 257.231 305.257 257.215C304.913 257.199 304.581 257.08 304.305 256.873C304.03 256.666 303.823 256.381 303.712 256.055C303.616 255.796 303.59 255.516 303.634 255.244C303.679 254.971 303.793 254.715 303.966 254.5C304.185 254.211 304.495 254.004 304.845 253.912C305.063 253.875 305.208 253.905 305.208 253.926Z" fill="#455A64"/>
<path d="M320.006 278.189C320.015 278.274 320.015 278.359 320.006 278.444C320.006 278.633 320.006 278.872 320.006 279.17C320.006 279.853 320.006 280.812 320.006 282.032C320.006 284.524 320.006 288.12 319.926 292.565C319.795 301.457 319.395 313.726 318.872 327.281C318.349 340.836 317.913 353.113 317.71 361.997C317.608 366.442 317.543 370.038 317.507 372.522C317.507 373.743 317.507 374.702 317.463 375.385C317.463 375.69 317.463 375.932 317.463 376.111C317.495 376.116 317.525 376.134 317.545 376.16C317.565 376.186 317.574 376.218 317.572 376.251C317.569 376.284 317.554 376.314 317.53 376.336C317.506 376.358 317.474 376.371 317.441 376.371C317.409 376.371 317.377 376.358 317.353 376.336C317.329 376.314 317.314 376.284 317.311 376.251C317.308 376.218 317.318 376.186 317.338 376.16C317.358 376.134 317.387 376.116 317.42 376.111C317.42 375.922 317.42 375.675 317.42 375.385C317.42 374.702 317.42 373.743 317.42 372.522C317.42 370.031 317.42 366.435 317.499 361.989C317.637 353.098 318.03 340.821 318.553 327.266C319.076 313.711 319.512 301.442 319.715 292.558C319.817 288.112 319.889 284.517 319.918 282.032C319.918 280.812 319.955 279.853 319.962 279.17C319.962 278.858 319.962 278.618 319.962 278.444C319.965 278.357 319.98 278.272 320.006 278.189V278.189Z" fill="#455A64"/>
<path d="M294.284 272.125C294.265 272.212 294.238 272.297 294.204 272.379L293.921 273.106C293.652 273.781 293.274 274.74 292.795 275.968C291.8 278.467 290.369 282.048 288.596 286.465C286.824 290.881 284.804 296.213 282.872 302.213C280.665 308.682 279.119 315.358 278.259 322.139C277.874 325.771 277.707 329.316 277.489 332.738C277.271 336.159 277.126 339.472 276.951 342.624C276.625 348.922 276.334 354.596 276.087 359.375C275.84 364.155 275.579 367.998 275.361 370.657C275.252 371.972 275.172 372.996 275.114 373.722C275.077 374.056 275.056 374.318 275.034 374.514C275.028 374.607 275.016 374.699 274.997 374.79C274.988 374.698 274.988 374.606 274.997 374.514C274.997 374.318 274.997 374.049 275.034 373.715C275.077 372.989 275.135 371.964 275.215 370.65C275.368 367.984 275.571 364.112 275.796 359.361C276.022 354.61 276.29 348.908 276.581 342.61C276.748 339.457 276.915 336.145 277.097 332.716C277.278 329.287 277.475 325.735 277.86 322.103C278.736 315.302 280.306 308.608 282.545 302.126C284.499 296.119 286.584 290.823 288.356 286.392C290.129 281.961 291.64 278.401 292.664 275.939C293.173 274.718 293.572 273.759 293.855 273.098L294.175 272.372C294.202 272.286 294.239 272.203 294.284 272.125Z" fill="#455A64"/>
<path d="M319.434 191.004C319.434 191.004 329.349 192.856 331.528 194.672C333.708 196.488 353.568 222.393 353.982 227.623C354.396 232.853 351.977 234.771 350.604 236.013C349.231 237.255 325.492 253.331 325.492 253.331L318.191 241.221L338.706 228.967L328.804 212.034L319.434 191.004Z" fill="#4285F2"/>
<path d="M345.329 224.36C343.942 224.569 342.605 225.032 341.385 225.726C340.232 226.523 339.233 227.522 338.436 228.675C338.528 228.256 338.714 227.863 338.98 227.527C339.56 226.673 340.312 225.949 341.187 225.403C342.063 224.856 343.043 224.498 344.065 224.353C344.482 224.258 344.914 224.26 345.329 224.36V224.36Z" fill="#4285F2"/>
<path d="M295.403 192.26L298.032 216.116L311.449 189.238L320.101 198.028C320.101 198.028 325.411 229.446 325.491 229.671C325.571 229.896 321.859 247.643 321.859 247.643L297.27 252.401L289.766 250.49L288.582 222.545L288.059 201.144L295.403 192.26Z" fill="white"/>
<path d="M292.214 193.278L285.829 194.731C284.976 194.928 284.183 195.33 283.519 195.901C278.071 200.564 266.288 210.429 266.288 210.429L268.468 192.922L257.121 191.869C257.121 191.869 253.721 213.938 254.07 219.742C254.484 226.483 260.528 228.139 269.325 224.515C274.762 222.333 280.024 219.739 285.066 216.756L292.214 193.278Z" fill="#4285F2"/>
<path d="M327.822 212.127L326.652 233.048L327.829 237.116C327.829 237.116 338.841 257.906 340.657 271.672L327.03 273.851C327.03 273.851 323.311 256.09 320.695 247.286C318.08 238.482 310.344 234.777 307.729 225.726C306.154 220.555 305.594 215.128 306.08 209.744C306.08 209.192 311.448 189.23 311.448 189.23L312.407 185.061L317.23 189.644L329.616 193.763L327.822 212.127Z" fill="#4285F2"/>
<g opacity="0.3">
<path opacity="0.3" d="M334.316 251.035C332.063 252.776 329.708 254.379 327.262 255.837C327.117 255.91 326.928 255.99 326.718 256.069C326.227 256.25 325.688 256.248 325.198 256.064C324.709 255.88 324.302 255.526 324.052 255.067C323.761 254.537 323.463 253.977 323.267 253.556C322.766 252.474 322.221 251.173 321.734 250.047L323.267 249.677L325.49 253.36L331.897 249.001L333.117 248.166L334.316 251.035Z" fill="black"/>
</g>
<path d="M295.519 189.906L292.541 193.023L285.4 195.529C285.4 195.529 283.656 216.595 284.601 221.084C285.516 225.399 287.259 230.644 287.405 236.84C287.55 243.037 280.475 275.784 280.475 275.784L289.032 279.031C289.032 279.031 293.39 241.119 292.541 232.852C291.691 224.586 293.899 207.922 293.899 207.922L295.519 189.906Z" fill="#4285F2"/>
<path d="M311.717 230.084C311.603 229.981 311.498 229.866 311.405 229.743C311.128 229.391 310.885 229.014 310.679 228.617C309.965 227.129 309.585 225.502 309.567 223.851C309.54 221.42 309.71 218.991 310.076 216.587C310.473 213.643 311.077 210.73 311.885 207.87C313.255 202.954 315.206 198.218 317.696 193.763L317.812 193.974L314.783 193.879H314.565L314.696 193.705L316.686 191.032L317.224 190.305C317.281 190.221 317.35 190.146 317.427 190.08C317.388 190.173 317.337 190.261 317.275 190.342L316.781 191.068L314.877 193.807L314.79 193.632L317.819 193.669H318.052L317.936 193.872C315.516 198.336 313.601 203.055 312.226 207.943C311.427 210.783 310.815 213.674 310.395 216.594C310.025 218.974 309.831 221.378 309.814 223.786C309.812 225.405 310.143 227.008 310.788 228.493C311.068 229.04 311.379 229.571 311.717 230.084V230.084Z" fill="#263238"/>
<path d="M320.101 210.77C318.967 211.151 317.787 211.376 316.592 211.438C315.411 211.617 314.211 211.632 313.025 211.481C314.191 211.259 315.371 211.119 316.556 211.06C317.729 210.876 318.914 210.778 320.101 210.77V210.77Z" fill="#263238"/>
<path d="M328.789 205.918C328.77 206.275 328.719 206.63 328.637 206.979C328.543 207.661 328.419 208.649 328.303 209.884C328.07 212.34 327.838 215.732 327.576 219.48L326.995 229.091C326.908 230.318 326.835 231.314 326.77 231.996C326.758 232.354 326.709 232.709 326.625 233.057C326.596 232.702 326.596 232.345 326.625 231.989C326.625 231.226 326.683 230.246 326.726 229.084C326.821 226.621 326.973 223.221 327.199 219.466C327.424 215.71 327.707 212.318 328.012 209.862C328.157 208.642 328.325 207.683 328.463 206.957C328.538 206.601 328.647 206.253 328.789 205.918V205.918Z" fill="#263238"/>
<path d="M344.647 229.665C344.611 229.774 343.274 229.346 341.56 229.222C339.845 229.099 338.465 229.317 338.443 229.222C339.447 228.849 340.527 228.727 341.589 228.866C342.658 228.883 343.707 229.157 344.647 229.665V229.665Z" fill="#263238"/>
<path d="M266.36 210.021C266.143 210.964 265.806 211.874 265.358 212.731C265.024 213.639 264.572 214.498 264.014 215.288C264.226 214.344 264.563 213.433 265.016 212.578C265.354 211.673 265.806 210.813 266.36 210.021V210.021Z" fill="#263238"/>
<path d="M284.174 203.041C284.275 203.041 284.443 207.153 284.537 212.23C284.631 217.308 284.631 221.427 284.537 221.427C284.443 221.427 284.268 217.315 284.166 212.238C284.065 207.16 284.072 203.048 284.174 203.041Z" fill="#263238"/>
<path d="M292.643 220.315C292.577 219.965 292.545 219.61 292.548 219.254C292.548 218.528 292.49 217.526 292.446 216.349C292.374 213.901 292.294 210.537 292.236 206.789C292.178 203.041 292.149 199.67 292.141 197.222C292.141 196.053 292.141 195.079 292.141 194.316C292.127 193.962 292.146 193.607 292.199 193.256C292.265 193.605 292.297 193.961 292.294 194.316C292.294 195.043 292.352 196.045 292.396 197.222C292.468 199.67 292.541 203.033 292.599 206.782C292.657 210.53 292.693 213.893 292.701 216.342C292.701 217.511 292.701 218.521 292.701 219.247C292.711 219.604 292.691 219.961 292.643 220.315V220.315Z" fill="#263238"/>
<path d="M346.42 239.02C346.298 239.133 346.167 239.235 346.027 239.325L344.865 240.161L340.507 243.219L325.6 253.512L325.441 253.628L325.339 253.461L322.07 248.042L318.046 241.345L317.951 241.185L318.104 241.09L332.821 232.373L337.136 229.86L338.298 229.199C338.43 229.117 338.568 229.046 338.712 228.988C338.593 229.091 338.464 229.181 338.327 229.257L337.201 229.983L332.945 232.584L318.285 241.41L318.351 241.156C319.622 243.27 320.988 245.514 322.39 247.846L325.651 253.265L325.382 253.207C331.354 249.154 336.591 245.594 340.361 243.037L344.792 240.073L345.991 239.289C346.127 239.189 346.27 239.099 346.42 239.02V239.02Z" fill="#263238"/>
<g opacity="0.3">
<path opacity="0.3" d="M310.723 228.531C310.5 225.407 310.797 222.267 311.602 219.24C313.479 210.748 316.566 202.57 320.769 194.956C320.281 194.687 319.721 194.576 319.167 194.638C318.612 194.7 318.091 194.933 317.675 195.305C316.86 196.068 316.229 197.007 315.83 198.05C312.623 204.899 310.597 212.24 309.837 219.763C309.649 221.208 309.613 222.669 309.728 224.122C309.873 225.647 309.873 227.245 310.817 228.444" fill="black"/>
</g>
<g opacity="0.3">
<path opacity="0.3" d="M284.151 204.566C281.892 208.489 282.19 213.211 284.347 217.192C284.347 212.833 284.347 209.019 284.086 204.625" fill="black"/>
</g>
<path d="M301.716 175.466C301.697 175.337 301.65 175.213 301.578 175.104C301.507 174.995 301.412 174.903 301.302 174.834C301.15 174.773 300.985 174.748 300.822 174.761C299.877 174.778 298.938 174.912 298.025 175.161L297.975 175.306C298.019 175.713 298.104 176.115 298.229 176.505C298.352 176.898 298.584 177.248 298.897 177.514C299.203 177.74 299.574 177.862 299.954 177.862C300.335 177.862 300.705 177.74 301.011 177.514C301.31 177.274 301.534 176.954 301.659 176.592C301.783 176.229 301.803 175.839 301.716 175.466V175.466Z" fill="#EB996E"/>
<path d="M298.912 177.689C299.306 177.724 299.702 177.7 300.089 177.617C300.489 177.494 300.836 177.238 301.069 176.89C301.209 176.686 301.304 176.456 301.349 176.213C301.394 175.971 301.388 175.721 301.331 175.481C301.287 175.254 301.157 175.054 300.968 174.922C300.755 174.852 300.526 174.852 300.314 174.922L299.006 175.169C298.604 175.276 298.188 175.322 297.771 175.307C298.141 175.114 298.538 174.98 298.948 174.907L300.241 174.58C300.53 174.476 300.846 174.476 301.135 174.58C301.278 174.666 301.401 174.781 301.498 174.917C301.594 175.054 301.661 175.208 301.694 175.372C301.766 175.664 301.772 175.968 301.713 176.263C301.654 176.558 301.531 176.837 301.353 177.079C301.054 177.458 300.628 177.716 300.154 177.805C299.951 177.88 299.735 177.908 299.52 177.887C299.305 177.867 299.097 177.8 298.912 177.689Z" fill="#263238"/>
<path d="M314.762 178.415C314.658 178.145 314.468 177.918 314.22 177.769C313.973 177.62 313.683 177.558 313.396 177.594V177.594C313.234 177.612 313.077 177.666 312.938 177.751C312.799 177.837 312.68 177.951 312.59 178.088C312.447 178.325 312.383 178.601 312.408 178.877C312.432 179.152 312.545 179.413 312.728 179.62C312.92 179.819 313.172 179.948 313.445 179.989C313.718 180.03 313.997 179.979 314.239 179.846C314.474 179.701 314.654 179.481 314.749 179.221C314.844 178.961 314.848 178.677 314.762 178.415V178.415Z" fill="#FAFAFA"/>
<path d="M318.51 241.969L310.106 234.523L303.008 235.134C303.008 235.134 303.255 236.296 304.236 236.478C305.217 236.659 308.762 236.724 308.762 236.724L310.425 238.373L306.19 237.952L300.807 241.127C300.807 241.127 300.684 242.107 302.093 241.853C303.492 241.513 304.862 241.063 306.19 240.509L309.321 240.691L305.907 241.185L301.483 244.301C301.777 244.607 302.149 244.826 302.559 244.935C302.969 245.044 303.401 245.038 303.808 244.919C305.217 244.49 306.924 243.814 306.924 243.814L310.781 243.444L306.924 244.425L304.055 247.977C304.326 248.166 304.65 248.268 304.981 248.268C305.312 248.268 305.635 248.166 305.907 247.977C306.475 247.578 307.02 247.149 307.541 246.691L311.82 246.502C311.82 246.502 316.549 249.931 318.191 250.301C319.832 250.672 323.276 249.669 323.276 249.669L318.51 241.969Z" fill="#FFBE9D"/>
<path d="M485.094 277.006H354.854V349.83H485.094V277.006Z" fill="#FAFAFA"/>
<path d="M485.094 349.83C485.094 349.83 485.094 349.38 485.094 348.523C485.094 347.666 485.094 346.387 485.094 344.724C485.094 341.382 485.094 336.471 485.094 330.159C485.094 317.555 485.051 299.366 485.014 277.007L485.16 277.152L354.927 277.195L355.116 277.007C355.116 302.758 355.116 327.391 355.116 349.83L354.941 349.656L448.65 349.743L475.527 349.787H482.704H484.557H485.189H484.579H482.741H475.607L448.73 349.838L354.941 349.925H354.76V349.743C354.76 327.304 354.76 302.671 354.76 276.919V276.73H354.956L485.189 276.774H485.334V276.919C485.334 299.315 485.276 317.534 485.254 330.166C485.254 336.457 485.254 341.36 485.254 344.694C485.254 346.351 485.254 347.6 485.254 348.472C485.254 349.344 485.094 349.83 485.094 349.83Z" fill="#263238"/>
<path d="M389.184 294.361H370.77V312.776H389.184V294.361Z" fill="#455A64"/>
<path d="M414.471 296.917C414.471 297.026 410.17 297.114 404.875 297.114C399.579 297.114 395.271 297.026 395.271 296.917C395.271 296.808 399.572 296.729 404.875 296.729C410.178 296.729 414.471 296.845 414.471 296.917Z" fill="#4285F2"/>
<path d="M475.774 303.572C475.774 303.673 457.745 303.761 435.516 303.761C413.288 303.761 395.258 303.673 395.258 303.572C395.258 303.47 413.28 303.383 435.516 303.383C457.752 303.383 475.774 303.455 475.774 303.572Z" fill="#263238"/>
<path d="M448.698 310.996C448.698 311.097 436.85 311.184 422.249 311.184C407.648 311.184 395.793 311.097 395.793 310.996C395.793 310.894 407.634 310.807 422.249 310.807C436.865 310.807 448.698 310.894 448.698 310.996Z" fill="#263238"/>
<path d="M465.813 323.113H376.848C372.134 323.113 368.312 326.935 368.312 331.649C368.312 336.363 372.134 340.184 376.848 340.184H465.813C470.527 340.184 474.348 336.363 474.348 331.649C474.348 326.935 470.527 323.113 465.813 323.113Z" fill="#4285F2"/>
<path d="M404.976 332.839H402.796L402.382 333.848H401.264L403.363 329.148H404.438L406.537 333.848H405.397L404.976 332.839ZM404.634 332.018L403.908 330.216L403.181 332.018H404.634Z" fill="white"/>
<path d="M411.12 330.856C411.12 331.902 410.336 332.555 409.079 332.555H408.135V333.848H407.045V329.148H409.079C410.314 329.148 411.12 329.795 411.12 330.856ZM410.023 330.856C410.023 330.34 409.682 330.035 409.021 330.035H408.135V331.669H409.021C409.667 331.669 410.001 331.364 410.001 330.856H410.023Z" fill="white"/>
<path d="M415.952 330.856C415.952 331.902 415.167 332.555 413.911 332.555H412.966V333.848H411.848V329.148H413.882C415.167 329.148 415.952 329.795 415.952 330.856ZM414.848 330.856C414.848 330.34 414.514 330.035 413.853 330.035H412.966V331.669H413.853C414.514 331.669 414.848 331.364 414.848 330.856Z" fill="white"/>
<path d="M416.729 329.148H417.811V332.962H420.172V333.848H416.729V329.148Z" fill="white"/>
<path d="M422.554 332.185V333.848H421.464V332.17L419.648 329.148H420.803L422.06 331.233L423.317 329.148H424.385L422.554 332.185Z" fill="white"/>
<path d="M431.054 329.148V333.848H430.161L427.829 330.994V333.848H426.754V329.148H427.655L430.008 332.003V329.148H431.054Z" fill="white"/>
<path d="M431.875 331.494C431.846 330.978 431.972 330.466 432.237 330.024C432.503 329.581 432.894 329.228 433.362 329.01C433.83 328.792 434.353 328.72 434.862 328.803C435.371 328.885 435.844 329.119 436.22 329.473C436.595 329.827 436.856 330.286 436.967 330.789C437.079 331.293 437.037 331.819 436.847 332.299C436.657 332.778 436.327 333.19 435.901 333.48C435.474 333.771 434.97 333.926 434.454 333.927C434.122 333.947 433.79 333.899 433.478 333.785C433.166 333.672 432.88 333.496 432.639 333.268C432.397 333.04 432.205 332.765 432.073 332.46C431.942 332.155 431.875 331.826 431.875 331.494V331.494ZM435.921 331.494C435.91 331.209 435.815 330.934 435.649 330.703C435.482 330.472 435.252 330.295 434.985 330.193C434.719 330.092 434.429 330.072 434.151 330.134C433.873 330.197 433.62 330.339 433.422 330.545C433.225 330.75 433.092 331.009 433.041 331.289C432.989 331.569 433.021 331.858 433.133 332.12C433.244 332.382 433.43 332.606 433.668 332.763C433.905 332.92 434.184 333.004 434.469 333.005C434.664 333.005 434.858 332.965 435.038 332.889C435.218 332.812 435.381 332.7 435.517 332.559C435.653 332.418 435.758 332.25 435.828 332.067C435.897 331.884 435.929 331.689 435.921 331.494V331.494Z" fill="white"/>
<path d="M444.799 329.148L443.259 333.848H442.09L441.058 330.667L439.99 333.848H438.828L437.273 329.148H438.399L439.467 332.454L440.571 329.148H441.581L442.656 332.475L443.746 329.148H444.799Z" fill="white"/>
<path d="M111.218 226.402H14.8145V280.303H111.218V226.402Z" fill="#FAFAFA"/>
<path d="M111.218 280.313C111.218 280.313 111.218 279.979 111.218 279.339C111.218 278.7 111.218 277.756 111.218 276.521C111.218 274.044 111.218 270.412 111.182 265.741C111.182 256.406 111.131 242.953 111.102 226.405L111.247 226.55L14.8513 226.594L15.0402 226.405C15.0402 245.466 15.0402 263.699 15.0402 280.313L14.8658 280.138L84.1809 280.218L104.107 280.269H109.424H110.797H111.269H110.819H109.46H104.187L84.3044 280.313L14.8658 280.4H14.6406V280.226C14.6406 263.612 14.6406 245.357 14.6406 226.318V226.129H14.8368L111.233 226.18H111.378V226.318C111.378 242.902 111.32 256.392 111.298 265.741C111.298 270.397 111.298 274.022 111.262 276.492C111.262 277.712 111.262 278.671 111.262 279.281C111.262 279.891 111.218 280.313 111.218 280.313Z" fill="#263238"/>
<path d="M40.2253 239.254H26.5977V252.882H40.2253V239.254Z" fill="#455A64"/>
<path d="M58.9451 241.171C56.5819 241.358 54.2105 241.421 51.8407 241.36C49.4709 241.421 47.0995 241.358 44.7363 241.171C47.0993 240.98 49.4709 240.917 51.8407 240.982C54.2105 240.917 56.5822 240.98 58.9451 241.171V241.171Z" fill="#4285F2"/>
<path d="M104.324 246.068C104.324 246.177 90.9873 246.257 74.5411 246.257C58.0949 246.257 44.7578 246.177 44.7578 246.068C44.7578 245.959 58.0949 245.879 74.5411 245.879C90.9873 245.879 104.324 245.966 104.324 246.068Z" fill="#263238"/>
<path d="M84.2752 251.568C84.2752 251.669 75.5146 251.757 64.6982 251.757C53.8817 251.757 45.1211 251.669 45.1211 251.568C45.1211 251.466 53.8817 251.379 64.7345 251.379C75.5872 251.379 84.2752 251.459 84.2752 251.568Z" fill="#263238"/>
<path d="M96.944 260.531H31.1011C27.6107 260.531 24.7812 263.359 24.7812 266.847C24.7812 270.336 27.6107 273.164 31.1011 273.164H96.944C100.434 273.164 103.264 270.336 103.264 266.847C103.264 263.359 100.434 260.531 96.944 260.531Z" fill="#4285F2"/>
<path d="M51.9192 267.737H50.2992L49.9869 268.463H49.166L50.7133 264.977H51.5414L53.1032 268.463H52.2533L51.9192 267.737ZM51.6649 267.127L51.1128 265.79L50.5607 267.127H51.6649Z" fill="white"/>
<path d="M56.4536 266.262C56.4536 267.039 55.8724 267.519 54.9426 267.519H54.2162V268.485H53.4316V264.998H54.9426C55.9015 264.998 56.4536 265.477 56.4536 266.262ZM55.64 266.262C55.64 265.877 55.3857 265.652 54.9135 265.652H54.2525V266.865H54.9135C55.3857 266.865 55.64 266.64 55.64 266.262Z" fill="white"/>
<path d="M60.0418 266.262C60.0418 267.039 59.4606 267.519 58.5308 267.519H57.8044V268.485H56.998V264.998H58.5017C59.4606 264.998 60.0418 265.477 60.0418 266.262ZM59.2282 266.262C59.2282 265.877 58.9812 265.652 58.5017 265.652H57.848V266.865H58.5017C58.9812 266.865 59.2282 266.64 59.2282 266.262Z" fill="white"/>
<path d="M60.6152 264.998H61.4216V267.86H63.165V268.521H60.6152V264.998Z" fill="white"/>
<path d="M64.9295 267.25V268.485H64.1232V267.235L62.7793 264.998H63.6292L64.5663 266.545L65.4961 264.998H66.2879L64.9295 267.25Z" fill="white"/>
<path d="M71.2222 264.998V268.485H70.5611L68.825 266.364V268.485H68.0332V264.998H68.6942L70.4304 267.134V265.02L71.2222 264.998Z" fill="white"/>
<path d="M71.8328 266.741C71.8125 266.361 71.9066 265.984 72.1029 265.658C72.2993 265.332 72.589 265.072 72.9345 264.912C73.28 264.752 73.6654 264.7 74.041 264.761C74.4167 264.823 74.7652 264.996 75.0416 265.257C75.3181 265.519 75.5097 265.858 75.5918 266.229C75.6738 266.601 75.6426 266.989 75.502 267.342C75.3614 267.696 75.118 268 74.8032 268.214C74.4884 268.428 74.1167 268.542 73.736 268.543C73.491 268.557 73.2458 268.52 73.0153 268.436C72.7849 268.352 72.5741 268.221 72.3959 268.053C72.2177 267.884 72.0758 267.68 71.979 267.455C71.8822 267.23 71.8324 266.987 71.8328 266.741V266.741ZM74.8257 266.741C74.8214 266.527 74.7538 266.318 74.6315 266.142C74.5092 265.966 74.3376 265.829 74.1381 265.75C73.9387 265.671 73.7203 265.653 73.5104 265.697C73.3005 265.742 73.1084 265.847 72.9582 266C72.8079 266.153 72.7063 266.348 72.666 266.558C72.6257 266.769 72.6485 266.987 72.7316 267.185C72.8147 267.383 72.9543 267.552 73.133 267.67C73.3117 267.789 73.5215 267.853 73.736 267.853C73.8818 267.856 74.0267 267.829 74.1618 267.774C74.2968 267.719 74.4191 267.637 74.5212 267.533C74.6233 267.429 74.703 267.305 74.7554 267.168C74.8077 267.032 74.8316 266.887 74.8257 266.741V266.741Z" fill="white"/>
<path d="M81.3992 264.998L80.2587 268.485H79.3943L78.6243 266.124L77.8325 268.485H76.9681L75.8203 264.998H76.6557L77.4402 267.446L78.2611 264.998H78.9875L79.7866 267.468L80.6002 264.998H81.3992Z" fill="white"/>
<path d="M462.058 132.238H356.291V191.376H462.058V132.238Z" fill="#FAFAFA"/>
<path d="M462.058 191.375C462.058 191.375 462.058 191.012 462.058 190.308C462.058 189.603 462.058 188.571 462.058 187.22C462.058 184.503 462.058 180.515 462.022 175.394C462.022 165.159 461.979 150.391 461.95 132.237L462.095 132.383L356.335 132.426L356.524 132.237C356.524 153.151 356.524 173.15 356.524 191.375L356.35 191.201L432.406 191.281L454.264 191.332H460.075H461.579H460.126H454.315L432.522 191.383L356.292 191.586H356.117V191.412C356.117 173.186 356.117 153.187 356.117 132.274V132.02H356.313L462.073 132.063H462.218V132.208C462.182 150.369 462.16 165.195 462.138 175.452C462.138 180.537 462.138 184.54 462.102 187.249C462.102 188.586 462.102 189.61 462.102 190.315C462.102 191.019 462.058 191.375 462.058 191.375Z" fill="#263238"/>
<path d="M384.163 146.33H369.213V161.28H384.163V146.33Z" fill="#455A64"/>
<path d="M404.706 148.436C404.706 148.538 401.212 148.625 396.912 148.625C392.611 148.625 389.117 148.538 389.117 148.436C394.31 148.175 399.513 148.175 404.706 148.436V148.436Z" fill="#4285F2"/>
<path d="M454.495 153.812C454.495 153.921 439.858 154.008 421.806 154.008C403.755 154.008 389.117 153.921 389.117 153.812C389.117 153.703 403.747 153.623 421.806 153.623C439.865 153.623 454.495 153.703 454.495 153.812Z" fill="#263238"/>
<path d="M432.5 159.841C432.5 159.943 422.882 160.03 411.019 160.03C399.157 160.03 389.539 159.943 389.539 159.841C389.539 159.74 399.157 159.652 411.019 159.652C422.882 159.652 432.5 159.732 432.5 159.841Z" fill="#263238"/>
<path d="M446.395 183.538H374.153C372.315 183.538 370.552 182.808 369.252 181.508C367.953 180.208 367.223 178.446 367.223 176.608C367.223 174.77 367.953 173.007 369.252 171.708C370.552 170.408 372.315 169.678 374.153 169.678H446.395C448.233 169.678 449.996 170.408 451.296 171.708C452.595 173.007 453.325 174.77 453.325 176.608C453.325 178.446 452.595 180.208 451.296 181.508C449.996 182.808 448.233 183.538 446.395 183.538V183.538Z" fill="#4285F2"/>
<path d="M396.991 177.58H395.219L394.885 178.394H393.977L395.676 174.58H396.548L398.255 178.394H397.318L396.991 177.58ZM396.715 176.905L396.112 175.452L395.502 176.905H396.715Z" fill="white"/>
<path d="M401.969 175.968C401.969 176.817 401.329 177.34 400.312 177.34H399.542V178.394H398.656V174.58H400.312C401.329 174.58 401.969 175.11 401.969 175.968ZM401.075 175.968C401.075 175.546 400.799 175.299 400.262 175.299H399.535V176.621H400.262C400.799 176.621 401.075 176.382 401.075 175.968Z" fill="white"/>
<path d="M405.907 175.968C405.907 176.817 405.275 177.34 404.251 177.34H403.481V178.394H402.602V174.58H404.251C405.311 174.58 405.907 175.11 405.907 175.968ZM405.013 175.968C405.013 175.546 404.744 175.299 404.2 175.299H403.473V176.621H404.2C404.744 176.621 405.013 176.382 405.013 175.968Z" fill="white"/>
<path d="M406.537 174.58H407.423V177.675H409.334V178.401H406.537V174.58Z" fill="white"/>
<path d="M411.275 177.057V178.408H410.396V177.057L408.943 174.602H409.88L410.897 176.294L411.922 174.602H412.786L411.275 177.057Z" fill="white"/>
<path d="M418.175 174.58V178.394H417.449L415.546 176.077V178.394H414.674V174.58H415.4L417.296 176.897V174.58H418.175Z" fill="white"/>
<path d="M418.843 176.491C418.819 176.072 418.92 175.656 419.135 175.296C419.35 174.936 419.667 174.649 420.047 174.472C420.427 174.294 420.852 174.235 421.265 174.302C421.679 174.369 422.063 174.559 422.368 174.846C422.673 175.134 422.884 175.507 422.975 175.916C423.065 176.326 423.031 176.753 422.875 177.142C422.72 177.531 422.452 177.865 422.104 178.1C421.757 178.335 421.347 178.46 420.928 178.46C420.66 178.475 420.392 178.436 420.139 178.344C419.887 178.253 419.656 178.11 419.461 177.926C419.265 177.741 419.11 177.519 419.004 177.272C418.898 177.025 418.843 176.76 418.843 176.491V176.491ZM422.127 176.491C422.123 176.255 422.049 176.025 421.914 175.831C421.78 175.637 421.591 175.487 421.372 175.399C421.153 175.312 420.912 175.291 420.681 175.34C420.45 175.389 420.239 175.504 420.073 175.673C419.908 175.841 419.796 176.055 419.751 176.287C419.707 176.519 419.732 176.759 419.823 176.976C419.915 177.194 420.068 177.38 420.265 177.511C420.461 177.642 420.692 177.711 420.928 177.711C421.089 177.715 421.248 177.687 421.397 177.626C421.546 177.566 421.68 177.476 421.793 177.362C421.905 177.247 421.993 177.111 422.05 176.961C422.108 176.811 422.134 176.651 422.127 176.491V176.491Z" fill="white"/>
<path d="M429.332 174.58L428.083 178.394H427.102L426.267 175.808L425.395 178.394H424.451L423.201 174.58H424.116L424.974 177.261L425.874 174.58H426.695L427.567 177.282L428.453 174.58H429.332Z" fill="white"/>
<path d="M148.666 190.473L151.378 188.542L151.908 188.806L152.744 187.221C153.138 186.462 153.675 185.879 154.355 185.473C155.034 185.053 155.768 184.843 156.557 184.843C157.25 184.843 157.923 185.005 158.575 185.33C159.35 185.737 159.955 186.353 160.39 187.18C160.839 188.007 161.063 188.935 161.063 189.965C161.063 191.144 160.778 192.262 160.207 193.319C159.853 193.996 159.391 194.538 158.82 194.945C158.263 195.351 157.644 195.555 156.965 195.555C156.435 195.555 155.884 195.412 155.313 195.128L152.622 193.786L153.07 201.531L149.155 201.693L148.666 190.473ZM157.271 191.469C157.583 190.873 157.739 190.371 157.739 189.965C157.739 189.531 157.549 189.206 157.169 188.989C157.019 188.894 156.856 188.847 156.679 188.847C156.231 188.847 155.83 189.172 155.476 189.823L155.17 190.412L157.271 191.469Z" fill="#263238"/>
<path d="M163.17 180.228L167.166 180.025L167.737 195.311L163.741 195.494L163.17 180.228Z" fill="#263238"/>
<path d="M173.829 195.372C173.081 195.372 172.401 195.209 171.79 194.884C171.178 194.545 170.696 194.098 170.342 193.542C170.002 192.973 169.832 192.357 169.832 191.693V190.006H173.054V190.636C173.054 190.744 173.068 190.819 173.095 190.859C173.136 190.886 173.21 190.9 173.319 190.9H176.031C176.194 190.9 176.303 190.88 176.357 190.839L176.337 190.737C175.575 187.702 175.032 185.588 174.706 184.395L178.315 183.379L178.947 185.92L179.905 189.701C179.986 190.012 180.061 190.27 180.129 190.473C180.197 190.663 180.258 190.785 180.313 190.839C180.367 190.88 180.449 190.9 180.557 190.9H181.557L181.801 193.136L181.557 195.372H180.557C179.728 195.372 179.001 195.101 178.376 194.559C177.614 195.101 176.711 195.372 175.664 195.372H173.829Z" fill="#263238"/>
<path d="M181.358 190.9H182.052C182.949 190.886 183.887 190.825 184.865 190.717C185.844 190.609 186.762 190.459 187.618 190.27L190.819 189.599L187.903 188.42C187.645 188.298 187.394 188.237 187.149 188.237C186.619 188.237 186.211 188.474 185.926 188.949L185.599 189.518L182.561 187.627L182.99 186.855C183.506 185.947 184.131 185.256 184.865 184.782C185.613 184.307 186.415 184.07 187.271 184.07C188.141 184.07 188.998 184.3 189.84 184.761L195.142 187.566L194.775 190.859C194.911 190.886 195.02 190.9 195.101 190.9H196.569L196.834 193.136L196.569 195.372H195.101C194.408 195.372 193.769 195.196 193.184 194.843C192.614 194.477 192.138 193.99 191.757 193.38L189.392 194.172C188.25 194.579 187.013 194.884 185.681 195.087C184.349 195.277 183.132 195.372 182.031 195.372H181.358V190.9ZM185.436 179.334H188.739V182.627H185.436V179.334Z" fill="#263238"/>
<path d="M196.392 190.9H200.062C200.443 190.9 200.68 190.866 200.776 190.798C200.871 190.717 200.905 190.568 200.878 190.351L200.653 187.912L204.323 187.546L204.548 190.046C204.561 190.195 204.568 190.426 204.568 190.737C204.65 190.805 204.758 190.852 204.894 190.88C205.03 190.893 205.241 190.9 205.526 190.9L205.771 193.136L205.526 195.372C204.425 195.372 203.508 195.087 202.774 194.518C202.04 195.087 201.163 195.372 200.144 195.372H196.392V190.9ZM196.82 182.505H202.855V185.513H196.82V182.505Z" fill="#263238"/>
<path d="M216.853 195.372C215.819 195.372 214.956 195.067 214.263 194.457C213.515 195.067 212.618 195.372 211.572 195.372C210.606 195.372 209.764 195.06 209.043 194.437C208.268 195.06 207.371 195.372 206.352 195.372H205.332V190.9H206.291C206.671 190.9 206.923 190.846 207.045 190.737C207.167 190.629 207.229 190.439 207.229 190.168V187.709H210.695V190.168C210.695 190.426 210.756 190.615 210.878 190.737C211.001 190.859 211.232 190.92 211.572 190.92C211.966 190.92 212.217 190.873 212.326 190.778C212.448 190.67 212.509 190.466 212.509 190.168V187.709H215.976V190.168C215.976 190.453 216.037 190.649 216.159 190.758C216.282 190.866 216.513 190.92 216.853 190.92C217.192 190.92 217.437 190.873 217.587 190.778C217.736 190.67 217.811 190.487 217.811 190.229C217.811 190.094 217.777 189.877 217.709 189.579L216.893 186.53L220.462 185.534L221.359 188.908C221.508 189.423 221.583 189.978 221.583 190.575C221.583 191.469 221.386 192.282 220.992 193.014C220.597 193.746 220.04 194.322 219.32 194.742C218.599 195.162 217.777 195.372 216.853 195.372Z" fill="#263238"/>
<path d="M223.702 180.228L227.699 180.025L228.27 195.311L224.273 195.494L223.702 180.228Z" fill="#263238"/>
<path d="M176.007 225.679C174.851 225.679 173.907 225.333 173.172 224.642C172.833 225.022 172.445 225.32 172.01 225.537C171.575 225.754 171.12 225.862 170.644 225.862C170.114 225.862 169.563 225.72 168.993 225.435L166.301 224.094L166.75 231.838L162.835 232.001L162.345 220.78L165.057 218.849L165.587 219.114L166.423 217.528C166.818 216.769 167.355 216.186 168.034 215.78C168.714 215.36 169.448 215.15 170.236 215.15C170.93 215.15 171.602 215.312 172.255 215.638C173.03 216.044 173.635 216.668 174.07 217.508C174.518 218.334 174.742 219.263 174.742 220.292C174.742 220.563 174.736 220.767 174.722 220.902C175.089 221.106 175.517 221.207 176.007 221.207L176.272 223.443L176.007 225.679ZM170.95 221.776C171.263 221.18 171.419 220.679 171.419 220.272C171.419 219.838 171.229 219.513 170.848 219.296C170.699 219.202 170.535 219.154 170.359 219.154C169.91 219.154 169.509 219.479 169.156 220.13L168.85 220.719L170.95 221.776Z" fill="#263238"/>
<path d="M175.823 221.207H179.493C179.874 221.207 180.111 221.173 180.207 221.106C180.302 221.024 180.336 220.875 180.309 220.658L180.084 218.219L183.754 217.853L183.979 220.353C183.992 220.502 183.999 220.733 183.999 221.045C184.081 221.112 184.189 221.16 184.325 221.187C184.461 221.2 184.672 221.207 184.957 221.207L185.202 223.443L184.957 225.679C183.856 225.679 182.939 225.394 182.205 224.825C181.471 225.394 180.594 225.679 179.575 225.679H175.823V221.207ZM175.007 227.204H181.022V230.232H175.007V227.204Z" fill="#263238"/>
<path d="M184.763 221.207H186.17C186.551 221.207 186.789 221.173 186.884 221.106C186.979 221.024 187.013 220.875 186.986 220.658L186.761 218.219L190.432 217.853L190.656 220.353C190.67 220.502 190.676 220.726 190.676 221.024C190.758 221.106 190.86 221.16 190.982 221.187C191.118 221.2 191.336 221.207 191.635 221.207L191.879 223.443L191.635 225.679C190.534 225.679 189.616 225.394 188.882 224.825C188.148 225.394 187.271 225.679 186.252 225.679H184.763V221.207ZM186.313 212.65H189.616V215.943H186.313V212.65Z" fill="#263238"/>
<path d="M191.454 221.207H195.878C196.137 221.207 196.286 221.187 196.327 221.146C196.354 221.119 196.368 221.085 196.368 221.045C196.368 220.95 196.306 220.814 196.184 220.638L192.045 214.804L192.901 211.572L200.507 208.788L201.893 212.934L196.857 214.764L199.406 218.585C200.126 219.656 200.486 220.753 200.486 221.878C200.486 222.718 200.276 223.443 199.854 224.053C199.093 225.137 197.938 225.679 196.388 225.679H191.454V221.207Z" fill="#263238"/>
<path d="M211.342 230.944C210.595 231.106 209.881 231.188 209.201 231.188C207.937 231.188 206.843 230.91 205.918 230.354C205.008 229.799 204.308 229.013 203.818 227.996C203.343 226.98 203.105 225.794 203.105 224.439C203.105 222.813 203.445 221.085 204.124 219.256L207.652 220.658C207.162 222.081 206.918 223.247 206.918 224.155C206.918 225.835 207.726 226.675 209.344 226.675C209.738 226.675 210.105 226.641 210.445 226.573C211.437 226.397 212.185 226.235 212.688 226.086C213.204 225.95 213.558 225.808 213.748 225.659C213.952 225.51 214.047 225.327 214.034 225.11L210.955 224.216L212.158 220.049C214.074 220.55 215.359 220.868 216.011 221.004C216.677 221.139 217.303 221.207 217.887 221.207L218.152 223.443L217.887 225.679H217.5C217.473 226.668 217.255 227.481 216.847 228.118C216.453 228.769 215.814 229.311 214.931 229.744C214.061 230.192 212.865 230.591 211.342 230.944Z" fill="#263238"/>
<path d="M216.901 221.207H217.187C217.893 221.207 218.369 220.97 218.614 220.496L220.245 217.365C220.626 216.62 221.163 216.051 221.856 215.658C222.563 215.251 223.324 215.048 224.139 215.048C224.901 215.048 225.601 215.218 226.24 215.556C227.028 215.963 227.626 216.539 228.034 217.284C228.455 218.016 228.666 218.856 228.666 219.805C228.666 220.956 228.367 222.169 227.769 223.443C227.429 224.161 226.967 224.737 226.382 225.171C225.798 225.591 225.159 225.801 224.466 225.801C223.922 225.801 223.365 225.659 222.794 225.374L220.49 224.216C219.552 225.191 218.471 225.679 217.248 225.679H216.901V221.207ZM224.833 221.593L225.139 221.004C225.275 220.719 225.342 220.442 225.342 220.17C225.342 219.696 225.139 219.351 224.731 219.134C224.568 219.053 224.398 219.012 224.221 219.012C223.99 219.012 223.772 219.08 223.569 219.215C223.365 219.351 223.195 219.547 223.059 219.805L222.671 220.536L224.833 221.593Z" fill="#263238"/>
<path d="M171.846 285.342C172.488 285.212 172.941 285.111 173.206 285.038C173.477 284.97 173.671 284.897 173.789 284.819C173.907 284.745 173.971 284.641 173.983 284.506H173.109C172.756 284.506 172.444 284.433 172.173 284.287C171.908 284.135 171.702 283.921 171.555 283.646C171.408 283.37 171.334 283.049 171.334 282.684C171.334 282.34 171.413 282.02 171.572 281.722C171.731 281.418 171.949 281.176 172.226 280.996C172.508 280.816 172.823 280.726 173.171 280.726C173.506 280.726 173.809 280.813 174.08 280.987C174.357 281.162 174.581 281.404 174.751 281.713C174.928 282.017 175.04 282.363 175.087 282.751L175.131 283.148H175.626L175.705 283.831L175.626 284.506H175.264C175.264 284.94 175.158 285.286 174.946 285.544C174.734 285.803 174.407 286.014 173.965 286.177C173.53 286.34 172.909 286.504 172.102 286.667L171.846 285.342ZM172.606 282.709C172.606 282.872 172.641 282.987 172.712 283.055C172.782 283.117 172.915 283.148 173.109 283.148H173.851L173.824 282.895C173.795 282.624 173.721 282.422 173.603 282.287C173.492 282.152 173.344 282.084 173.162 282.084C172.991 282.084 172.856 282.143 172.756 282.262C172.656 282.38 172.606 282.529 172.606 282.709Z" fill="#263238"/>
<path d="M175.539 283.148H175.751C176.275 283.148 176.734 283.136 177.128 283.114C177.523 283.086 177.9 283.03 178.259 282.945L179.751 282.608L178.471 282.017C178.353 281.961 178.22 281.932 178.073 281.932C177.932 281.932 177.802 281.963 177.685 282.025C177.567 282.087 177.473 282.18 177.402 282.304L177.252 282.565L176.148 281.899L176.325 281.603C176.519 281.266 176.766 281.007 177.067 280.827C177.373 280.647 177.699 280.557 178.047 280.557C178.412 280.557 178.756 280.647 179.08 280.827L181.305 282.042L181.129 283.603L178.568 284.253C178.138 284.36 177.694 284.43 177.234 284.464C176.775 284.492 176.278 284.506 175.742 284.506H175.539V283.148ZM177.799 285.131H179.053V286.321H177.799V285.131Z" fill="#263238"/>
<path d="M180.921 285.35L181.53 285.19C181.919 285.083 182.184 284.979 182.325 284.878C182.472 284.776 182.546 284.627 182.546 284.43C182.546 284.397 182.54 284.335 182.528 284.245L182.175 281.823L183.42 281.646L183.676 283.401L183.773 284.093C183.797 284.233 183.809 284.383 183.809 284.54C183.809 285.063 183.653 285.474 183.341 285.772C183.029 286.076 182.537 286.318 181.866 286.498L181.257 286.658L180.921 285.35Z" fill="#263238"/>
<path d="M186.498 284.506C186.063 284.506 185.712 284.442 185.448 284.312C185.189 284.177 184.994 283.966 184.865 283.679C184.741 283.392 184.668 283.004 184.644 282.515L184.485 278.633L185.757 278.565L185.916 282.515C185.927 282.74 185.942 282.892 185.96 282.97C185.977 283.044 186.022 283.091 186.092 283.114C186.163 283.136 186.298 283.148 186.498 283.148H186.587L186.666 283.831L186.587 284.506H186.498Z" fill="#263238"/>
<path d="M186.499 283.148H188.469C188.569 283.148 188.639 283.131 188.68 283.097C188.728 283.052 188.751 283.001 188.751 282.945C188.751 282.889 188.73 282.833 188.689 282.776L186.747 280.152L187.029 279.122L190.226 278L190.667 279.274L188.327 280.093L189.643 281.958C189.92 282.352 190.058 282.745 190.058 283.139C190.058 283.443 189.967 283.713 189.784 283.949C189.649 284.124 189.466 284.262 189.237 284.363C189.013 284.459 188.751 284.506 188.451 284.506H186.499V283.148Z" fill="#263238"/>
</svg>
