<svg width="200" height="172" viewBox="0 0 200 172" fill="none" xmlns="http://www.w3.org/2000/svg">
<path fill-rule="evenodd" clip-rule="evenodd" d="M99.1222 171.092C146.833 171.092 185.752 169.221 185.752 166.955C185.752 164.64 146.833 162.769 99.1222 162.769C51.4424 162.769 12.5226 164.64 12.5226 166.955C12.5226 169.221 51.4424 171.092 99.1222 171.092Z" fill="#DFE6FF"/>
<path fill-rule="evenodd" clip-rule="evenodd" d="M173.515 40.5856C161.483 15.9946 126.931 -0.748945 86.8347 1.03799C37.6675 3.25238 -1.20012 32.4663 0.0283358 66.3031C0.626722 82.8136 10.6429 97.3814 26.486 107.715C38.518 132.307 73.0704 149.05 113.167 147.263C162.333 145.048 201.169 115.835 199.973 81.9978C199.374 65.4485 189.358 50.9192 173.515 40.5856L63.669 38.4118Z" fill="#D5F0FF"/>
<path fill-rule="evenodd" clip-rule="evenodd" d="M47.2063 59.6079H153.307C154.746 59.6079 155.914 60.7753 155.914 62.2142V121.889C155.914 123.301 154.746 124.469 153.307 124.469H47.2063C45.7945 124.469 44.6271 123.301 44.6271 121.889V62.2142C44.6271 60.7753 45.7945 59.6079 47.2063 59.6079Z" fill="#84B2FE"/>
<path fill-rule="evenodd" clip-rule="evenodd" d="M48.388 48.067H78.3884L86.2347 55.3161H147.267C149.141 55.3161 150.688 56.9722 150.688 58.9812V74.4019C150.688 76.4115 149.141 78.0677 147.267 78.0677H83.2755C81.4021 78.0677 79.8545 76.4115 79.8545 74.4019V67.832H48.388C46.7047 67.832 45.3201 66.5289 45.3201 64.9813V50.8906C45.3201 49.3431 46.7047 48.067 48.388 48.067Z" fill="#FEB542"/>
<path fill-rule="evenodd" clip-rule="evenodd" d="M146.006 124.989L146.596 123.344L145.247 122.923C145.036 122.29 145.332 121.447 144.572 121.068C143.877 121.11 144.741 122.143 144.552 122.712C143.434 122.564 143.054 121.215 142.148 121.552C141.01 121.89 140.525 123.091 141.685 123.724C142.57 124.124 143.266 124.061 144.004 124.082L146.006 124.989Z" fill="#FF9866"/>
<path fill-rule="evenodd" clip-rule="evenodd" d="M157.094 164.494L155.935 164.915C154.48 165.801 150.96 165.484 151.593 167.55L158.401 167.382C158.381 166.56 158.443 165.653 157.98 164.852L157.094 164.494Z" fill="#0643A3"/>
<path fill-rule="evenodd" clip-rule="evenodd" d="M157.979 163.714L155.913 163.776L155.934 164.915C156.608 165.126 157.347 165.083 157.979 164.852V163.714Z" fill="#FF9866"/>
<path fill-rule="evenodd" clip-rule="evenodd" d="M168.646 163.966L167.529 164.514C166.18 165.526 162.638 165.547 163.46 167.549L170.227 166.728C170.122 165.906 170.08 164.999 169.553 164.261L168.646 163.966Z" fill="#0643A3"/>
<path fill-rule="evenodd" clip-rule="evenodd" d="M169.449 163.123L167.404 163.376L167.53 164.515C168.225 164.641 168.943 164.536 169.554 164.262L169.449 163.123Z" fill="#FF9866"/>
<path fill-rule="evenodd" clip-rule="evenodd" d="M163.335 131.355L167.593 135.255L167.445 149.568L170.017 163.166L166.834 163.503L162.639 149.969L162.111 143.033L159.898 150.622L158.296 164.304L155.597 164.241L155.472 150.854L158.338 135.002L160.003 132.936L162.744 134.117L163.335 131.355Z" fill="#0643A3"/>
<path fill-rule="evenodd" clip-rule="evenodd" d="M167.551 118.327C170.629 120.224 173.77 122.902 176.405 125.262C176.764 125.684 176.743 126.084 176.49 126.401L169.512 134.706L168.015 133.083L172.252 126.843L168.395 125.262L167.594 135.255C164.348 137.763 161.502 134.833 158.339 135.002L157.875 124.377L155.747 127.961C155.198 128.762 154.355 128.277 153.49 127.961L145.185 125.009L145.669 122.817C148.326 123.408 150.94 124.419 153.596 125.009C154.523 122.775 154.84 119.549 156.905 118.643C158.867 117.842 165.19 117.062 167.551 118.327Z" fill="#EA718B"/>
<path fill-rule="evenodd" clip-rule="evenodd" d="M160.719 116.008L163.839 115.312L164.599 118.095C163.46 119.275 162.047 119.022 161.141 118.664L160.719 116.008Z" fill="#FF9866"/>
<path fill-rule="evenodd" clip-rule="evenodd" d="M164.747 108.84C162.66 108.882 160.573 108.946 158.486 109.008C157.98 110.294 158.676 115.438 159.92 116.576C161.458 117.989 163.862 116.619 164.368 115.037C164.916 113.583 165.316 110.041 164.747 108.84Z" fill="#FFAA81"/>
<path fill-rule="evenodd" clip-rule="evenodd" d="M160.552 109.81C159.794 109.43 159.077 110.484 158.339 110.063C157.137 108.608 156.758 107.09 159.056 106.015C159.056 106.374 159.288 106.542 159.435 106.606C159.772 106.374 160.047 105.974 160.679 105.995C160.3 106.416 160.278 106.69 160.531 107.007C161.396 107.217 162.576 106.332 163.799 106.669C164.937 107.133 165.401 107.744 165.781 108.588C166.666 110.801 165.422 112.403 164.895 113.247C164.663 113.457 164.558 113.542 163.778 112.824C164.431 112.15 164.727 111.286 163.989 110.843C162.977 110.168 163.398 111.666 162.661 111.918C162.576 111.264 161.122 110.042 160.552 109.81Z" fill="#060352"/>
<path fill-rule="evenodd" clip-rule="evenodd" d="M128.382 105.447L133.863 110.99L138.459 106.459L132.957 100.893C132.303 101.736 131.607 102.559 130.827 103.317C130.047 104.097 129.225 104.793 128.382 105.447Z" fill="#BE96F8"/>
<path fill-rule="evenodd" clip-rule="evenodd" d="M134.98 107.533C133.251 109.261 133.23 112.086 134.959 113.835L164.894 144.086C166.622 145.816 169.447 145.837 171.197 144.107C172.925 142.379 172.947 139.555 171.217 137.804L141.283 107.554C139.554 105.825 136.73 105.804 134.98 107.533Z" fill="#DFCFFD"/>
<path fill-rule="evenodd" clip-rule="evenodd" d="M98.4684 70.6413C89.8253 79.1788 89.7621 93.1133 98.2998 101.735C106.858 110.379 120.772 110.442 129.415 101.905C138.058 93.3454 138.121 79.4319 129.584 70.789C121.025 62.1669 107.09 62.0825 98.4684 70.6413ZM96.3393 68.4911C86.5367 78.2096 86.4524 94.0408 96.1706 103.865C105.889 113.667 121.721 113.752 131.523 104.033C141.347 94.3147 141.431 78.4835 131.713 68.6809C121.995 58.8572 106.163 58.7729 96.3393 68.4911Z" fill="#DFCFFD"/>
<path fill-rule="evenodd" clip-rule="evenodd" d="M168.036 133.505C167.636 133.905 166.244 133.547 166.308 133.969C166.412 134.411 167.403 134.2 167.424 134.349C167.677 134.959 166.096 135.887 166.37 136.372C167.003 137.511 168.731 136.54 169.301 134.623L168.163 133.378C168.121 133.42 168.078 133.463 168.036 133.505Z" fill="#FF9866"/>
<path fill-rule="evenodd" clip-rule="evenodd" d="M46.8841 116.376L44.9793 116.461L44.8561 114.471C44.1263 113.438 44.3821 113.21 44.1358 112.613C43.5956 110.197 46.0975 111.581 46.6093 112.652C47.2727 113.324 47.7749 113.883 47.5286 114.66L46.8463 115.438L46.8841 116.376Z" fill="#FF9866"/>
<path fill-rule="evenodd" clip-rule="evenodd" d="M47.15 108.566L43.8236 109.078C43.2265 110.898 44.0226 113.656 46.1265 114.811C47.2732 115.504 49.3582 114.774 48.6189 114.139C46.8657 112.253 45.4441 110.935 47.15 108.566Z" fill="#9999FE"/>
<path fill-rule="evenodd" clip-rule="evenodd" d="M42.2493 109.268L42.6662 110.595C42.6852 110.661 42.6473 110.737 42.5809 110.756L42.1355 110.898C42.0692 110.917 41.9933 110.879 41.9744 110.812L41.5574 109.485C41.5385 109.419 41.5763 109.343 41.6427 109.324L42.0882 109.182C42.1544 109.163 42.2302 109.201 42.2493 109.268Z" fill="#9999FE"/>
<path fill-rule="evenodd" clip-rule="evenodd" d="M54.3711 106.965L54.0773 106.265L53.9162 105.525L53.7835 105.572L52.0967 101.573C49.661 103.667 47.3296 105.733 42.6385 107.401L42.5721 109.865L42.5532 109.875L42.5721 109.894V109.931L42.5912 109.922L44.0601 111.894C48.8555 110.567 51.9545 110.927 55.1482 111.249L54.2384 107.004L54.3711 106.965Z" fill="#9999FE"/>
<path fill-rule="evenodd" clip-rule="evenodd" d="M54.6276 106.093C55.4711 108.775 55.727 111.078 55.2057 111.239C54.6845 111.409 53.5757 109.372 52.7322 106.69C51.8888 104.018 51.6235 101.715 52.1447 101.544C52.6659 101.383 53.7747 103.42 54.6276 106.093Z" fill="#6767FD"/>
<path fill-rule="evenodd" clip-rule="evenodd" d="M46.9896 111.381L45.1417 111.969C43.9002 112.358 42.507 111.505 42.0521 110.064C41.5973 108.615 42.2417 107.117 43.4927 106.729L45.3406 106.141L46.9896 111.381Z" fill="#6666CB"/>
<path fill-rule="evenodd" clip-rule="evenodd" d="M54.0292 106.283C54.2755 107.041 53.9438 107.855 53.2804 108.254C53.091 107.771 52.9014 107.239 52.7308 106.691C52.5602 106.141 52.4086 105.609 52.2853 105.107C53.053 105.041 53.7922 105.525 54.0292 106.283Z" fill="#6799FE"/>
<path fill-rule="evenodd" clip-rule="evenodd" d="M40.4788 164.548L41.654 164.983C43.1229 165.874 46.6863 165.551 46.0418 167.656L39.152 167.485C39.171 166.642 39.1236 165.722 39.5879 164.917L40.4788 164.548Z" fill="#060352"/>
<path fill-rule="evenodd" clip-rule="evenodd" d="M39.5694 163.76L41.6733 163.827L41.6544 164.983C40.953 165.192 40.2233 165.145 39.5883 164.917L39.5694 163.76Z" fill="#FF9866"/>
<path fill-rule="evenodd" clip-rule="evenodd" d="M28.7731 164.026L29.9104 164.576C31.2751 165.6 34.8575 165.628 34.014 167.656L27.1715 166.822C27.2663 165.978 27.3137 165.068 27.8539 164.31L28.7731 164.026Z" fill="#060352"/>
<path fill-rule="evenodd" clip-rule="evenodd" d="M27.9502 163.154L30.0351 163.419L29.912 164.576C29.1918 164.709 28.4715 164.595 27.8554 164.31L27.9502 163.154Z" fill="#FF9866"/>
<path fill-rule="evenodd" clip-rule="evenodd" d="M28.8507 132.278L27.6471 133.7L28.4527 134.601C29.0213 135.918 29.3245 139.472 30.1586 138.542L30.6418 133.776L29.533 133.246L28.8507 132.278Z" fill="#FF9866"/>
<path fill-rule="evenodd" clip-rule="evenodd" d="M34.1569 130.971L29.8449 134.923L29.9965 149.432L27.3714 163.192L30.6125 163.553L34.8488 149.839L35.3889 142.798L37.6444 150.494L39.2556 164.358L41.9944 164.292L42.1176 150.739L39.2082 134.667L37.5213 132.582L34.7445 133.766L34.1569 130.971Z" fill="#260BC0"/>
<path fill-rule="evenodd" clip-rule="evenodd" d="M29.893 117.768C26.7655 119.683 23.5812 122.413 20.9087 124.792C20.5391 125.237 20.577 125.634 20.8234 125.956L27.9028 134.363L29.4002 132.723L25.1259 126.392L29.04 124.792L29.8456 134.922C33.134 137.462 36.015 134.486 39.2089 134.666L39.8059 122.659L45.3216 124.886C45.9281 125.189 47.8993 124.934 47.9183 123.976L46.999 115.532L44.7435 115.741L44.8382 121.199L38.6213 117.617C35.8161 116.926 32.2717 116.49 29.893 117.768Z" fill="#EA718B"/>
<path fill-rule="evenodd" clip-rule="evenodd" d="M45.71 112.282C45.8711 111.874 46.0132 111.874 46.2596 111.666C46.4966 111.496 46.7904 111.561 46.9988 111.742C47.3685 112.188 47.6907 112.566 48.0697 113.012C48.373 113.457 48.2593 113.903 48.1929 114.102C48.0129 114.548 47.6432 114.812 47.2452 114.642C46.6103 114.263 45.4162 113.069 45.71 112.282Z" fill="#FF9866"/>
<path fill-rule="evenodd" clip-rule="evenodd" d="M35.6256 114.688L32.7542 114.793L32.8962 117.276C34.2325 118.309 35.3887 118.272 36.0521 117.598L35.6256 114.688Z" fill="#FF9866"/>
<path fill-rule="evenodd" clip-rule="evenodd" d="M30.8589 109.837C32.7828 109.315 34.7066 108.794 36.6304 108.263C37.455 109.315 38.232 114.205 37.4075 115.579C36.3746 117.304 33.8063 116.707 32.906 115.409C32.0056 114.233 30.6789 111.097 30.8589 109.837Z" fill="#FFBB9B"/>
<path fill-rule="evenodd" clip-rule="evenodd" d="M32.9719 110.784C33.967 109.07 36.0899 110.623 37.1039 110.178C37.8336 109.467 41.3591 106.283 40.3072 104.501C39.5964 103.44 36.1847 104.189 34.9621 104.681C33.948 105.032 32.8677 105.619 32.0621 106.216C31.2282 106.918 30.8396 107.856 31.0102 108.907C30.3847 108.634 29.0011 109.96 28.9916 110.509C28.6693 112.206 31.1429 112.433 32.0811 114.026C32.8772 113.827 32.716 110.993 32.9719 110.784Z" fill="#060352"/>
<path fill-rule="evenodd" clip-rule="evenodd" d="M32.5945 113.249C33.6843 112.775 33.5706 112.301 32.8125 111.656C32.547 111.325 32.0637 111.097 31.8173 111.552C31.6657 111.997 32.2627 112.86 32.5945 113.249Z" fill="#FFBB9B"/>
<path fill-rule="evenodd" clip-rule="evenodd" d="M16.0449 14.3296L19.2743 11.6393L16.9645 15.1509L19.6549 18.3803L16.1432 16.0706L12.9138 18.761L15.2235 15.2492L12.5332 12.0198L16.0449 14.3296Z" fill="#D5F0FF"/>
<path fill-rule="evenodd" clip-rule="evenodd" d="M57.6595 74.8691L60.8888 72.1788L58.579 75.6904L61.2694 78.9198L57.7577 76.6101L54.5284 79.3005L56.838 75.7887L54.1478 72.5594L57.6595 74.8691Z" fill="#D5F0FF"/>
<path fill-rule="evenodd" clip-rule="evenodd" d="M81.7239 88.8521L83.5255 87.3511L82.2369 89.3103L83.7379 91.112L81.7787 89.8234L79.977 91.3243L81.2656 89.3651L79.7647 87.5635L81.7239 88.8521Z" fill="#D5F0FF"/>
<path fill-rule="evenodd" clip-rule="evenodd" d="M183.459 39.5008L185.261 37.9998L183.972 39.959L185.473 41.7606L183.514 40.472L181.712 41.973L183.001 40.0138L181.5 38.2121L183.459 39.5008Z" fill="#D5F0FF"/>
</svg>
