<svg xmlns="http://www.w3.org/2000/svg" viewBox="0 0 1002 907" xmlns:v="https://vecta.io/nano"><style><![CDATA[.B{fill:#6a79a8}.C{fill:#fff}.D{fill:#bbdff5}]]></style><g fill-rule="nonzero"><path d="M258.4 890.72C237.18 886.1-17.78 844.56 1 538.17s42.3-398.54 141.43-432.25S482.5-87.3 671.58 64.36s393.1 287.72 312.14 529.9-94.22 323-305.46 310.6-318.96 7.78-419.86-14.15v.01z" fill="#f7f7f7"/><g fill="#ddd"><path d="M320.28 611h94.83c32.4 0 51.16-36.75 32.14-63L367 437.32A25 25 0 0 0 346.82 427h-157A25 25 0 0 0 168 464l46.58 84.52A120.72 120.72 0 0 0 320.28 611zm-85.9-265.36l-122.5 35.13c-7.93 2.28-16.57-1.85-19.3-9.22L75 323.8c-2.72-7.37 1.5-15.2 9.45-17.46l122.5-35.13c7.94-2.28 16.58 1.85 19.3 9.22l17.62 47.73c2.67 7.37-1.55 15.2-9.5 17.47l.01.01z"/><path d="M139.6 490.85L93.56 365.17c-.3-.8-3.15.07-2.9.78l46.04 125.67c.3.8 3.16-.06 2.9-.77zM783.1 783.4c30.83.48 76.27-5.4 105.18 6.45 5.7 2.34 10.56 7.74 10.46 13.72 0 .34 0 .68-.08 1-.62 5.43-5.28 9.76-10.48 11.7-23.16 8.67-54.5 4.12-78.68 2.93-9.37-.46-18-1.66-27.63-1.6-20.32.15-40.1 2.77-58.6-6.9-6.13-3.2-12.32-6.46-17.56-11-3.12-2.7-19.08-23.08-5.9-21.38 4.35.56 8.28 3.66 12.55 4.94 5.3 1.6 10.7 3.15 16.28 3.38 18.03.8 36.24-3.5 54.47-3.23h-.001-.01z"/><path d="M702.52 775.2c-2.52-2.8-6.52-4.46-10.52-5.72-15.26-4.76-24.1-14-35.77-24.36-9.54-8.47-20 1.18-23.88 10.23-2.46 5.73-4.54 14.37-.33 19.82 5.3 6.86 18.2 4.87 25.9 6.12a117.09 117.09 0 0 1 30.74 9.43 23.68 23.68 0 0 0 7.17 2.52c6 .7 9.53-4.66 9.63-10.12a10.89 10.89 0 0 0-2.94-7.92z"/></g><path d="M737.94 691.23c7.62-62.16 21.5-219.22 84.75-197.48 58.93 20.25 55.9 132.7 68.1 207.8 0 0-62.63 3.2-83.38 1.62-17.6-1.32-69.46-11.94-69.46-11.94h-.01z" class="C"/><path d="M739.4 690.84c3.43-28.06 6.5-56.16 11.37-84C755.86 577.68 762 547 776 520.67c5.1-9.6 11.75-19.48 21.4-25 10.68-6.06 23-3.13 33.08 2.67 27.26 15.6 36.7 51.12 42.45 79.7 8.23 40.9 9.77 82.72 16.4 123.85l2.4-.93c-19.3 1-38.62 1.72-57.94 2-10.47.15-21 .3-31.4-1-12.33-1.56-24.6-3.84-36.8-6.13l-26.44-5.15c-.64-.14-3.1.9-2.4 1 20 4.1 40.2 8.13 60.48 10.92 22.44 3.1 45.63 1.33 68.17.48l24.44-1.07c.38 0 2.5-.3 2.4-.93-6.25-38.8-8-78.17-15.06-116.85-5.47-30.06-14.1-68.07-41.9-85.66-55-34.85-76.94 56.37-84.22 92.13-6.8 33.32-10.42 67.12-14.55 100.84-.03.3 2.8.1 2.9-.7h-.01z" class="B"/><path d="M838.76 441.3c-5.58-31.54-24-54.66-41.13-51.62s-26.5 31.06-20.9 62.6l1 5.65c3.1 17.5 6.74 29.4 10.84 37.43 8.43 16.5 30.66 20.06 30.66 20.06s20.17-10.93 22.9-27.5c1.5-9.06 1-22.08-2.37-41l-1-5.62z" class="C"/><path d="M800.3 506.46c-14.3-10.56-17.74-30.54-20.77-47-3.15-17.15-5-35.18 1.47-51.85 2.68-6.88 7.4-14.68 14.92-16.93 6.8-2 13.78 1.44 18.88 5.73 13.26 11.14 19.66 29.36 22.63 45.87 3.22 17.9 9.16 41.9-2.12 58.07-.64.9 2.2.56 2.66-.1 10.92-15.66 6-38.1 2.92-55.54-3.17-18-9.26-38.24-24.26-50.07-9.68-7.64-22.5-7.95-31.24 1.32-12.6 13.4-13.1 36.17-10.66 53.22a215.27 215.27 0 0 0 7.21 33.42c3.08 9.9 7.1 18.6 15.65 24.9.7.52 3.3-.62 2.7-1.05v.01z" class="B"/><path d="M875.43 721.87c1.18-11.85 2.85-24.46 3.48-36.66a164.82 164.82 0 0 0-.06-19.88c-.32-4.6 0-15.42-3-19.06-3.92-4.64-20.36-.5-26-.13-9.22.6-18.58 1.35-27.83.9-18.1-.88-72.06-11.22-72.06-11.22-1.94 0-7.43 62.88-8.1 68.6-2.14 18.6-5.27 37.05-6.42 55.77-.6 10.06-4.1 31.8 3.3 40.5a5 5 0 0 0 2.71 2.1c5.6 1.23 10.65-9 12.67-12.6 13-23.25 17.64-50.13 29.68-74 2.7-5.35 5.8-10.73 10.68-14.2s12.3-7 17.62-3.43c11.47 7.77 17.32 25.46 22.27 37.93a222.24 222.24 0 0 1 10 32.29c2.37 10.35 3.7 20.9 8.45 30.54 2 4 4.3 8.72 9 9.44 5.7.9 8-15 8.58-18 3.68-20.54 2.87-41.63 4.46-62.38.13-2.16.35-4.38.56-6.5l.01-.01z" class="C"/><path d="M876.87 721.64c1.74-17.2 4.24-34.4 3.67-51.73-.2-6.3 0-13.12-1.36-19.3-.9-4.1-2.7-6.33-6.87-7-5-.76-10.3.17-15.24.9a200.92 200.92 0 0 1-21.5 1.8c-11.35.46-22.32-.74-33.5-2.38-10.8-1.6-21.56-3.43-32.3-5.34-5.9-1-12.5-3.25-18.5-3.4-3.76-.1-3.6 3.1-4.1 6.16-1.33 8.37-2.15 16.83-3 25.25l-5.7 53.4c-2.13 16.07-3.74 32.1-5.14 48.24-.86 9.92-2.8 23.52 3.42 32.17 6.1 8.5 14.16-2.28 17.27-7.74 7.9-13.8 13.06-28.7 18.16-43.7 2.76-8.12 5.56-16.24 8.93-24.13s7.22-17.46 14.48-22.74c5-3.66 11.27-5.83 16.7-1.85a33.77 33.77 0 0 1 7.59 8.44c3.92 5.8 6.74 12.3 9.33 18.77 6.13 15.3 11.48 30.72 14.85 46.9 1.74 8.35 3.32 16.78 7 24.55 1.92 4.12 4.6 9.9 9.78 10.5 7.5.86 9.33-9.82 10.38-15.12 3-15 3.56-30.26 4.12-45.5.33-9.08.73-18.14 1.6-27.2.08-.88-2.8-.3-2.87.46-1.56 16.1-1.47 32.26-2.62 48.37-.76 10.7-1.17 24.3-6 34.26-4 8.25-10-3.14-11.85-7.36-3.27-7.27-4.8-15.12-6.4-22.88-3.16-15.34-8.05-29.93-13.74-44.5-4.25-10.9-9-24-18.9-31.13-8.12-5.92-19.8.53-25.5 7.1-9.62 11.06-14.17 27.4-18.83 41-5.1 14.94-10 29.93-17.68 43.8-2.17 3.94-8 15.7-12.94 8.68-3.14-4.43-3.76-10.27-4-15.55-.52-12.93 1.24-26.53 2.63-39.36l7.12-61.47 2.77-26.9 1.4-11.56c.33-2.35 1.22-5.05 1.23-7.4 0-1.46 1.3-1.14-.75-1.08-2.9.08-.3.43 0 .56 2.17.8 4.86.9 7.13 1.33L784 642.7c9.82 1.63 19.66 3.23 29.55 4.32 12 1.33 24.3.85 36.34-.3 5-.48 9.82-1.6 14.8-1.9 6.73-.4 10.63.72 11.84 7.76 2.5 14.5 1.4 30.3.07 44.82l-2.58 24.67c-.13.93 2.75.34 2.83-.43l.01.01z" class="B"/><path d="M878.9 646.83c-21.86.75-44 2-65.87.5-13.27-.92-26.4-3.47-39.4-6.3l-19.13-4.27c-1.7-.34-7.76-1.74-6.24 2.33 1.07 2.86 7.64 4.7 10.08 5.53 5.1 1.77 10.73 2.5 16 3.58 10.57 2.283 21.28 3.863 32.06 4.73 22.63 1.57 45.58.3 68.22-.47 2-.07 6-1 7-3.1s-.95-2.58-2.7-2.52l-.02-.01zM773.9 660a22.85 22.85 0 0 1-10.08 13.8c-1.54 1-2.18 3-.56 4.16s4.6.4 6.2-.6a30.15 30.15 0 0 0 13.2-18.14c1-3.87-7.85-2.76-8.77.8V660z" fill="#f2f2f2"/><path d="M774 658.48a25.55 25.55 0 0 1-11.08 15.42c-1.64 1 .93 1.17 1.75.65a27.4 27.4 0 0 0 12.21-16.5c.22-.87-2.66-.44-2.88.43z" class="B"/><path d="M842.22 505.6c38.87 36.24 37.9 130.34 48.56 196 0-.2-12.16.56-12.86.6-6.2.27-13.06 2-18.17-2.38-6.06-5.15-10.3-15.22-13.62-22.27-8.06-17.08-12.55-35.72-14.57-54.45-2.12-19.65-1.64-39.47-.4-59.16.54-8.57 2.9-18.7 1.3-27-1.34-7-7.17-14.45-1.94-21.3 1-1.34 2.52-1.84 3.92-2.73.77-.6 8.37-6.74 7.77-7.3h.01z" class="D"/><path d="M840.9 506.22c17.45 16.55 25.15 41.06 30.34 63.88 6.4 28.1 9.12 56.93 12.23 85.54 1.68 15.47 3.4 30.94 5.87 46.3l2.3-1.34c-3.23-.76-7.36.16-10.64.35-6.57.38-14.55 2.38-20.1-2-6.2-4.9-9.52-13.74-12.74-20.65a162.11 162.11 0 0 1-9.64-26c-5.3-19.5-7-39.75-6.93-59.9 0-10.07.33-20.2 1.18-30.24.68-8 2.52-16.08 1.43-24.1-.6-4.3-2.6-8.13-3.68-12.3-.7-2.65-1.18-6.27.5-8.7 1.17-1.67 3.08-2.6 4.64-3.8 1.9-1.46 8.25-5.27 8-8-.1-1.26-3-.58-2.9.78.07.85-4.68 4.17-5.48 4.8-1.63 1.26-3.6 2.12-5.12 3.5-5.7 5.1-2.4 12.77-.37 18.7 3.1 9.12 1.1 18.44.18 27.75-1.05 10.56-1.3 21.3-1.34 31.9-.08 19.7 1.5 39.54 6.5 58.66a160.34 160.34 0 0 0 9.9 27.13c3.12 6.7 6.1 13.88 11 19.5 5.45 6.18 12 5.9 19.6 5.34l6.9-.42c2.13-.12 5.35-.88 7.42-.4.84.2 2.48-.18 2.3-1.34-4.54-28.23-6.7-56.78-10.28-85.13-3.42-27-7.52-54.9-18.17-80.17-4.82-11.43-11.17-22.3-20.23-30.9-.9-.87-3.65.3-2.66 1.26h-.01z" class="B"/><path d="m788.5 501.66c3.65 7.92 16 9.27 12.2 18.76-7 17.68-17.65 32.88-22.58 51.74l-21.57 85.33c-3 11.74-4.8 30.06-18.6 33.74 6-48.88 15.86-156.4 50.55-189.57z" class="D"/><path d="M787 502.05c2.08 4 5.65 6.13 9 8.94 5 4.2 4 8.08 1.57 13.6-5.76 13.3-13.4 25.75-18.32 39.43-5.48 15.24-8.56 31.57-12.48 47.26l-11.94 47.43c-2.7 11-4.24 28-17.08 31.9l1.6.4c3.1-25.25 5.85-50.54 10-75.66 4.53-27.72 10.07-55.94 20.82-82 4.74-11.5 10.67-23 19.67-31.7.76-.75-2.07-.54-2.67 0-17.07 16.6-24.65 42.3-30.5 64.66-7.3 27.87-11.66 56.47-15.32 85l-4.83 40.08c-.1.73 1.25.52 1.6.4 9.84-3 14.13-11.67 16.68-21 3.85-14.16 7.06-28.56 10.62-42.8l13.42-53.23c4.1-15.8 11.83-29.72 18.8-44.37 2.24-4.7 7.26-11.84 4.22-17.12-2.88-5-9.16-6.74-11.92-12-.47-.88-3.27.1-2.95.78h.01z" class="B"/><path d="M884.5 598.82c-4.588.953-8.288 4.34-9.643 8.824A12.79 12.79 0 0 0 878 620.331L862.9 659a11.46 11.46 0 0 0-3.308 22.097 11.46 11.46 0 0 0 12.577-18.468l15.06-38.5a12.78 12.78 0 0 0 10.65-19.62l-1.1 2.84-3.06 7.82-8.3 1.26-5.24-6.56 4.32-11.05zm-18.35 65.53l4.06 5.07-2.37 6.05-6.42 1-4.06-5.07 2.37-6 6.42-1.05z" class="C"/><path d="M884.3 598.1c-8.3 2.2-14.1 10.6-10.22 19.07.45 1 2.37 2.82 2.42 3.54 0 .43-.48 1.1-.6 1.52a71.38 71.38 0 0 1-2.63 6.72l-11.82 30.2 1.64-1c-5.43.76-10.4 3.9-11.84 9.5a12 12 0 0 0 7.2 14.09c10.12 4.06 23-6.78 16.76-17.36-1.1-1.88-1.33-1.37-1.2-3 .1-1.23 1.12-2.84 1.57-4l13.1-33.48-1.65 1c10.55-.7 17.75-11 12.3-20.82-.54-1-2.56-.3-2.9.56l-4.17 10.66 1.65-1c-2.14.32-4.3.56-6.43 1a6.72 6.72 0 0 1-1.54.23c-.46-.08 1.15.7.48-.13l-2.3-2.86c-1.62-2-2.43-2.28-2-4.3a48.35 48.35 0 0 1 2.51-6.41l-1.65 1a2 2 0 0 0 1.64-1l1.26-3.2c.37-.94-2.52-.6-2.9.36l-1.26 3.2 1.65-1a2 2 0 0 0-1.64 1c-.8 2-2.82 5.16-2.87 7.32 0 1.84 1.93 3.4 3.13 4.92s1.58 2.53 3.5 2.72c2.44.25 5.53-.84 8-1.2a2 2 0 0 0 1.64-1l4.17-10.66-2.9.57c4.27 7.7.66 17.8-9 18.42a1.94 1.94 0 0 0-1.64 1l-15.06 38.5a.42.42 0 0 0 .1.39c6.5 7.94-.38 22.45-11.28 16.62-8.6-4.6-7.24-18.55 3.16-20a2 2 0 0 0 1.65-1l15.1-38.63a.42.42 0 0 0-.1-.4c-6-6.75-4.08-17.7 5.32-20.2 1.74-.46 1.36-1.93-.4-1.46h.05zm-19.5 66.82l1.86 2.33 2.1 2.55c.03.2-1 2.3-1.2 2.82l-1.18 3 1.64-1-6.42 1 1.15.24-1.86-2.34-2.1-2.54c-.03-.18 1-2.3 1.2-2.82l1.18-3-1.64 1 6.42-1c1.4-.2 2.4-1.93.4-1.63l-4 .6c-1 .15-2.7.1-3.55.74s-1.1 2-1.45 2.93-1.53 2.72-1.47 3.74 1.43 2 2 2.72 1.47 2.46 2.38 2.88 2.32-.1 3.17-.23l4.2-.64a2 2 0 0 0 1.65-1l2.36-6a.4.4 0 0 0-.1-.39l-4-5.07c-.67-.82-3.46.18-2.73 1.1v.01z" class="B"/><path d="M849.4 649.32c11.14 3.6 22.13 3.2 33.5 1-3.35 4.1-3.8 10.6-4.7 15.6a114.18 114.18 0 0 0-1.82 20.2c-4.47 1.37-9 2.75-13.56 1.77s-9-4.8-10.9-11.2c-.9-3.1-1.1-6.57-1.74-9.83-.68-3.47-13.2-21.57-.78-17.56v.02z" class="D"/><g class="B"><path d="M880.4 651.66a116.32 116.32 0 0 0-5.47 34.64l1.23-1c-5 1.52-10.6 3.24-15.54.6a15.74 15.74 0 0 1-7.23-9.55c-1.8-5.9-.6-13.77-6-17.93-.87-.67-3.5.6-2.27 1.53 4.43 3.4 3.84 10.67 5 15.6a18.4 18.4 0 0 0 5.89 10.31c6.05 5 13.7 3.25 20.58 1.17.4-.12 1.22-.47 1.23-1a116.07 116.07 0 0 1 5.47-34.65c.38-1.16-2.56-.8-2.92.3h.03v-.02z"/><path d="M881.6 649.45a62 62 0 0 1-32-1.59c-1.75-.56-5.55 2.1-2.75 3a66.88 66.88 0 0 0 34.3 1.61c2.4-.5 3.7-3.72.42-3l.03-.02z"/></g><path d="M836.12 429.86c-5.88 3.92-14.3 6-21 7.9-4.123 1.068-8.317 1.844-12.55 2.32-4.833.647-9.696 1.038-14.57 1.17-2.54.05-7.3.66-9.4-1.2-1.87-1.65-9.78 1.65-8.16 3.07 2.7 2.37 7.9 2 11.2 2 6.477-.04 12.945-.5 19.36-1.4 5.9-.714 11.712-1.905 17.4-3.56 8.13-2.42 17.33-5 24.44-9.72 1.6-1.06.84-1.84-.6-2.2-1.82-.47-4.65.65-6.15 1.64h.01l.01-.02z" fill="#f2f2f2"/><path d="M770.16 436.52a5.83 5.83 0 0 1-.73-1.81c-1.5-7-.1-15.55 2.1-22.27 4.06-12.45 13.76-23.48 27.2-25.55 13.7-2.1 26.46 5.84 34 16.8a58.88 58.88 0 0 1 6.32 11.45c1.64 4.07 3.94 9.75-.2 13.1-1.73 1.4-4 2-6 2.9s-4.28 1.72-6.43 2.52c-4.37 1.6-8.8 3-13.3 4.2a93.29 93.29 0 0 1-27.45 3.34c-1.1-.05-2.2-.12-3.3-.2l-2.27-.24a42.38 42.38 0 0 1-6.24-1.07 7.34 7.34 0 0 1-3.7-3.16v-.01z" fill="#ff9c81"/><path d="M771.6 436.13c-3.26-6.42-1.06-15.92.9-22.46 1.915-6.778 5.502-12.968 10.43-18 13-12.86 31.78-9.52 43.76 2.77 5.146 5.396 9.1 11.806 11.64 18.82 1 2.83 2.23 6.24.8 9.16-1.88 3.8-10.8 6-14.78 7.4a110.88 110.88 0 0 1-28.74 6.54c-6.6.5-19.67 1.7-24.08-4.37-.44-.6-3.23.33-2.72 1 3.73 5.14 12.12 4.75 17.88 4.86a95.48 95.48 0 0 0 24-2.84 159.07 159.07 0 0 0 23.56-7.83c5.56-2.28 9.6-4.9 8-11.57-3.1-13.15-13.8-26.4-26.36-31.4a33 33 0 0 0-33.46 5.63 41.42 41.42 0 0 0-12.1 18.17c-2.38 6.9-5.13 17.94-1.6 24.9.4.8 3.18-.2 2.9-.76l-.03-.02zm62.92-16.23a108.9 108.9 0 0 1-60.6 12.52c-.68-.05-3.33 1.15-1.86 1.27a115.87 115.87 0 0 0 64.17-13.31c1.7-.9-1-.88-1.7-.48h-.01zm-31.34-28.03a75.29 75.29 0 0 0 1.44 32.85c.3 1.14 3.2.37 2.9-.77a74.28 74.28 0 0 1-1.43-32.39c.22-1.24-2.72-.8-2.9.3l-.01.01zm-8.84-.17a48.82 48.82 0 0 0 .14 32.81c.38 1.08 3.26.26 2.9-.78a48.07 48.07 0 0 1-.12-32.36c.37-1.06-2.55-.7-2.9.33h-.02zm50.58 122.18c-9.75 11.3-5.9 27.88-5.28 41.4.36 7.74 1.33 17.07-3.3 23.78-3.12 4.5-6.15 7.5-7.66 13-.22.8 2.64.4 2.87-.45 1.57-5.7 5.12-8.9 8.12-13.66 3.28-5.2 3.1-12 3.05-17.9-.13-14.64-5.74-34 4.87-46.3.7-.8-2.14-.5-2.66.1v.01l-.01.02zm-59.35-2.08c9.43 8.94-.33 20.72-4.54 29.48s-3 18.47-3.5 27.85c-.08 1.44 2.86 1 2.93-.25.3-5.5 0-11 .5-16.53.6-6.37 3.13-11.42 6.28-16.87 4.34-7.52 8.45-17.87 1-24.93-.9-.86-3.65.3-2.66 1.25h-.01zm10.9-28.8a12.92 12.92 0 0 1 5.61-1.77 10.16 10.16 0 0 1 3.49.13 4.41 4.41 0 0 1 3.44 3.12 5 5 0 0 1-1.39 4.16c-4.85 5.67-17.75-1.4-11.15-5.64z" class="B"/><path d="M260 339.62V580.2a10.62 10.62 0 0 0 3.118 7.506c1.994 1.99 4.696 3.104 7.512 3.104h216.74c5.867 0 10.624-4.753 10.63-10.62v-37.5l-.17-20.7V293.56c-.028-5.856-4.794-10.582-10.65-10.56H316.6L260 339.62z" class="C"/><g class="B"><path d="M258.5 339.78v224.75c0 10-2.84 26.4 11.57 27.17 10.36.54 20.9 0 31.27 0h183.14c6.32 0 12.92-2.07 14.66-9 .82-3.33.32-7.26.32-10.63v-18l-.18-79.12V294.6c-.16-14.6-14.77-12.52-24.93-12.52H320.72c-2.9 0-4.48-.2-6.6 1.92l-52.62 52.57c-.58.58-3 2.25-3 3.22 0 1.3 2.9.74 2.9-.32 0 .55 0 .17.62-.5.94-1 1.9-1.9 2.86-2.86l33.9-33.9c5.8-5.8 12.9-11.4 17.9-17.9.14-.18 1.1-.84 1.08-1.08.06 2.13-2.77.07-.95.58 1.4.4 3.5 0 4.92 0h125.34c13 0 26.25-.64 39.28 0 13.35.65 10 19.36 10 28.4v131.65l.07 86.17c.15 16.67 1.1 33.65.1 50.27-.52 8.8-7.2 9.6-13.8 9.6H278.9c-2.56 0-5.18.15-7.74 0-8.65-.5-9.73-7.65-9.73-14.28V339.46c-.01-1.3-2.92-.74-2.92.32h-.01z"/><path d="M315.28 283.14v41.65a33 33 0 0 1-.19 5.88c-1 5.6-5.6 8.2-10.88 8.23h-43.7l.6 1.08 56.77-56.77c1.2-1.2-1.64-1.2-2.33-.5l-56.77 56.76c-.58.6-.1 1.08.6 1.08h44.3c7.6-.08 14.13-4.25 14.5-12.43.3-7.32 0-14.72 0-22.05v-23.3c-.01-1.2-2.9-.6-2.9.36v.01zm10.84 169.4H426c1.2 0 3-1.8 1.1-1.8h-99.9c-1.2 0-3 1.8-1.1 1.8h.02zM282 518.62h188c1.05 0 3.1-1.58 1.14-1.58h-188c-1.05 0-3.1 1.58-1.14 1.58zm-.34-26.62h188c.6 0 3.28-1.18 1.88-1.18h-188c-.6 0-3.27 1.18-1.88 1.18zm.4 53.2h94.7c1.2 0 3-1.8 1.1-1.8h-94.7c-1.2 0-3 1.8-1.1 1.8zm61.04-162.94c17.87 17.85 53.15 18.1 71.6 1 .9-.84 3.65.33 2.66 1.25-19.9 18.48-57.48 17.74-76.68-1.44-1.27-1.26 1.54-1.65 2.4-.78v-.03h.02zm-6.98-15.8a5.45 5.45 0 0 0-9.3-3.867 5.45 5.45 0 0 0 3.85 9.307 5.45 5.45 0 0 0 5.45-5.44zm95.14 0a5.45 5.45 0 0 0-9.3-3.867 5.45 5.45 0 0 0 3.85 9.307 5.45 5.45 0 0 0 5.45-5.44z"/></g><rect transform="matrix(.992945 -.118577 .118577 .992945 -22.399703 34.565054)" x="188.51" y="157.42" width="181.52" height="96.2" rx="17.25" fill="#ea8571"/><rect transform="matrix(.992945 -.118577 .118577 .992945 -22.985392 35.241295)" x="198.62" y="168.53" width="172.08" height="84.5" rx="17.25" fill="#ff9c81"/><g class="B"><path d="M358.05 243.5l-142.77 17.02c-8.86 1.06-17.87-1.76-20.55-11.43-1.67-6-1.73-12.8-2.47-19l-3.78-31.62c-.85-7.17-3.28-16.1.2-22.85 3.63-7 10.26-8.05 17.1-8.87l134.17-16.02c5.75-.68 11.23-1.76 16.6 1.5 7.8 4.74 7.85 13.58 8.8 21.56 2.06 17.2 4.7 34.47 6.18 51.74.74 8.68-4.65 16.5-13.48 17.9-1.55.24-2.24 2.36-.27 2.05 11.12-1.76 17.73-10.8 16.5-21.87l-6.77-56.73c-1.2-10-6.8-18.6-17.83-19.1-3.9-.17-8 .7-11.84 1.16L313.27 152l-111.9 13.36c-9.86 1.3-17.94 8.9-17.48 19.32.3 6.95 1.6 14 2.43 20.85l4 33.1c1 8.28 1.4 16.73 9.37 21.7 5.4 3.36 11 2.82 16.94 2.12l141.12-16.9c1.6-.2 2.25-2.3.3-2.05zm138.4 158.23c.16 6.44 4.35 13.47 8.14 18.36 9 11.64 23 17.18 37.23 18.94.85.1 3.4-1.3 1.8-1.5-14.28-1.76-28.05-7.4-36.84-19.23-3.46-4.64-7.28-11.32-7.43-17.36 0-.82-2.92-.28-2.9.78v.01zm-235.54.35c-6.57-.37-13.62-3.75-19.3-6.72-13.23-6.9-24.22-17.24-32.85-29.34-.52-.73-3.16.4-2.9.78 8.9 12.48 20.25 23.1 34 30.06 5.76 2.9 12.64 6.08 19.2 6.45.65 0 3.3-1.15 1.86-1.23h-.01z"/><path d="M212.1 400.4l-18.86-161.2c-.12-1-3-.34-2.9.78l18.86 161.2c.12 1 3 .34 2.9-.78zM367.65 591v25.36c0 1.26 2.9.66 2.9-.34v-25.4c0-1.25-2.9-.66-2.9.35v.03zm19.77 0v25.36c0 1.25 2.9.65 2.9-.34v-25.4c0-1.24-2.9-.64-2.9.35v.03z"/></g><path d="M675.23 556.68L547.62 407a57.22 57.22 0 0 0-14.1-10.17l-1.74-1.26-.15.48c-1.886-.912-3.823-1.716-5.8-2.4-43.44-14.07-96.58 29.8-118.68 98s-4.82 134.92 38.62 149c2.007.604 4.047 1.092 6.1 1.46l-.16.47h2.15a57.21 57.21 0 0 0 17.38 0l193.94-50 10.05-35.9z" fill="#fce897" opacity=".3"/><path d="M723.1 581.6l-27-8.74-23.68-17.2a8.51 8.51 0 0 0-2.14-1.56l-.27-.2v.07l-.88-.37c-6.6-2.14-14.73 4.64-18.14 15.15s-.8 20.76 5.8 22.9c.3.1.62.16.93.22v.07h.33a8.35 8.35 0 0 0 2.64 0h29.28l27 8.74c3.3 1.07 7.37-2.32 9.07-7.57s.36-10.45-2.94-11.52h0z" fill="#def3f9"/><g class="B"><path d="M724.57 593.26c-1.2 3.28-6.2 10.22-9 4.16-1.22-2.6-.9-5.83 0-8.47s4.5-9.5 8.23-5.48c2.33 2.52 1.7 6.86.86 9.8-.23.83 2.64.43 2.88-.43 1.2-4.3 1.27-11.93-4.83-12.12-4.94-.16-8.62 4.38-10 8.67s-1.24 11.56 4.47 12.1c5.18.5 8.8-4.37 10.38-8.66.17-.76-2.68-.42-3 .43h.01zm-33.75-2.36c-6.43-2.8-2-18.53 4.83-17 1.42.32 2.9-1.68 1-2.1-9.88-2.23-16.9 17-7.5 21.06 1.2.53 3.35-1.22 1.67-2v.04z"/><path d="M718.1 600l-13-4.2c-4.5-1.46-9.26-3.68-13.9-4.5-3.33-.6-7.12-.1-10.5-.1h-18.9c-21.6 0-7.26-43.7 7.2-36.53 4.5 2.23 8.72 6.34 12.77 9.28s8.2 6.7 12.65 9.2c3.48 2 7.92 2.78 11.72 4l15.86 5.12c.82.27 3.43-1 2.32-1.33l-15.82-5.13c-3.73-1.2-8.75-2.3-11.7-4-5.4-3.18-10.38-7.55-15.45-11.23-3.36-2.44-7-6.17-11-7.6-6.84-2.46-13.85 3.4-17.3 8.7-4.84 7.46-8.24 21.5-.78 28.58 3.46 3.28 7.75 2.48 12.12 2.47h20.9c1.16 0 2.37-.1 3.53 0s-.4-.14.4 0a85.5 85.5 0 0 1 8 2.6l18.54 6c.82.26 3.44-1 2.33-1.34h.02-.01z"/></g><path d="M710.26 586.9c-.25.75-1.56 1-2.94.56s-2.3-1.42-2.06-2.18 1.57-1 3-.56 2.24 1.42 2 2.18zm-9.5-3.1c-.25.75-1.57 1-2.94.55s-2.3-1.42-2.06-2.17 1.56-1 2.94-.56 2.3 1.42 2.06 2.18z" class="C"/><path d="M709 587.53c-.25.76-1.56 1-2.94.56s-2.3-1.42-2-2.18 1.56-1 2.94-.55 2.24 1.42 2 2.17zm-9.5-3.08c-.25.75-1.56 1-2.94.56s-2.3-1.42-2.06-2.18 1.56-1 2.94-.56 2.3 1.42 2.06 2.18zm159.84-30.37v-.06c-.37-.76-2.1 0-2.58.28l-.1.07c-.1.07-.4.32-.32.5.83 2.18-2.37 7.5-3.42 9.3a40.89 40.89 0 0 1-7 8.8c-5.487 5.13-11.91 9.158-18.92 11.86-16 6.52-32.07 7.73-49.1 6-15.67-1.58-30.8-3.78-45-11-3.77-1.92-20.9-9.7-21.06.14 0 .6 2.88.16 2.9-.78.1-6.7 14.5 1.2 16.17 2a89.61 89.61 0 0 0 8.16 3.73c6.62 2.462 13.487 4.208 20.48 5.2 13.86 2.2 28.4 4.06 42.4 2.32 12.64-1.56 25.74-5.4 36.68-12 5.394-3.175 10.163-7.3 14.07-12.2a37.75 37.75 0 0 0 4.16-6.57c.4-.84 2.57-7.47 2.15-7.2l-2.57.28v.05c.4.8 3.2-.16 2.9-.77l.01.03-.01.02zM682 594.2c-3.7-2.15-6.3-7.73-3-11.34 1.2-1.32-1.58-1.65-2.4-.75-4 4.34-1.55 11 3.13 13.7 1 .6 3.6-.82 2.26-1.6h.01 0z" class="B"/><path d="M184.37 485.14c-5.5 1.7-12.45.92-18 .18-13.3-1.8-25.77-7-37.12-14.08-.8-.5-3.47.67-2.3 1.4 12.16 7.56 25.64 13 39.95 14.52 5.63.6 12.34 1.13 17.87-.58 1.7-.53 1.36-2-.38-1.43h-.01l-.01-.01z" fill="#ddd"/><path d="M763.46 544c-6.75 16.58-16.32 31.83-31.33 42-14 9.45-33.94 18.22-50 8.56-.8-.47-3.3.7-2.7 1.06 15.55 9.38 34.95 2.65 49.36-5.82 18.1-10.63 29.65-26.9 37.5-46.2.3-.73-2.53-.42-2.88.43l.05-.03z" class="B"/><path d="M335.675 204.633a19.71 19.71 0 0 0 3.671-.819 32.3 32.3 0 0 0 3.549-1.382l3.274-1.696 2.86-1.764.91-.624.555-.403.447-.318.584-.38-.108-.342-.106-.33-.152-.435-.157-.474-1.487-.284-1.383-.35-1.385-.415-1.477-.47-1.403-.458-1.353-.373c-.442-.103-.874-.175-1.295-.216s-.826-.037-1.214.01c-.734.1-1.434.378-2.102.863s-1.256 1.118-1.764 1.9l-.56 1.008-.384.83.722.207.762.215.445-.922c.195-.374.437-.744.725-1.107s.628-.686 1.018-.966.832-.45 1.324-.51c.302-.037.63-.034.987.01a9.74 9.74 0 0 1 1.123.21l1.218.343 1.287.42-.013.002.84.27.994.285 1.235.32 1.564.38-3.317 2.096-3.482 1.88a31.9 31.9 0 0 1-3.566 1.456c-1.2.406-2.39.68-3.572.826l-2.563.315a.78.78 0 0 0-.524.281c-.134.16-.187.35-.16.565a.72.72 0 0 0 .292.503c.17.128.36.18.577.153l2.563-.315zm10.512 4.807l1.522-1.948-1.92-1.5-1.522 1.948 1.92 1.5zm-5.253.67l1.522-1.948-1.92-1.512-1.522 1.948 1.92 1.512zm3.172 3.146l1.522-1.948-1.92-1.5-1.522 1.948 1.92 1.5zm-21.17-7.06a17.18 17.18 0 0 0 1.832-.33 13.28 13.28 0 0 0 1.798-.556 9.15 9.15 0 0 0 1.578-.792 4.83 4.83 0 0 0 1.198-1.054c.482.502 1.032.898 1.65 1.2s1.316.4 2.093.295c.2-.024.365-.117.498-.278s.187-.35.16-.565-.124-.386-.293-.51a.78.78 0 0 0-.576-.146c-.552.068-1.004.03-1.355-.116s-.635-.358-.854-.638a3.04 3.04 0 0 1-.501-.977l-.3-1.132-.143-.626-.342-1.344c-.12-.437-.275-.906-.47-1.408l-.512.22-.23.1-.186.09-.2.1-.257.104.294.785.206.665.148.62.116.623c.117.74.044 1.355-.22 1.847s-.654.895-1.172 1.208-1.136.556-1.856.727-1.48.307-2.283.405l-.984.12c-.216.026-.386.12-.51.28s-.174.348-.148.563.12.386.28.51.348.174.563.148l.984-.12zm2.183 6.973l1.5-1.92-1.948-1.522-1.497 1.932 1.946 1.51zm4.612-.54l1.486-1.917-1.935-1.523-1.5 1.92 1.948 1.522zm-14.576-16.28l1.5-1.933-1.948-1.522-1.5 1.933 1.948 1.522zm-2.84 20.652c.935-.658 1.83-1.392 2.68-2.202s1.59-1.67 2.212-2.585a11.04 11.04 0 0 0 1.415-2.868c.32-1 .417-2.01.29-3.038l-.203-1.013c.285.324.6.56.94.706s.674.246.996.298.613.07.874.05l.546-.047a.77.77 0 0 0 .518-.274.7.7 0 0 0 .155-.558.75.75 0 0 0-.286-.51c-.165-.133-.356-.186-.572-.16l-.065.008c-.475.058-.928.007-1.36-.155s-.856-.44-1.272-.836-.833-.916-1.25-1.562-.848-1.427-1.293-2.345l-1.38.63.634 1.42.65 1.537.538 1.544c.155.51.26.99.315 1.44.108.88.015 1.748-.278 2.603s-.72 1.68-1.28 2.47-1.22 1.54-1.984 2.248-1.56 1.352-2.39 1.936l.2.284.185.273.22.34.248.364zm-13.07 1.342c1.38-.17 2.637-.446 3.768-.83s2.126-.865 2.983-1.444c.875-.58 1.547-1.226 2.016-1.936s.73-1.454.784-2.232v.013a4.97 4.97 0 0 0-.019-.799c-.063-.51-.222-.917-.48-1.222a2.64 2.64 0 0 0-.942-.712 4.97 4.97 0 0 0-1.228-.368l-1.337-.19.013-.002-1.128-.144a6.49 6.49 0 0 1-1.041-.24c-.324-.105-.61-.247-.86-.427a1.84 1.84 0 0 1-.586-.703c-.072-.158-.128-.313-.17-.466a3.41 3.41 0 0 1-.09-.462c-.05-.397-.025-.814.07-1.25a6.12 6.12 0 0 1 .44-1.289c.198-.423.436-.833.716-1.23s.586-.755.92-1.072.68-.587 1.037-.81.712-.374 1.06-.452l-.026.003a2.95 2.95 0 0 1 .656-.172c.254-.04.507-.064.76-.074l.737.008a4.47 4.47 0 0 1 .6.071l.217-.644.13-.377.088-.247.087-.254a10.1 10.1 0 0 0-1.09-.155c-.44-.042-.917-.032-1.435.032-.2.024-.402.06-.61.108s-.43.112-.666.193c-.824.285-1.578.706-2.263 1.263s-1.268 1.198-1.748 1.923-.834 1.506-1.06 2.344-.287 1.68-.183 2.526a6 6 0 0 0 .282 1.227c.154.472.41.852.764 1.14a4.38 4.38 0 0 0 1.209.693c.45.172.922.303 1.415.39l1.38.225.985.155a4.78 4.78 0 0 1 .886.259c.263.108.477.248.643.42a.89.89 0 0 1 .254.626c.01.498-.165 1.008-.522 1.53s-.88 1.01-1.574 1.468-1.548.86-2.565 1.21-2.178.602-3.48.762c-1.295.16-2.456.122-3.483-.11s-1.89-.635-2.592-1.206c-.257-.24-.482-.502-.675-.785a5.84 5.84 0 0 1-.496-.885c-.138-.307-.25-.615-.337-.925a6.09 6.09 0 0 1-.182-.891l-.05-.566-.014-.49.282-3.537.568-3.56-1.57-.372-.235 1.297-.3 1.87-.247 2.16-.12 2.17-.002-.013c.001.438.026.85.073 1.24.112.915.362 1.756.75 2.523s.88 1.43 1.473 1.988l-.002-.013c.86.735 1.915 1.254 3.16 1.557s2.642.36 4.187.17zm-26.26-20.14l1.5-1.933-1.948-1.522-1.5 1.933 1.948 1.522zm-.777 14.223l1.186-.185c.402-.076.816-.2 1.242-.376.675-.284 1.232-.67 1.67-1.158a4.72 4.72 0 0 0 .977-1.677l.002.013c.16-.554.195-1.194.106-1.92-.064-.518-.188-1.063-.372-1.636s-.426-1.187-.726-1.843l-.72-1.43-.594-1.038-.637.433-.663.436.276.48.333.57.338.61.288.582c.54 1.187.862 2.203.966 3.05.076.62.014 1.146-.188 1.574a2.77 2.77 0 0 1-.862 1.059c-.373.278-.805.49-1.295.64a8.89 8.89 0 0 1-1.486.314l-1.916.235a.74.74 0 0 0-.505.279c-.13.16-.18.35-.154.564s.122.386.286.5a.74.74 0 0 0 .557.148l1.9-.232zm-11.988 1.472a17.18 17.18 0 0 0 1.832-.33 13.28 13.28 0 0 0 1.798-.556 9.15 9.15 0 0 0 1.578-.792 4.83 4.83 0 0 0 1.198-1.054c.482.502 1.032.898 1.65 1.2s1.316.4 2.093.295c.2-.024.365-.117.498-.278s.187-.35.16-.565-.124-.386-.293-.51a.78.78 0 0 0-.576-.146c-.552.068-1.004.03-1.355-.116s-.635-.358-.854-.638a3.04 3.04 0 0 1-.501-.977l-.3-1.132-.143-.626-.342-1.344c-.12-.437-.275-.906-.47-1.408l-.512.22-.23.1-.186.09-.2.1-.257.104.294.785.206.665.148.62.116.623c.117.74.044 1.355-.22 1.847s-.654.895-1.172 1.208-1.136.556-1.856.727-1.48.307-2.283.405l-.984.12c-.216.026-.386.12-.51.28s-.174.348-.148.563.12.386.28.51.348.174.563.148l.984-.12zm2.183 6.973l1.5-1.92-1.948-1.522-1.497 1.932 1.946 1.51zm4.612-.54l1.486-1.917-1.935-1.523-1.5 1.92 1.948 1.522zm-23.725-4.315a3.92 3.92 0 0 0 1.356-.41c.403-.212.76-.48 1.07-.802a4.95 4.95 0 0 0 .798-1.103 7.06 7.06 0 0 0 .537-1.301 6.19 6.19 0 0 0 .656 1.22c.25.355.537.646.863.873a3.15 3.15 0 0 0 1.097.483c.406.095.86.11 1.36.05.526-.065.997-.212 1.41-.443s.764-.517 1.05-.858.506-.728.66-1.16a4.35 4.35 0 0 0 .249-1.345 4.37 4.37 0 0 0 .738 1.191 4.69 4.69 0 0 0 1.108.942c.422.26.883.452 1.385.58a4.24 4.24 0 0 0 1.568.09l.104-.013c.216-.026.386-.122.5-.286a.74.74 0 0 0 .148-.557c-.026-.216-.12-.386-.28-.51s-.348-.174-.563-.148l-.104.013c-1.467.18-2.73-.856-3.785-3.1-.3-.672-.545-1.278-.703-1.82l-.38-1.543-.735.17-.788.162.12.603.093.593.104 1.065c.03.4.042.8.033 1.23a8.69 8.69 0 0 1-.117 1.243 4.16 4.16 0 0 1-.343 1.113 2.47 2.47 0 0 1-.646.841c-.27.226-.612.364-1.027.415-.328.04-.62.017-.876-.07a1.86 1.86 0 0 1-.673-.397c-.193-.178-.356-.388-.49-.63a4.5 4.5 0 0 1-.337-.767c-.1-.27-.163-.545-.22-.827l-.13-.786-.114-1.464.01-1.31-.735-.048-.776-.056-.114 1.157-.237 1.547a16.76 16.76 0 0 1-.419 1.674c-.172.564-.392 1.07-.66 1.52s-.593.81-.97 1.085-.823.4-1.334.374c-.414-.02-.746-.138-.997-.357s-.445-.502-.584-.848a4.19 4.19 0 0 1-.269-1.176c-.04-.437-.056-.88-.045-1.328l.076-1.304.107-1.1-1.512-.222-.23 1.296a15.56 15.56 0 0 1-.399 1.514c-.164.52-.36 1.034-.592 1.545s-.498.974-.8 1.393-.646.767-1.028 1.046-.806.447-1.272.504l-.104.013c-.196.042-.366.143-.508.305s-.2.342-.177.54a.72.72 0 0 0 .292.503.75.75 0 0 0 .564.154l.117-.014c.526-.065 1.003-.21 1.43-.44a5.05 5.05 0 0 0 1.152-.838c.34-.33.64-.7.902-1.11s.488-.826.68-1.253c.335 1.02.826 1.75 1.472 2.198s1.397.617 2.25.512zm-27.32-7.37l1.5-1.92-1.948-1.522-1.497 1.932 1.946 1.51zm4.612-.54l1.486-1.917-1.935-1.523-1.5 1.92 1.948 1.522zm-1.994 10.942c4.756-.584 8.255-2.372 10.5-5.363.233.47.455.866.665 1.187s.41.57.598.748a4.8 4.8 0 0 0 2.05 1.181c.8.227 1.708.285 2.755.174l.104-.013c.216-.026.388-.12.518-.28s.18-.35.154-.564-.122-.386-.286-.5-.354-.173-.57-.147c-.803.1-1.508.062-2.116-.108s-1.12-.445-1.533-.824a3.29 3.29 0 0 1-.789-1.178c-.167-.435-.285-.86-.353-1.27-.02-.155-.032-.33-.038-.528a15.76 15.76 0 0 1-.008-.603c.001-.206.01-.407.03-.602s.046-.374.08-.535l-1.528-.246a21.73 21.73 0 0 1-.268 1.189 8.99 8.99 0 0 1-.403 1.212 8.09 8.09 0 0 1-.61 1.185c-.24.39-.533.758-.876 1.106l.01-.015c-.838.883-1.936 1.587-3.295 2.113s-3.018.91-4.977 1.15c-2.192.27-4.048.243-5.568-.078s-2.636-.916-3.347-1.784a4.68 4.68 0 0 1-.578-1.066 4.85 4.85 0 0 1-.285-1.141c-.038-.31-.047-.618-.028-.923s.056-.594.1-.868a8.66 8.66 0 0 1 .183-.758l.177-.593-.602-.248-.617-.26-.22-.09c-.076.237-.156.547-.24.93s-.157.827-.217 1.334c-.08.562-.08 1.166-.001 1.814a6.7 6.7 0 0 0 .37 1.518c.183.494.447.96.8 1.4.875 1.137 2.172 1.886 3.9 2.25s3.842.398 6.373.105z" class="C"/></g></svg>