<svg width="36" height="36" viewBox="0 0 36 36" fill="none" xmlns="http://www.w3.org/2000/svg">
<path d="M16.5 27V31.5C16.5 32.325 15.825 33 15 33C14.175 33 13.5 32.325 13.5 31.5V27H16.5Z" fill="#00CC6E"/>
<path d="M22.5 27V31.5C22.5 32.325 21.825 33 21 33C20.175 33 19.5 32.325 19.5 31.5V27H22.5Z" fill="#00CC6E"/>
<path opacity="0.4" d="M25.5 16.5V24C25.5 25.65 24.15 27 22.5 27H13.5C11.85 27 10.5 25.65 10.5 24V16.5C10.5 14.85 11.85 13.5 13.5 13.5H22.5C24.15 13.5 25.5 14.85 25.5 16.5Z" fill="#00CC6E"/>
<path d="M7.5 16.5V22.5C7.5 23.325 6.825 24 6 24C5.175 24 4.5 23.325 4.5 22.5V16.5C4.5 15.675 5.175 15 6 15C6.825 15 7.5 15.675 7.5 16.5Z" fill="#00CC6E"/>
<path d="M31.5 16.5V22.5C31.5 23.325 30.825 24 30 24C29.175 24 28.5 23.325 28.5 22.5V16.5C28.5 15.675 29.175 15 30 15C30.825 15 31.5 15.675 31.5 16.5Z" fill="#00CC6E"/>
<path opacity="0.4" d="M14.4 11.4H21.6C22.92 11.4 24 10.32 24 9C24 5.685 21.315 3 18 3C14.685 3 12 5.685 12 9C12 10.32 13.08 11.4 14.4 11.4Z" fill="#00CC6E"/>
</svg>
