<svg width="36" height="36" viewBox="0 0 36 36" fill="none" xmlns="http://www.w3.org/2000/svg">
<path fillRule="evenodd" clip-rule="evenodd" d="M28.6499 28.74C29.5349 27.39 29.8649 26.7 30.5399 25.185C25.5599 23.295 24.7649 16.2 29.6849 13.485C28.1849 11.595 26.0699 10.5 24.0749 10.5C22.6349 10.5 21.6449 10.875 20.7599 11.22C20.0099 11.505 19.3349 11.76 18.4949 11.76C17.5949 11.76 16.7999 11.475 15.9599 11.175C15.0599 10.845 14.0999 10.5 12.8999 10.5C10.6649 10.5 8.27994 11.865 6.76494 14.205C4.63494 17.505 5.00993 23.685 8.44493 28.965C9.67493 30.855 11.3249 32.97 13.4699 33C14.3699 33.015 14.9549 32.745 15.5999 32.46C16.3349 32.13 17.1299 31.77 18.5249 31.77C19.9199 31.755 20.6999 32.13 21.4349 32.46C22.0649 32.745 22.6349 33.015 23.5199 33C25.6799 32.97 27.4199 30.63 28.6499 28.74Z" fill="black"/>
<path opacity="0.4" fillRule="evenodd" clip-rule="evenodd" d="M23.7599 3C23.9999 4.65 23.3249 6.285 22.4399 7.425C21.4949 8.655 19.8449 9.615 18.2549 9.555C17.9699 7.965 18.7049 6.33 19.6049 5.235C20.6099 4.035 22.3049 3.105 23.7599 3Z" fill="black"/>
</svg>
