<?xml version="1.0" encoding="UTF-8"?>
<svg viewBox="0 0 24 24" xmlns="http://www.w3.org/2000/svg">
<path d="m20.75 7.75-2.0834 1.1458-2.0833 1.9792v6.7917h2.9167c0.6904 0 1.25-0.5596 1.25-1.25v-8.6667z" fill="#4CAF50"/>
<path d="m3.25 7.75 1.5058 0.7125 2.6608 2.4125v6.7917h-2.9167c-0.69042 0-1.25-0.5596-1.25-1.25v-8.6667z" fill="#1E88E5"/>
<path d="M16.5833 5.66699L12 9.10449L7.41667 5.66699L7 8.08366L7.41667 10.8753L12 14.3128L16.5833 10.8753L17 8.08366L16.5833 5.66699Z" fill="#E53935"/>
<path d="m3.25 6.1238v1.6258l4.1667 3.125v-5.2084l-1.3017-0.97542c-0.31-0.2325-0.68667-0.35791-1.0742-0.35791-0.98916 0-1.7908 0.80166-1.7908 1.7908z" fill="#C62828"/>
<path d="m20.75 6.1238v1.6258l-4.1667 3.125v-5.2084l1.3017-0.97542c0.31-0.2325 0.6866-0.35791 1.0741-0.35791 0.9892 0 1.7909 0.80166 1.7909 1.7908z" fill="#FBC02D"/>
</svg>
