<?xml version="1.0" encoding="UTF-8"?>
<svg fill="none" viewBox="0 0 24 24" xmlns="http://www.w3.org/2000/svg">
<path d="m12 3c-2.4443 0-2.7508 0.01037-3.7107 0.05418-0.95793 0.04369-1.6122 0.19582-2.1847 0.41832-0.59182 0.22999-1.0937 0.53775-1.594 1.0381-0.50035 0.50031-0.8081 1.0022-1.0381 1.5941-0.2225 0.57245-0.37462 1.2267-0.41832 2.1846-0.0438 0.95994-0.05414 1.2664-0.05414 3.7107 0 2.4442 0.01034 2.7507 0.05414 3.7106 0.0437 0.958 0.19582 1.6122 0.41832 2.1847 0.23 0.5918 0.53775 1.0937 1.0381 1.5941 0.50031 0.5003 1.0022 0.8081 1.594 1.0381 0.57249 0.2224 1.2268 0.3746 2.1847 0.4183 0.95994 0.0438 1.2664 0.0541 3.7107 0.0541 2.4442 0 2.7507-0.0103 3.7106-0.0541 0.958-0.0437 1.6122-0.1959 2.1847-0.4183 0.5918-0.23 1.0937-0.5378 1.5941-1.0381 0.5003-0.5004 0.8081-1.0023 1.0381-1.5941 0.2224-0.5725 0.3746-1.2267 0.4183-2.1847 0.0438-0.9599 0.0541-1.2664 0.0541-3.7106 0-2.4443-0.0103-2.7508-0.0541-3.7107-0.0437-0.95793-0.1959-1.6122-0.4183-2.1846-0.23-0.59182-0.5378-1.0938-1.0381-1.5941-0.5004-0.50034-1.0023-0.8081-1.5941-1.0381-0.5725-0.2225-1.2267-0.37463-2.1847-0.41832-0.9599-0.04381-1.2664-0.05418-3.7106-0.05418zm0 1.6216c2.4031 0 2.6877 0.00914 3.6367 0.05246 0.8775 0.04004 1.354 0.18664 1.6712 0.30986 0.4201 0.16327 0.7199 0.35832 1.0348 0.67324 0.315 0.31493 0.51 0.61478 0.6733 1.0348 0.1232 0.31714 0.2698 0.79369 0.3099 1.6712 0.0432 0.94904 0.0524 1.2337 0.0524 3.6368 0 2.4031-0.0092 2.6877-0.0524 3.6367-0.0401 0.8775-0.1867 1.354-0.3099 1.6712-0.1633 0.4201-0.3583 0.7199-0.6733 1.0348-0.3149 0.315-0.6147 0.51-1.0348 0.6733-0.3172 0.1232-0.7937 0.2698-1.6712 0.3098-0.9488 0.0433-1.2335 0.0525-3.6367 0.0525-2.4033 0-2.6879-0.0092-3.6368-0.0525-0.87746-0.04-1.354-0.1866-1.6712-0.3098-0.42008-0.1633-0.7199-0.3583-1.0349-0.6733-0.31493-0.3149-0.50998-0.6147-0.67321-1.0348-0.12326-0.3172-0.26986-0.7937-0.3099-1.6712-0.04331-0.949-0.05245-1.2336-0.05245-3.6367 0-2.4031 0.00914-2.6878 0.05245-3.6368 0.04004-0.87746 0.18664-1.354 0.3099-1.6712 0.16323-0.42005 0.35828-0.7199 0.67321-1.0348 0.31496-0.31492 0.61478-0.50997 1.0349-0.67324 0.31714-0.12322 0.79369-0.26982 1.6712-0.30986 0.94904-0.04332 1.2337-0.05246 3.6368-0.05246z" fill="url(#c)"/>
<path d="m11.999 15c-1.6569 0-3-1.3431-3-3 0-1.6568 1.3431-3 3-3 1.6568 0 2.9999 1.3432 2.9999 3 0 1.6569-1.3431 3-2.9999 3zm0-7.6216c-2.5525 0-4.6216 2.0692-4.6216 4.6216 0 2.5525 2.0692 4.6216 4.6216 4.6216 2.5524 0 4.6216-2.0691 4.6216-4.6216 0-2.5524-2.0692-4.6216-4.6216-4.6216z" fill="url(#b)"/>
<path d="m17.887 7.1962c0 0.59649-0.4836 1.08-1.08 1.08-0.5965 0-1.08-0.48351-1.08-1.08 0-0.59647 0.4835-1.08 1.08-1.08 0.5964 0 1.08 0.4835 1.08 1.08z" fill="url(#a)"/>
<defs>
<linearGradient id="c" x1="13.575" x2="8.3153" y1="2.0463" y2="19.424" gradientUnits="userSpaceOnUse">
<stop stop-color="#515BD4" offset="0"/>
<stop stop-color="#9510B8" offset=".26"/>
<stop stop-color="#E51804" offset=".66"/>
<stop stop-color="#FEDA77" offset="1"/>
</linearGradient>
<linearGradient id="b" x1="13.574" x2="8.3139" y1="2.0468" y2="19.425" gradientUnits="userSpaceOnUse">
<stop stop-color="#515BD4" offset="0"/>
<stop stop-color="#9510B8" offset=".26"/>
<stop stop-color="#E51804" offset=".66"/>
<stop stop-color="#FFBF00" offset="1"/>
</linearGradient>
<linearGradient id="a" x1="13.578" x2="8.3177" y1="2.0467" y2="19.424" gradientUnits="userSpaceOnUse">
<stop stop-color="#515BD4" offset="0"/>
<stop stop-color="#9510B8" offset=".26"/>
<stop stop-color="#E51804" offset=".66"/>
<stop stop-color="#FFBF00" offset="1"/>
</linearGradient>
</defs>
</svg>
