
<svg xmlns="http://www.w3.org/2000/svg" width="400" height="8" viewBox="0 0 400 8"><defs><style>.a{fill:#fff;}</style></defs><g transform="translate(-16 -463.907)"><path class="a" d="M0,10.637V0H7.814Z" transform="translate(416 464) rotate(90)"/><g transform="translate(26.002 463.907)"><path class="a" d="M0,0V16.046L8,8.023Z" transform="translate(82.402 0) rotate(90)"/><path class="a" d="M0,0V16.046L8,8.023Z" transform="translate(248.293 0) rotate(90)"/><path class="a" d="M0,0V16.046L8,8.023Z" transform="translate(16.046 0) rotate(90)"/><path class="a" d="M0,0V16.046L8,8.023Z" transform="translate(148.758 0) rotate(90)"/><path class="a" d="M0,0V16.046L8,8.023Z" transform="translate(314.649 0) rotate(90)"/><path class="a" d="M0,0V16.046L8,8.023Z" transform="translate(347.361 0) rotate(90)"/><path class="a" d="M0,0V16.046L8,8.023Z" transform="translate(331.361 0) rotate(90)"/><path class="a" d="M0,0V16.046L8,8.023Z" transform="translate(363.361 0) rotate(90)"/><path class="a" d="M0,0V16.046L8,8.023Z" transform="translate(379.361 0) rotate(90)"/><path class="a" d="M0,0V16.046L8,8.023Z" transform="translate(115.58 0) rotate(90)"/><path class="a" d="M0,0V16.046L8,8.023Z" transform="translate(281.968 0) rotate(90)"/><path class="a" d="M0,0V16.046L8,8.023Z" transform="translate(48.859 0) rotate(90)"/><path class="a" d="M0,0V16.046L8,8.023Z" transform="translate(215.114 0) rotate(90)"/><path class="a" d="M0,0V16.046L8,8.023Z" transform="translate(181.936 0) rotate(90)"/><path class="a" d="M0,0V16.046L8,8.023Z" transform="translate(98.873 0) rotate(90)"/><path class="a" d="M0,0V16.046L8,8.023Z" transform="translate(265.511 0) rotate(90)"/><path class="a" d="M0,0V16.046L8,8.023Z" transform="translate(32.335 0) rotate(90)"/><path class="a" d="M0,0V16.046L8,8.023Z" transform="translate(165.229 0) rotate(90)"/><path class="a" d="M0,0V16.046L8,8.023Z" transform="translate(132.051 0) rotate(90)"/><path class="a" d="M0,0V16.046L8,8.023Z" transform="translate(298.192 0) rotate(90)"/><path class="a" d="M0,0V16.046L8,8.023Z" transform="translate(65.148 0) rotate(90)"/><path class="a" d="M0,0V16.046L8,8.023Z" transform="translate(231.585 0) rotate(90)"/><path class="a" d="M0,0V16.046L8,8.023Z" transform="translate(198.407 0) rotate(90)"/></g><path class="a" d="M0,0V10H8Z" transform="translate(26.002 463.907) rotate(90)"/></g></svg>
