<?xml version="1.0" encoding="UTF-8"?>
<svg fill="none" viewBox="0 0 25 25" xmlns="http://www.w3.org/2000/svg">
<path d="m19.425 20.143c-8.531 0.012-15.006-6.54-14.997-14.997 0-0.553 0.448-1.003 1-1.003h2.64c0.495 0 0.916 0.364 0.989 0.854 0.1741 1.175 0.51592 2.319 1.015 3.397l0.103 0.222c0.0692 0.14939 0.0841 0.31825 0.0421 0.47744-0.042 0.15918-0.1382 0.29873-0.27206 0.39456-0.818 0.58403-1.13 1.759-0.493 2.675 0.79896 1.15 1.806 2.158 2.956 2.957 0.917 0.636 2.092 0.324 2.675-0.493 0.0958-0.1343 0.2354-0.2309 0.3949-0.2731 0.1594-0.0422 0.3285-0.0273 0.4781 0.0421l0.221 0.102c1.078 0.5 2.222 0.842 3.397 1.016 0.49 0.073 0.854 0.494 0.854 0.99v2.639c0 0.1314-0.0259 0.2615-0.0762 0.3829s-0.124 0.2316-0.217 0.3245-0.2033 0.1665-0.3248 0.2167c-0.1214 0.0502-0.2516 0.076-0.383 0.0759h-2e-3z" fill="#34A853"/>
</svg>
