<svg width="56" height="56" viewBox="0 0 56 56" fill="none" xmlns="http://www.w3.org/2000/svg">
<circle cx="28" cy="28" r="22" fill="#E74560"/>
<circle cx="28" cy="28" r="26" stroke="url(#paint0_linear_1372_8356)" stroke-width="4"/>
<path d="M38.2119 17.8033C37.6106 17.202 36.6394 17.202 36.0381 17.8033L28.4994 25.3266L20.9606 17.7879C20.3594 17.1866 19.3881 17.1866 18.7869 17.7879C18.1856 18.3891 18.1856 19.3604 18.7869 19.9616L26.3256 27.5004L18.7869 35.0391C18.1856 35.6404 18.1856 36.6116 18.7869 37.2129C19.3881 37.8141 20.3594 37.8141 20.9606 37.2129L28.4994 29.6741L36.0381 37.2129C36.6394 37.8141 37.6106 37.8141 38.2119 37.2129C38.8131 36.6116 38.8131 35.6404 38.2119 35.0391L30.6731 27.5004L38.2119 19.9616C38.7977 19.3758 38.7977 18.3891 38.2119 17.8033Z" fill="white"/>
<defs>
<linearGradient id="paint0_linear_1372_8356" x1="5" y1="56" x2="75.9108" y2="-7.13207" gradientUnits="userSpaceOnUse">
<stop stop-color="#E74560"/>
<stop offset="0.892335" stop-color="#E74560" stop-opacity="0.19"/>
</linearGradient>
</defs>
</svg>
