<?xml version="1.0" encoding="UTF-8"?>
<svg fill="none" viewBox="0 0 24 24" xmlns="http://www.w3.org/2000/svg">
<path d="m22 5.9479c-0.6991 0.31977-1.4504 0.53588-2.2389 0.63311 0.8049-0.49761 1.4229-1.2856 1.714-2.2245-0.7652 0.46835-1.6024 0.79833-2.4753 0.97569-0.7111-0.7814-1.7241-1.2697-2.8453-1.2697-2.1528 0-3.8982 1.8003-3.8982 4.0207 0 0.31518 0.0345 0.62201 0.1009 0.91636-3.2396-0.16773-6.1119-1.7684-8.0346-4.201-0.33547 0.59384-0.52769 1.2846-0.52769 2.0214 0 1.395 0.68823 2.6256 1.7341 3.3466-0.61902-0.02-1.2244-0.19241-1.7657-0.50293-2.2e-4 0.01684-2.2e-4 0.03369-2.2e-4 0.0506 0 1.9481 1.3437 3.5732 3.1268 3.9426-0.57402 0.161-1.1761 0.1846-1.7603 0.0689 0.496 1.5974 1.9356 2.7598 3.6413 2.7923-1.3341 1.0784-3.0149 1.7212-4.8411 1.7212-0.31469 0-0.62493-0.0191-0.92989-0.0562 1.7251 1.1408 3.774 1.8065 5.9754 1.8065 7.17 0 11.091-6.1268 11.091-11.44 0-0.1744-0.0038-0.34779-0.0113-0.52019 0.7631-0.56905 1.4218-1.2739 1.9451-2.0814z" fill="#55ACEE"/>
</svg>
