<?xml version="1.0" encoding="UTF-8"?>
<svg viewBox="0 0 512 512" xmlns="http://www.w3.org/2000/svg">
<polygon points="307.2 298.68 204.8 298.68 204.8 307.21 204.8 341.34 204.8 512 307.2 512 307.2 341.34" fill="#FEDAC6"/>
<g fill="#DE4C3C">
<path d="m136.03 350.47c-33.902 4.531-59.219 33.458-59.219 67.667v93.863h128v-170.66l-68.777 9.13z"/>
<path d="m435.2 418.14c0-34.209-25.318-63.136-59.219-67.667l-68.776-9.13v170.66h128v-93.864z"/>
</g>
<path d="m204.8 381.79v130.21h102.4v-130.21c-29.286 25.735-73.111 25.735-102.4 0z" fill="#EBEBEB"/>
<path d="m307.2 298.68h-102.4v83.112c29.285 25.727 73.111 25.727 102.4 0v-83.112z" fill="#FEDAC6"/>
<path d="m238.94 399.11c-12.62-2.748-24.353-8.618-34.132-17.066v129.96h34.132v-112.89z" fill="#DBDBDB"/>
<path d="m307.2 332.81v-34.132h-102.4v34.132c38.399 17.066 63.998 17.066 102.4 0z" fill="#F5C4B0"/>
<path d="m258.56 17.088c-42.418-9e-3 -79.852 27.698-92.242 68.264h184.31c-12.347-40.523-49.705-68.221-92.072-68.264z" fill="#A15D30"/>
<path d="m166.32 85.353c-4.147 13.499-5.231 27.758-3.157 41.727l1.28 9.472v85.33c0 51.838 42.025 93.864 93.864 93.864s93.864-42.025 93.864-93.864v-85.33l0.683-2.901c3.447-16.017 2.679-32.656-2.219-48.297-1e-3 -1e-3 -184.32-1e-3 -184.32-1e-3z" fill="#FEDAC6"/>
<g fill="#A15D30">
<path d="m196.27 85.353v8.533h152.06c-15.505-50.9-69.331-79.588-120.23-64.083-30.702 9.352-54.731 33.381-64.083 64.083h32.255v-8.533z"/>
<path d="m196.27 93.886h-32.255c-4.139 13.499-5.248 27.749-3.243 41.727l1.365 9.472c1e-3 -1e-3 34.133-17.067 34.133-51.199z"/>
<path d="m348.33 93.886h-32.596c0 34.132 34.132 51.198 34.132 51.198l0.597-2.901c3.422-16.017 2.688-32.639-2.133-48.297z"/>
</g>
<path d="m196.27 218.81v-124.92c0 34.132-34.132 51.198-34.132 51.198v85.33c-9e-3 41.59 27.357 78.231 67.24 90.024l-21.247-46.846c-7.825-17.203-11.869-35.882-11.861-54.783z" fill="#F5C4B0"/>
<path d="m358.4 145.08h-8.533v51.198h8.533c14.139 0 25.599-11.46 25.599-25.599s-11.46-25.599-25.599-25.599z" fill="#FEDAC6"/>
<path d="m128.01 170.68c0 14.139 11.46 25.599 25.599 25.599h8.533v-51.198h-8.533c-14.139 0-25.599 11.46-25.599 25.599z" fill="#F5C4B0"/>
<g fill="#91542B">
<rect x="247.46" y="25.604" width="17.066" height="68.264"/>
<rect transform="matrix(-.9487 .3162 -.3162 -.9487 437.31 65.648)" x="204.8" y="41.317" width="17.066" height="53.972"/>
<rect transform="matrix(-.4472 .8944 -.8944 -.4472 499.48 -172.11)" x="274.3" y="59.761" width="57.238" height="17.066"/>
</g>
<path d="m321.02 219.83c-2.108 4.215-7.236 5.922-11.451 3.806-0.887-0.444-1.69-1.041-2.372-1.758-11.076-10.973-26.051-17.109-41.641-17.066h-18.687c-15.999 0.017-31.342 6.366-42.665 17.663-3.319 3.345-8.721 3.371-12.066 0.06-0.555-0.546-1.033-1.169-1.416-1.852l-28.586-51.625v61.353c0 51.838 42.025 93.864 93.864 93.864s93.864-42.025 93.864-93.864v-68.264l-28.844 57.683z" fill="#A15D30"/>
<g fill="#8F4F24">
<path d="m196.27 224.7c-2.33-0.503-4.335-1.954-5.546-4.011l-28.586-51.625v61.353c0.034 36.095 20.769 68.973 53.332 84.563-12.561-22.911-19.165-48.621-19.199-74.749v-15.531z"/>
<path d="m315.73 8.555c-12.185 9e-3 -23.432 6.519-29.524 17.066l52.137 42.665c14.139-12.467 15.487-34.038 3.021-48.178-6.486-7.355-15.821-11.561-25.634-11.553z"/>
</g>
<g fill="#AD3228">
<rect x="153.6" y="349.86" width="51.198" height="162.13"/>
<polygon points="110.94 512 76.808 512 76.808 392.54 110.94 358.41"/>
<rect x="110.93" y="401.06" width="42.665" height="42.665"/>
</g>
<g fill="#7D241D">
<rect x="153.6" y="401.06" width="42.665" height="42.665"/>
<rect x="76.8" y="401.06" width="34.132" height="42.665"/>
<rect x="154.11" y="486.39" width="42.665" height="25.599"/>
</g>
<g fill="#AD3228">
<rect x="307.19" y="349.86" width="51.198" height="162.13"/>
<polygon points="401.06 512 435.2 512 435.2 392.54 401.06 358.41"/>
<rect x="358.39" y="401.06" width="42.665" height="42.665"/>
</g>
<g fill="#7D241D">
<rect x="315.72" y="401.06" width="42.665" height="42.665"/>
<rect x="401.06" y="401.06" width="34.132" height="42.665"/>
<rect x="315.22" y="486.39" width="42.665" height="25.599"/>
<rect x="76.8" y="486.39" width="34.132" height="25.599"/>
</g>
<rect x="110.93" y="486.39" width="42.665" height="25.599" fill="#AD3228"/>
<rect x="401.06" y="486.39" width="34.132" height="25.599" fill="#7D241D"/>
<rect x="358.39" y="486.39" width="42.665" height="25.599" fill="#AD3228"/>
<path d="m165.95 152.72-7.637-15.266 3.814 7.637-3.84-7.62c0.299-0.154 29.439-15.283 29.439-43.578h17.066c9e-3 38.954-37.255 58.033-38.842 58.827z"/>
<path d="m346.05 152.72c-1.587-0.794-38.851-19.873-38.851-58.835h17.066c0 28.296 29.14 43.425 29.439 43.578l-7.654 15.257z"/>
<rect x="170.66" y="85.336" width="170.66" height="17.066"/>
<path d="m344 74.678-11.298-12.783c2.082-1.843 3.84-4.002 5.231-6.408 7.057-12.219 2.859-27.912-9.369-34.968-12.228-7.048-27.912-2.859-34.968 9.369l-14.779-8.533c5.7-9.873 14.899-16.93 25.906-19.882 11.016-2.952 22.519-1.434 32.374 4.267 20.377 11.767 27.374 37.912 15.616 58.289-2.313 4.01-5.249 7.594-8.713 10.649z"/>
<circle cx="204.8" cy="162.13" r="17.066"/>
<circle cx="307.19" cy="162.13" r="17.066"/>
<path d="m264.54 213.35h-25.599c-2.739 0-5.316-1.314-6.92-3.55-1.604-2.227-2.039-5.086-1.178-7.688l17.066-51.198 16.187 5.401-13.329 39.969h13.764v17.066h9e-3z"/>
<path d="m240.4 256.01h-1.451v-17.066h1.451c13.286-9e-3 25.778-5.18 35.182-14.574l12.066 12.074c-12.63 12.611-29.406 19.557-47.248 19.566z"/>
<path d="m358.4 204.82h-8.533v-17.066h8.533c9.412 0 17.066-7.654 17.066-17.066s-7.654-17.066-17.066-17.066h-8.533v-17.066h8.533c18.824 0 34.132 15.308 34.132 34.132s-15.308 34.132-34.132 34.132z"/>
<path d="m162.14 204.82h-8.533c-18.824 0-34.132-15.308-34.132-34.132s15.308-34.132 34.132-34.132h8.533v17.066h-8.533c-9.412 0-17.066 7.654-17.066 17.066s7.654 17.066 17.066 17.066h8.533v17.066z"/>
<path d="m198.17 233.56c-1.519 0-3.046-0.205-4.557-0.623-4.395-1.212-8.055-4.07-10.308-8.03l-28.577-49.978 14.813-8.465 28.586 50.004c13.064-12.996 30.352-20.155 48.732-20.172h18.858c17.911 0 34.764 6.937 47.478 19.541l29.038-57.513 15.231 7.688-29.012 57.513c-0.811 1.613-1.877 3.098-3.166 4.386-3.208 3.217-7.492 5-12.049 5.009h-0.026c-4.548 0-8.832-1.766-12.049-4.975-9.472-9.386-22.075-14.574-35.446-14.574h-18.85c-13.832 9e-3 -26.845 5.401-36.641 15.172-1.058 1.067-2.295 2.014-3.644 2.79-2.609 1.467-5.493 2.227-8.411 2.227z"/>
<path d="m256 332.81c-56.463 0-102.4-45.933-102.4-102.4v-84.716l-1.28-8.866v-0.017c-0.683-4.796-1.033-9.676-1.041-14.506-0.145-57.879 46.821-105.08 104.7-105.22 7.287-0.034 14.975 0.759 22.305 2.338 56.54 12.134 92.652 68.008 80.526 124.55l-0.41 1.98v84.452c-7e-3 56.472-45.94 102.4-102.4 102.4zm-86.782-198.39 1.365 9.446c0.06 0.401 0.085 0.811 0.085 1.22v85.33c0 47.051 38.279 85.33 85.33 85.33s85.331-38.271 85.331-85.33v-85.33c0-0.58 0.06-1.16 0.179-1.732l0.597-2.901c10.171-47.401-20.07-94.179-67.403-104.35-6.127-1.314-12.586-1.997-18.67-1.954-48.468 0.119-87.797 39.645-87.677 88.104 2e-3 4.061 0.292 8.149 0.863 12.168z"/>
<path d="m85.342 512h-17.067v-93.863c0-38.313 28.637-71.038 66.626-76.123l61.37-8.149v-26.657h17.066v34.132c0 4.275-3.166 7.893-7.407 8.456l-68.776 9.13c-29.533 3.951-51.813 29.396-51.813 59.202l1e-3 93.872z"/>
<path d="m443.73 512h-17.066v-93.863c0-29.806-22.271-55.26-51.821-59.202l-68.768-9.13c-4.241-0.563-7.407-4.181-7.407-8.456v-34.134h17.066v26.657l61.361 8.149c37.989 5.077 66.635 37.81 66.635 76.123v93.856z"/>
<path d="m256.04 409.61h-0.077c-20.897 0-41.07-7.603-56.787-21.409l11.255-12.817c12.603 11.067 28.773 17.16 45.532 17.16h0.06c16.776 0 32.938-6.093 45.541-17.16l11.264 12.817c-15.71 13.807-35.882 21.409-56.788 21.409z"/>
<rect x="196.26" y="341.33" width="17.066" height="170.66"/>
<rect x="298.66" y="341.33" width="17.066" height="170.66"/>
<path d="m204.8 443.74h-51.198c-2.662 0-5.162-1.246-6.784-3.353-1.613-2.116-2.15-4.864-1.451-7.424l25.599-93.864 16.469 4.48-22.664 83.086h40.029v17.075z"/>
<path d="m358.4 443.74h-51.198v-17.066h40.02l-22.655-83.086 16.469-4.48 25.599 93.864c0.7 2.56 0.171 5.308-1.451 7.424-1.613 2.098-4.122 3.344-6.784 3.344z"/>
<path d="m174.94 486.41c-7.057 0-12.8-5.743-12.8-12.8s5.743-12.8 12.8-12.8 12.8 5.743 12.8 12.8c-1e-3 7.057-5.744 12.8-12.8 12.8zm0-17.066c-2.355 0-4.267 1.92-4.267 4.267s1.911 4.267 4.267 4.267c2.355 0 4.267-1.92 4.267-4.267-1e-3 -2.347-1.912-4.267-4.267-4.267z"/>
</svg>
